G75*
%MOIN*%
%OFA0B0*%
%FSLAX24Y24*%
%IPPOS*%
%LPD*%
%AMOC8*
5,1,8,0,0,1.08239X$1,22.5*
%
%ADD10C,0.0000*%
%ADD11R,0.0500X0.0220*%
%ADD12R,0.0560X0.0170*%
%ADD13R,0.0220X0.0500*%
%ADD14R,0.0315X0.0315*%
%ADD15R,0.0374X0.0374*%
%ADD16R,0.0600X0.0600*%
%ADD17C,0.0600*%
%ADD18R,0.0394X0.2000*%
%ADD19C,0.0118*%
%ADD20C,0.0277*%
%ADD21C,0.0079*%
%ADD22C,0.0250*%
%ADD23C,0.0157*%
D10*
X000139Y000149D02*
X000139Y015504D01*
X007029Y015504D01*
X007029Y011960D01*
X011360Y011960D01*
X011360Y015504D01*
X019037Y015504D01*
X019037Y000149D01*
X000139Y000149D01*
X012482Y014047D02*
X012484Y014103D01*
X012490Y014159D01*
X012500Y014215D01*
X012513Y014269D01*
X012531Y014323D01*
X012552Y014375D01*
X012576Y014426D01*
X012605Y014475D01*
X012636Y014521D01*
X012671Y014566D01*
X012708Y014608D01*
X012749Y014647D01*
X012792Y014683D01*
X012838Y014716D01*
X012885Y014746D01*
X012935Y014772D01*
X012987Y014795D01*
X013040Y014815D01*
X013094Y014830D01*
X013149Y014842D01*
X013205Y014850D01*
X013261Y014854D01*
X013317Y014854D01*
X013373Y014850D01*
X013429Y014842D01*
X013484Y014830D01*
X013538Y014815D01*
X013591Y014795D01*
X013643Y014772D01*
X013692Y014746D01*
X013740Y014716D01*
X013786Y014683D01*
X013829Y014647D01*
X013870Y014608D01*
X013907Y014566D01*
X013942Y014521D01*
X013973Y014475D01*
X014002Y014426D01*
X014026Y014375D01*
X014047Y014323D01*
X014065Y014269D01*
X014078Y014215D01*
X014088Y014159D01*
X014094Y014103D01*
X014096Y014047D01*
X014094Y013991D01*
X014088Y013935D01*
X014078Y013879D01*
X014065Y013825D01*
X014047Y013771D01*
X014026Y013719D01*
X014002Y013668D01*
X013973Y013619D01*
X013942Y013573D01*
X013907Y013528D01*
X013870Y013486D01*
X013829Y013447D01*
X013786Y013411D01*
X013740Y013378D01*
X013693Y013348D01*
X013643Y013322D01*
X013591Y013299D01*
X013538Y013279D01*
X013484Y013264D01*
X013429Y013252D01*
X013373Y013244D01*
X013317Y013240D01*
X013261Y013240D01*
X013205Y013244D01*
X013149Y013252D01*
X013094Y013264D01*
X013040Y013279D01*
X012987Y013299D01*
X012935Y013322D01*
X012885Y013348D01*
X012838Y013378D01*
X012792Y013411D01*
X012749Y013447D01*
X012708Y013486D01*
X012671Y013528D01*
X012636Y013573D01*
X012605Y013619D01*
X012576Y013668D01*
X012552Y013719D01*
X012531Y013771D01*
X012513Y013825D01*
X012500Y013879D01*
X012490Y013935D01*
X012484Y013991D01*
X012482Y014047D01*
D11*
X006673Y006386D03*
X006673Y005646D03*
X005653Y005646D03*
X005653Y006016D03*
X005653Y006386D03*
D12*
X007980Y006357D03*
X007980Y006107D03*
X007980Y005847D03*
X007980Y005597D03*
X009700Y005597D03*
X009700Y005847D03*
X009700Y006107D03*
X009700Y006357D03*
D13*
X014712Y005488D03*
X015452Y005488D03*
X015082Y006308D03*
D14*
X016119Y006243D03*
X016119Y005653D03*
X015398Y004895D03*
X014807Y004895D03*
X009157Y008071D03*
X008567Y008071D03*
D15*
X008605Y007169D03*
X009176Y007169D03*
X011317Y006341D03*
X011317Y005770D03*
X012298Y005770D03*
X012298Y006341D03*
D16*
X014313Y002967D03*
D17*
X013313Y002967D03*
X012313Y002967D03*
X011313Y002967D03*
X010313Y002967D03*
X009313Y002967D03*
X008313Y002967D03*
X007313Y002967D03*
X006313Y002967D03*
X005313Y002967D03*
D18*
X005305Y003968D03*
X006305Y003968D03*
X007305Y003968D03*
X008305Y003968D03*
X009305Y003968D03*
X010305Y003968D03*
X011305Y003968D03*
X012305Y003968D03*
X013305Y003968D03*
X014305Y003968D03*
D19*
X013305Y003968D02*
X013305Y002975D01*
X013313Y002967D01*
X013339Y002490D01*
X013339Y002149D01*
X013189Y001999D01*
X011989Y001999D01*
X011789Y002199D01*
X011589Y001999D01*
X010989Y001999D01*
X010789Y002199D01*
X010789Y004511D01*
X010799Y004511D01*
X010799Y005218D01*
X010661Y005356D01*
X009372Y005356D01*
X009194Y005533D01*
X009194Y006206D01*
X009189Y006211D01*
X009335Y006357D01*
X009700Y006357D01*
X009700Y006400D01*
X009689Y006411D01*
X009689Y007011D01*
X009539Y007161D01*
X009184Y007161D01*
X009176Y007169D01*
X008605Y007169D02*
X008605Y008033D01*
X008567Y008071D01*
X007339Y006761D02*
X007439Y006661D01*
X007439Y006211D01*
X007539Y006111D01*
X007976Y006111D01*
X007980Y006107D01*
X007984Y006111D01*
X008339Y006111D01*
X008439Y006011D01*
X008439Y005261D01*
X008313Y005134D01*
X008313Y002967D01*
X008305Y003968D01*
X008739Y003833D02*
X008830Y003742D01*
X008830Y002659D01*
X008839Y002649D01*
X008639Y002449D01*
X006939Y002449D01*
X006789Y002599D01*
X006789Y004205D01*
X006673Y004321D01*
X006673Y005646D01*
X006239Y005661D02*
X006239Y005861D01*
X006339Y005961D01*
X007036Y005961D01*
X007313Y005684D01*
X007489Y005861D01*
X007966Y005861D01*
X007980Y005847D01*
X007980Y006357D02*
X007984Y006361D01*
X008489Y006361D01*
X008739Y006111D01*
X008739Y005130D01*
X010179Y005130D01*
X010297Y005012D01*
X010297Y003976D01*
X010305Y003968D01*
X010305Y002975D01*
X010313Y002967D01*
X010313Y001915D01*
X010478Y001749D01*
X015239Y001749D01*
X015452Y001962D01*
X015452Y004911D01*
X015436Y004895D01*
X015398Y004895D01*
X015452Y004911D02*
X015452Y005488D01*
X016119Y006243D02*
X016137Y006261D01*
X015135Y006361D02*
X015082Y006308D01*
X012739Y005911D02*
X012589Y005761D01*
X012307Y005761D01*
X012098Y005552D01*
X012098Y004943D01*
X012305Y004736D01*
X012305Y003968D01*
X012313Y003960D01*
X012313Y002967D01*
X011789Y002199D02*
X011789Y006311D01*
X012268Y006311D01*
X012298Y006341D01*
X011789Y006311D02*
X011347Y006311D01*
X011317Y006341D01*
X010639Y006161D02*
X010639Y006711D01*
X010739Y006811D01*
X012639Y006811D01*
X012739Y006711D01*
X012739Y005911D01*
X012307Y005761D02*
X012298Y005770D01*
X011567Y005503D02*
X011567Y005031D01*
X011305Y004770D01*
X011305Y003968D01*
X011313Y003960D01*
X011313Y002967D01*
X009313Y002967D02*
X009313Y001726D01*
X009589Y001449D01*
X017839Y001449D01*
X018289Y001899D01*
X018289Y007499D01*
X018489Y007699D01*
X011567Y005503D02*
X011308Y005761D01*
X011317Y005770D01*
X011308Y005761D02*
X010839Y005761D01*
X010754Y005847D01*
X009700Y005847D01*
X009700Y006107D02*
X010585Y006107D01*
X010639Y006161D01*
X008739Y005130D02*
X008739Y003833D01*
X009305Y003968D02*
X009313Y002967D01*
X007313Y002967D02*
X007305Y003968D01*
X006305Y003968D02*
X006305Y002975D01*
X006313Y002967D01*
X007313Y002967D02*
X007313Y005684D01*
X006239Y005661D02*
X006224Y005646D01*
X005653Y005646D01*
X005653Y006386D02*
X006014Y006386D01*
X006139Y006511D01*
X006139Y006661D01*
X006239Y006761D01*
X007339Y006761D01*
D20*
X017889Y008349D03*
X018489Y007699D03*
D21*
X018251Y007685D02*
X018131Y007565D01*
X018131Y001965D01*
X017774Y001608D01*
X015322Y001608D01*
X015398Y001684D01*
X015610Y001896D01*
X015610Y004652D01*
X015654Y004696D01*
X015654Y005094D01*
X015610Y005138D01*
X015610Y005146D01*
X015661Y005197D01*
X015661Y005779D01*
X015603Y005837D01*
X015301Y005837D01*
X015243Y005779D01*
X015243Y005197D01*
X015287Y005152D01*
X015199Y005152D01*
X015141Y005094D01*
X015141Y004696D01*
X015199Y004638D01*
X015293Y004638D01*
X015293Y002028D01*
X015174Y001908D01*
X013322Y001908D01*
X013348Y001934D01*
X013405Y001991D01*
X013498Y002084D01*
X013498Y002397D01*
X013517Y002417D01*
X013517Y002620D01*
X013539Y002629D01*
X013651Y002741D01*
X013712Y002888D01*
X013712Y003047D01*
X013651Y003193D01*
X013601Y003244D01*
X013601Y005010D01*
X013543Y005068D01*
X013517Y005068D01*
X013517Y005687D01*
X013960Y006130D01*
X014873Y006130D01*
X014873Y006017D01*
X014931Y005959D01*
X015233Y005959D01*
X015291Y006017D01*
X015291Y006183D01*
X015366Y006183D01*
X015483Y006065D01*
X015862Y006065D01*
X015862Y006045D01*
X015920Y005986D01*
X016318Y005986D01*
X016376Y006045D01*
X016376Y006084D01*
X017123Y006084D01*
X017227Y006188D01*
X017667Y006628D01*
X017667Y007876D01*
X017903Y008111D01*
X017988Y008111D01*
X018127Y008251D01*
X018127Y008448D01*
X017988Y008588D01*
X017791Y008588D01*
X017651Y008448D01*
X017651Y008363D01*
X017311Y008023D01*
X017311Y006776D01*
X016975Y006440D01*
X016376Y006440D01*
X016376Y006442D01*
X016318Y006500D01*
X015920Y006500D01*
X015862Y006442D01*
X015862Y006421D01*
X015631Y006421D01*
X015513Y006539D01*
X015291Y006539D01*
X015291Y006599D01*
X015233Y006657D01*
X014931Y006657D01*
X014873Y006599D01*
X014873Y006486D01*
X013813Y006486D01*
X013708Y006382D01*
X013708Y006382D01*
X013266Y005939D01*
X013266Y005939D01*
X013161Y005835D01*
X013161Y005068D01*
X013067Y005068D01*
X013009Y005010D01*
X013009Y003228D01*
X012974Y003193D01*
X012913Y003047D01*
X012913Y002888D01*
X012974Y002741D01*
X013086Y002629D01*
X013161Y002598D01*
X013161Y002417D01*
X013181Y002397D01*
X013181Y002215D01*
X013124Y002158D01*
X012055Y002158D01*
X011948Y002265D01*
X011948Y002804D01*
X011974Y002741D01*
X012086Y002629D01*
X012233Y002568D01*
X012392Y002568D01*
X012539Y002629D01*
X012651Y002741D01*
X012712Y002888D01*
X012712Y003047D01*
X012651Y003193D01*
X012601Y003244D01*
X012601Y005010D01*
X012543Y005068D01*
X012256Y005068D01*
X012256Y005484D01*
X012526Y005484D01*
X012584Y005542D01*
X012584Y005602D01*
X012655Y005602D01*
X012748Y005695D01*
X012898Y005845D01*
X012898Y006776D01*
X012805Y006869D01*
X012798Y006876D01*
X012705Y006969D01*
X010674Y006969D01*
X010581Y006876D01*
X010481Y006776D01*
X010481Y006265D01*
X010080Y006265D01*
X010080Y006483D01*
X010021Y006541D01*
X009848Y006541D01*
X009848Y007076D01*
X009698Y007226D01*
X009605Y007319D01*
X009462Y007319D01*
X009462Y007397D01*
X009404Y007456D01*
X008948Y007456D01*
X008891Y007398D01*
X008833Y007456D01*
X008764Y007456D01*
X008764Y007815D01*
X008765Y007815D01*
X008823Y007873D01*
X008823Y008270D01*
X008765Y008328D01*
X008368Y008328D01*
X008310Y008270D01*
X008310Y007873D01*
X008368Y007815D01*
X008447Y007815D01*
X008447Y007456D01*
X008377Y007456D01*
X008319Y007397D01*
X008319Y006941D01*
X008377Y006883D01*
X008833Y006883D01*
X008891Y006940D01*
X008948Y006883D01*
X009404Y006883D01*
X009462Y006941D01*
X009462Y007002D01*
X009474Y007002D01*
X009531Y006945D01*
X009531Y006541D01*
X009379Y006541D01*
X009353Y006515D01*
X009269Y006515D01*
X009124Y006369D01*
X009124Y006369D01*
X009031Y006276D01*
X009031Y006145D01*
X009036Y006140D01*
X009036Y005468D01*
X009129Y005375D01*
X009216Y005288D01*
X008898Y005288D01*
X008898Y006176D01*
X008648Y006426D01*
X008555Y006519D01*
X008323Y006519D01*
X008301Y006541D01*
X007659Y006541D01*
X007601Y006483D01*
X007598Y006483D01*
X007601Y006483D02*
X007601Y006273D01*
X007598Y006276D01*
X007598Y006726D01*
X007505Y006819D01*
X007405Y006919D01*
X006174Y006919D01*
X006081Y006826D01*
X005981Y006726D01*
X005981Y006576D01*
X005972Y006568D01*
X005944Y006595D01*
X005362Y006595D01*
X005304Y006537D01*
X005304Y006235D01*
X005309Y006229D01*
X005291Y006212D01*
X005273Y006180D01*
X005264Y006144D01*
X005264Y006032D01*
X005637Y006032D01*
X005637Y006000D01*
X005264Y006000D01*
X005264Y005888D01*
X005273Y005852D01*
X005291Y005820D01*
X005309Y005803D01*
X005304Y005797D01*
X005304Y005495D01*
X005362Y005437D01*
X005944Y005437D01*
X005995Y005488D01*
X006290Y005488D01*
X006305Y005502D01*
X006324Y005521D01*
X006324Y005495D01*
X006382Y005437D01*
X006515Y005437D01*
X006515Y005068D01*
X006067Y005068D01*
X006009Y005010D01*
X006009Y003228D01*
X005974Y003193D01*
X005913Y003047D01*
X005913Y002888D01*
X005974Y002741D01*
X006086Y002629D01*
X006233Y002568D01*
X006392Y002568D01*
X006539Y002629D01*
X006631Y002721D01*
X006631Y002534D01*
X006781Y002384D01*
X006874Y002291D01*
X008705Y002291D01*
X008905Y002491D01*
X008998Y002584D01*
X008998Y002715D01*
X008989Y002724D01*
X008989Y002726D01*
X009086Y002629D01*
X009154Y002601D01*
X009154Y001661D01*
X009247Y001568D01*
X009431Y001384D01*
X009524Y001291D01*
X017905Y001291D01*
X018355Y001741D01*
X018448Y001834D01*
X018448Y007434D01*
X018475Y007461D01*
X018588Y007461D01*
X018727Y007601D01*
X018727Y007798D01*
X018588Y007938D01*
X018391Y007938D01*
X018251Y007798D01*
X018251Y007685D01*
X018251Y007719D02*
X017667Y007719D01*
X017667Y007642D02*
X018208Y007642D01*
X018131Y007565D02*
X017667Y007565D01*
X017667Y007487D02*
X018131Y007487D01*
X018131Y007410D02*
X017667Y007410D01*
X017667Y007333D02*
X018131Y007333D01*
X018131Y007256D02*
X017667Y007256D01*
X017667Y007178D02*
X018131Y007178D01*
X018131Y007101D02*
X017667Y007101D01*
X017667Y007024D02*
X018131Y007024D01*
X018131Y006947D02*
X017667Y006947D01*
X017667Y006869D02*
X018131Y006869D01*
X018131Y006792D02*
X017667Y006792D01*
X017667Y006715D02*
X018131Y006715D01*
X018131Y006638D02*
X017667Y006638D01*
X017599Y006560D02*
X018131Y006560D01*
X018131Y006483D02*
X017522Y006483D01*
X017445Y006406D02*
X018131Y006406D01*
X018131Y006329D02*
X017368Y006329D01*
X017290Y006251D02*
X018131Y006251D01*
X018131Y006174D02*
X017213Y006174D01*
X017136Y006097D02*
X018131Y006097D01*
X018131Y006020D02*
X016351Y006020D01*
X016330Y005940D02*
X016295Y005949D01*
X016158Y005949D01*
X016158Y005692D01*
X016080Y005692D01*
X016080Y005949D01*
X015943Y005949D01*
X015908Y005940D01*
X015876Y005922D01*
X015850Y005896D01*
X015832Y005864D01*
X015822Y005828D01*
X015822Y005692D01*
X016080Y005692D01*
X016080Y005613D01*
X016158Y005613D01*
X016158Y005356D01*
X016295Y005356D01*
X016330Y005365D01*
X016362Y005384D01*
X016388Y005410D01*
X016406Y005441D01*
X016416Y005477D01*
X016416Y005613D01*
X016158Y005613D01*
X016158Y005692D01*
X016416Y005692D01*
X016416Y005828D01*
X016406Y005864D01*
X016388Y005896D01*
X016362Y005922D01*
X016330Y005940D01*
X016321Y005942D02*
X018131Y005942D01*
X018131Y005865D02*
X016405Y005865D01*
X016416Y005788D02*
X018131Y005788D01*
X018131Y005711D02*
X016416Y005711D01*
X016416Y005556D02*
X018131Y005556D01*
X018131Y005479D02*
X016416Y005479D01*
X016380Y005402D02*
X018131Y005402D01*
X018131Y005325D02*
X015661Y005325D01*
X015661Y005402D02*
X015858Y005402D01*
X015850Y005410D02*
X015876Y005384D01*
X015908Y005365D01*
X015943Y005356D01*
X016080Y005356D01*
X016080Y005613D01*
X015822Y005613D01*
X015822Y005477D01*
X015832Y005441D01*
X015850Y005410D01*
X015822Y005479D02*
X015661Y005479D01*
X015661Y005556D02*
X015822Y005556D01*
X015822Y005711D02*
X015661Y005711D01*
X015661Y005634D02*
X016080Y005634D01*
X016080Y005711D02*
X016158Y005711D01*
X016158Y005788D02*
X016080Y005788D01*
X016080Y005865D02*
X016158Y005865D01*
X016158Y005942D02*
X016080Y005942D01*
X015917Y005942D02*
X013773Y005942D01*
X013696Y005865D02*
X014544Y005865D01*
X014548Y005868D02*
X014516Y005849D01*
X014490Y005823D01*
X014472Y005792D01*
X014463Y005756D01*
X014463Y005504D01*
X014696Y005504D01*
X014696Y005877D01*
X014584Y005877D01*
X014548Y005868D01*
X014471Y005788D02*
X013618Y005788D01*
X013541Y005711D02*
X014463Y005711D01*
X014463Y005634D02*
X013517Y005634D01*
X013517Y005556D02*
X014463Y005556D01*
X014463Y005472D02*
X014463Y005220D01*
X014472Y005184D01*
X014490Y005152D01*
X014516Y005126D01*
X014528Y005120D01*
X014520Y005108D01*
X014344Y005108D01*
X014344Y004008D01*
X014265Y004008D01*
X014265Y005108D01*
X014090Y005108D01*
X014054Y005098D01*
X014022Y005080D01*
X013996Y005054D01*
X013978Y005022D01*
X013969Y004987D01*
X013969Y004008D01*
X014265Y004008D01*
X014265Y003929D01*
X013969Y003929D01*
X013969Y003400D01*
X013959Y003397D01*
X013927Y003379D01*
X013901Y003353D01*
X013883Y003321D01*
X013873Y003286D01*
X013873Y003007D01*
X013712Y003007D01*
X013712Y002930D02*
X013974Y002930D01*
X013974Y002928D02*
X013873Y002928D01*
X013873Y002649D01*
X013883Y002613D01*
X013901Y002582D01*
X013927Y002556D01*
X013959Y002537D01*
X013994Y002528D01*
X014273Y002528D01*
X014273Y002928D01*
X014344Y002928D01*
X014344Y002829D01*
X014352Y002829D01*
X014352Y002528D01*
X014631Y002528D01*
X014666Y002537D01*
X014698Y002556D01*
X014724Y002582D01*
X014742Y002613D01*
X014752Y002649D01*
X014752Y002928D01*
X014635Y002928D01*
X014641Y002950D01*
X014641Y003007D01*
X014752Y003007D01*
X015293Y003007D01*
X015293Y002930D02*
X014636Y002930D01*
X014752Y003007D02*
X014752Y003286D01*
X014742Y003321D01*
X014724Y003353D01*
X014698Y003379D01*
X014666Y003397D01*
X014641Y003404D01*
X014641Y003929D01*
X014344Y003929D01*
X014344Y003007D01*
X014273Y003007D01*
X014273Y003407D01*
X014265Y003407D01*
X014265Y003929D01*
X014344Y003929D01*
X014344Y004008D01*
X014641Y004008D01*
X014641Y004598D01*
X014768Y004598D01*
X014768Y004856D01*
X014846Y004856D01*
X014846Y004598D01*
X014983Y004598D01*
X015018Y004608D01*
X015050Y004626D01*
X015076Y004652D01*
X015094Y004684D01*
X015104Y004719D01*
X015104Y004856D01*
X014846Y004856D01*
X014846Y004934D01*
X015104Y004934D01*
X015104Y005071D01*
X015094Y005106D01*
X015076Y005138D01*
X015050Y005164D01*
X015018Y005182D01*
X014983Y005192D01*
X014954Y005192D01*
X014961Y005220D01*
X014961Y005472D01*
X014728Y005472D01*
X014728Y005504D01*
X014696Y005504D01*
X014696Y005472D01*
X014463Y005472D01*
X014463Y005402D02*
X013517Y005402D01*
X013517Y005479D02*
X014696Y005479D01*
X014728Y005479D02*
X015243Y005479D01*
X015243Y005402D02*
X014961Y005402D01*
X014961Y005325D02*
X015243Y005325D01*
X015243Y005247D02*
X014961Y005247D01*
X015040Y005170D02*
X015269Y005170D01*
X015141Y005093D02*
X015098Y005093D01*
X015104Y005016D02*
X015141Y005016D01*
X015141Y004938D02*
X015104Y004938D01*
X015141Y004861D02*
X014846Y004861D01*
X014846Y004784D02*
X014768Y004784D01*
X014768Y004707D02*
X014846Y004707D01*
X014846Y004629D02*
X014768Y004629D01*
X014641Y004552D02*
X015293Y004552D01*
X015293Y004475D02*
X014641Y004475D01*
X014641Y004398D02*
X015293Y004398D01*
X015293Y004320D02*
X014641Y004320D01*
X014641Y004243D02*
X015293Y004243D01*
X015293Y004166D02*
X014641Y004166D01*
X014641Y004089D02*
X015293Y004089D01*
X015293Y004011D02*
X014641Y004011D01*
X014641Y003857D02*
X015293Y003857D01*
X015293Y003934D02*
X014344Y003934D01*
X014344Y003857D02*
X014265Y003857D01*
X014265Y003934D02*
X013601Y003934D01*
X013601Y003857D02*
X013969Y003857D01*
X013969Y003780D02*
X013601Y003780D01*
X013601Y003703D02*
X013969Y003703D01*
X013969Y003625D02*
X013601Y003625D01*
X013601Y003548D02*
X013969Y003548D01*
X013969Y003471D02*
X013601Y003471D01*
X013601Y003394D02*
X013953Y003394D01*
X013881Y003316D02*
X013601Y003316D01*
X013605Y003239D02*
X013873Y003239D01*
X013873Y003162D02*
X013664Y003162D01*
X013696Y003085D02*
X013873Y003085D01*
X013873Y003007D02*
X013969Y003007D01*
X013969Y002950D01*
X013974Y002928D01*
X013873Y002853D02*
X013698Y002853D01*
X013666Y002776D02*
X013873Y002776D01*
X013873Y002698D02*
X013609Y002698D01*
X013521Y002621D02*
X013881Y002621D01*
X013947Y002544D02*
X013517Y002544D01*
X013517Y002467D02*
X015293Y002467D01*
X015293Y002544D02*
X014678Y002544D01*
X014745Y002621D02*
X015293Y002621D01*
X015293Y002698D02*
X014752Y002698D01*
X014752Y002776D02*
X015293Y002776D01*
X015293Y002853D02*
X014752Y002853D01*
X014752Y003085D02*
X015293Y003085D01*
X015293Y003162D02*
X014752Y003162D01*
X014752Y003239D02*
X015293Y003239D01*
X015293Y003316D02*
X014744Y003316D01*
X014672Y003394D02*
X015293Y003394D01*
X015293Y003471D02*
X014641Y003471D01*
X014641Y003548D02*
X015293Y003548D01*
X015293Y003625D02*
X014641Y003625D01*
X014641Y003703D02*
X015293Y003703D01*
X015293Y003780D02*
X014641Y003780D01*
X014344Y003780D02*
X014265Y003780D01*
X014265Y003703D02*
X014344Y003703D01*
X014344Y003625D02*
X014265Y003625D01*
X014265Y003548D02*
X014344Y003548D01*
X014344Y003471D02*
X014265Y003471D01*
X014273Y003394D02*
X014344Y003394D01*
X014344Y003316D02*
X014273Y003316D01*
X014273Y003239D02*
X014344Y003239D01*
X014344Y003162D02*
X014273Y003162D01*
X014273Y003085D02*
X014344Y003085D01*
X014344Y003007D02*
X014273Y003007D01*
X014273Y002853D02*
X014344Y002853D01*
X014352Y002776D02*
X014273Y002776D01*
X014273Y002698D02*
X014352Y002698D01*
X014352Y002621D02*
X014273Y002621D01*
X014273Y002544D02*
X014352Y002544D01*
X013498Y002389D02*
X015293Y002389D01*
X015293Y002312D02*
X013498Y002312D01*
X013498Y002235D02*
X015293Y002235D01*
X015293Y002158D02*
X013498Y002158D01*
X013494Y002080D02*
X015293Y002080D01*
X015269Y002003D02*
X013417Y002003D01*
X013405Y001991D02*
X013405Y001991D01*
X013340Y001926D02*
X015192Y001926D01*
X015485Y001771D02*
X017937Y001771D01*
X017860Y001694D02*
X015408Y001694D01*
X015331Y001617D02*
X017783Y001617D01*
X018015Y001849D02*
X015563Y001849D01*
X015610Y001926D02*
X018092Y001926D01*
X018131Y002003D02*
X015610Y002003D01*
X015610Y002080D02*
X018131Y002080D01*
X018131Y002158D02*
X015610Y002158D01*
X015610Y002235D02*
X018131Y002235D01*
X018131Y002312D02*
X015610Y002312D01*
X015610Y002389D02*
X018131Y002389D01*
X018131Y002467D02*
X015610Y002467D01*
X015610Y002544D02*
X018131Y002544D01*
X018131Y002621D02*
X015610Y002621D01*
X015610Y002698D02*
X018131Y002698D01*
X018131Y002776D02*
X015610Y002776D01*
X015610Y002853D02*
X018131Y002853D01*
X018131Y002930D02*
X015610Y002930D01*
X015610Y003007D02*
X018131Y003007D01*
X018131Y003085D02*
X015610Y003085D01*
X015610Y003162D02*
X018131Y003162D01*
X018131Y003239D02*
X015610Y003239D01*
X015610Y003316D02*
X018131Y003316D01*
X018131Y003394D02*
X015610Y003394D01*
X015610Y003471D02*
X018131Y003471D01*
X018131Y003548D02*
X015610Y003548D01*
X015610Y003625D02*
X018131Y003625D01*
X018131Y003703D02*
X015610Y003703D01*
X015610Y003780D02*
X018131Y003780D01*
X018131Y003857D02*
X015610Y003857D01*
X015610Y003934D02*
X018131Y003934D01*
X018131Y004011D02*
X015610Y004011D01*
X015610Y004089D02*
X018131Y004089D01*
X018131Y004166D02*
X015610Y004166D01*
X015610Y004243D02*
X018131Y004243D01*
X018131Y004320D02*
X015610Y004320D01*
X015610Y004398D02*
X018131Y004398D01*
X018131Y004475D02*
X015610Y004475D01*
X015610Y004552D02*
X018131Y004552D01*
X018131Y004629D02*
X015610Y004629D01*
X015654Y004707D02*
X018131Y004707D01*
X018131Y004784D02*
X015654Y004784D01*
X015654Y004861D02*
X018131Y004861D01*
X018131Y004938D02*
X015654Y004938D01*
X015654Y005016D02*
X018131Y005016D01*
X018131Y005093D02*
X015654Y005093D01*
X015635Y005170D02*
X018131Y005170D01*
X018131Y005247D02*
X015661Y005247D01*
X016080Y005402D02*
X016158Y005402D01*
X016158Y005479D02*
X016080Y005479D01*
X016080Y005556D02*
X016158Y005556D01*
X016158Y005634D02*
X018131Y005634D01*
X018448Y005634D02*
X018898Y005634D01*
X018898Y005711D02*
X018448Y005711D01*
X018448Y005788D02*
X018898Y005788D01*
X018898Y005865D02*
X018448Y005865D01*
X018448Y005942D02*
X018898Y005942D01*
X018898Y006020D02*
X018448Y006020D01*
X018448Y006097D02*
X018898Y006097D01*
X018898Y006174D02*
X018448Y006174D01*
X018448Y006251D02*
X018898Y006251D01*
X018898Y006329D02*
X018448Y006329D01*
X018448Y006406D02*
X018898Y006406D01*
X018898Y006483D02*
X018448Y006483D01*
X018448Y006560D02*
X018898Y006560D01*
X018898Y006638D02*
X018448Y006638D01*
X018448Y006715D02*
X018898Y006715D01*
X018898Y006792D02*
X018448Y006792D01*
X018448Y006869D02*
X018898Y006869D01*
X018898Y006947D02*
X018448Y006947D01*
X018448Y007024D02*
X018898Y007024D01*
X018898Y007101D02*
X018448Y007101D01*
X018448Y007178D02*
X018898Y007178D01*
X018898Y007256D02*
X018448Y007256D01*
X018448Y007333D02*
X018898Y007333D01*
X018898Y007410D02*
X018448Y007410D01*
X018614Y007487D02*
X018898Y007487D01*
X018898Y007565D02*
X018691Y007565D01*
X018727Y007642D02*
X018898Y007642D01*
X018898Y007719D02*
X018727Y007719D01*
X018727Y007796D02*
X018898Y007796D01*
X018898Y007873D02*
X018652Y007873D01*
X018898Y007951D02*
X017743Y007951D01*
X017667Y007873D02*
X018327Y007873D01*
X018251Y007796D02*
X017667Y007796D01*
X017311Y007796D02*
X009389Y007796D01*
X009400Y007802D02*
X009368Y007784D01*
X009333Y007775D01*
X009196Y007775D01*
X009196Y008032D01*
X009118Y008032D01*
X009118Y007775D01*
X008981Y007775D01*
X008946Y007784D01*
X008914Y007802D01*
X008888Y007828D01*
X008870Y007860D01*
X008860Y007896D01*
X008860Y008032D01*
X009118Y008032D01*
X009118Y008111D01*
X009118Y008368D01*
X008981Y008368D01*
X008946Y008359D01*
X008914Y008340D01*
X008888Y008315D01*
X008870Y008283D01*
X008860Y008247D01*
X008860Y008111D01*
X009118Y008111D01*
X009196Y008111D01*
X009196Y008368D01*
X009333Y008368D01*
X009368Y008359D01*
X009400Y008340D01*
X009426Y008315D01*
X009444Y008283D01*
X009454Y008247D01*
X009454Y008111D01*
X009196Y008111D01*
X009196Y008032D01*
X009454Y008032D01*
X009454Y007896D01*
X009444Y007860D01*
X009426Y007828D01*
X009400Y007802D01*
X009448Y007873D02*
X017311Y007873D01*
X017311Y007951D02*
X009454Y007951D01*
X009454Y008028D02*
X017316Y008028D01*
X017393Y008105D02*
X009196Y008105D01*
X009196Y008028D02*
X009118Y008028D01*
X009118Y008105D02*
X008823Y008105D01*
X008823Y008028D02*
X008860Y008028D01*
X008860Y007951D02*
X008823Y007951D01*
X008823Y007873D02*
X008866Y007873D01*
X008925Y007796D02*
X008764Y007796D01*
X008764Y007719D02*
X017311Y007719D01*
X017311Y007642D02*
X008764Y007642D01*
X008764Y007565D02*
X017311Y007565D01*
X017311Y007487D02*
X008764Y007487D01*
X008879Y007410D02*
X008902Y007410D01*
X008447Y007487D02*
X000279Y007487D01*
X000279Y007410D02*
X008331Y007410D01*
X008319Y007333D02*
X000279Y007333D01*
X000279Y007256D02*
X008319Y007256D01*
X008319Y007178D02*
X000279Y007178D01*
X000279Y007101D02*
X008319Y007101D01*
X008319Y007024D02*
X000279Y007024D01*
X000279Y006947D02*
X008319Y006947D01*
X008591Y006483D02*
X009238Y006483D01*
X009160Y006406D02*
X008668Y006406D01*
X008746Y006329D02*
X009083Y006329D01*
X009031Y006251D02*
X008823Y006251D01*
X008898Y006174D02*
X009031Y006174D01*
X009036Y006097D02*
X008898Y006097D01*
X008898Y006020D02*
X009036Y006020D01*
X009036Y005942D02*
X008898Y005942D01*
X008898Y005865D02*
X009036Y005865D01*
X009036Y005788D02*
X008898Y005788D01*
X008898Y005711D02*
X009036Y005711D01*
X009036Y005634D02*
X008898Y005634D01*
X008898Y005556D02*
X009036Y005556D01*
X009036Y005479D02*
X008898Y005479D01*
X008898Y005402D02*
X009102Y005402D01*
X009179Y005325D02*
X008898Y005325D01*
X008281Y005326D02*
X008154Y005200D01*
X008154Y005068D01*
X008067Y005068D01*
X008009Y005010D01*
X008009Y003228D01*
X007974Y003193D01*
X007913Y003047D01*
X007913Y002888D01*
X007974Y002741D01*
X008086Y002629D01*
X008136Y002608D01*
X007489Y002608D01*
X007539Y002629D01*
X007651Y002741D01*
X007712Y002888D01*
X007712Y003047D01*
X007651Y003193D01*
X007601Y003244D01*
X007601Y005010D01*
X007543Y005068D01*
X007471Y005068D01*
X007471Y005618D01*
X007555Y005702D01*
X007561Y005702D01*
X007561Y005700D01*
X007561Y005600D01*
X007977Y005600D01*
X007977Y005593D01*
X007983Y005593D01*
X007983Y005372D01*
X008279Y005372D01*
X008281Y005373D01*
X008281Y005326D01*
X008279Y005325D02*
X007471Y005325D01*
X007471Y005402D02*
X007613Y005402D01*
X007615Y005400D02*
X007646Y005382D01*
X007682Y005372D01*
X007977Y005372D01*
X007977Y005593D01*
X007561Y005593D01*
X007561Y005493D01*
X007570Y005458D01*
X007589Y005426D01*
X007615Y005400D01*
X007565Y005479D02*
X007471Y005479D01*
X007471Y005556D02*
X007561Y005556D01*
X007561Y005634D02*
X007486Y005634D01*
X007313Y005908D02*
X007101Y006119D01*
X006274Y006119D01*
X006181Y006026D01*
X006081Y005926D01*
X006081Y005804D01*
X005999Y005804D01*
X006015Y005820D01*
X006033Y005852D01*
X006042Y005888D01*
X006042Y006000D01*
X005669Y006000D01*
X005669Y006032D01*
X006042Y006032D01*
X006042Y006144D01*
X006033Y006180D01*
X006015Y006212D01*
X005999Y006228D01*
X006080Y006228D01*
X006205Y006352D01*
X006284Y006431D01*
X006284Y006402D01*
X006657Y006402D01*
X006657Y006370D01*
X006689Y006370D01*
X006689Y006402D01*
X007062Y006402D01*
X007062Y006514D01*
X007053Y006550D01*
X007035Y006582D01*
X007014Y006602D01*
X007274Y006602D01*
X007281Y006595D01*
X007281Y006145D01*
X007381Y006045D01*
X007415Y006011D01*
X007331Y005926D01*
X007313Y005908D01*
X007331Y005926D02*
X007331Y005926D01*
X007347Y005942D02*
X007278Y005942D01*
X007201Y006020D02*
X007406Y006020D01*
X007329Y006097D02*
X007124Y006097D01*
X007035Y006190D02*
X007053Y006222D01*
X007062Y006258D01*
X007062Y006370D01*
X006689Y006370D01*
X006689Y006137D01*
X006941Y006137D01*
X006977Y006146D01*
X007009Y006164D01*
X007035Y006190D01*
X007018Y006174D02*
X007281Y006174D01*
X007281Y006251D02*
X007061Y006251D01*
X007062Y006329D02*
X007281Y006329D01*
X007281Y006406D02*
X007062Y006406D01*
X007062Y006483D02*
X007281Y006483D01*
X007281Y006560D02*
X007047Y006560D01*
X006689Y006329D02*
X006657Y006329D01*
X006657Y006370D02*
X006657Y006137D01*
X006405Y006137D01*
X006369Y006146D01*
X006337Y006164D01*
X006311Y006190D01*
X006293Y006222D01*
X006284Y006258D01*
X006284Y006370D01*
X006657Y006370D01*
X006657Y006251D02*
X006689Y006251D01*
X006689Y006174D02*
X006657Y006174D01*
X006328Y006174D02*
X006034Y006174D01*
X006042Y006097D02*
X006251Y006097D01*
X006174Y006020D02*
X005669Y006020D01*
X005637Y006020D02*
X000279Y006020D01*
X000279Y006097D02*
X005264Y006097D01*
X005272Y006174D02*
X000279Y006174D01*
X000279Y006251D02*
X005304Y006251D01*
X005304Y006329D02*
X000279Y006329D01*
X000279Y006406D02*
X005304Y006406D01*
X005304Y006483D02*
X000279Y006483D01*
X000279Y006560D02*
X005327Y006560D01*
X005981Y006638D02*
X000279Y006638D01*
X000279Y006715D02*
X005981Y006715D01*
X006047Y006792D02*
X000279Y006792D01*
X000279Y006869D02*
X006124Y006869D01*
X006258Y006406D02*
X006284Y006406D01*
X006284Y006329D02*
X006181Y006329D01*
X006104Y006251D02*
X006285Y006251D01*
X006097Y005942D02*
X006042Y005942D01*
X006036Y005865D02*
X006081Y005865D01*
X005987Y005479D02*
X006339Y005479D01*
X006515Y005402D02*
X000279Y005402D01*
X000279Y005479D02*
X005319Y005479D01*
X005304Y005556D02*
X000279Y005556D01*
X000279Y005634D02*
X005304Y005634D01*
X005304Y005711D02*
X000279Y005711D01*
X000279Y005788D02*
X005304Y005788D01*
X005270Y005865D02*
X000279Y005865D01*
X000279Y005942D02*
X005264Y005942D01*
X005265Y005108D02*
X005090Y005108D01*
X005054Y005098D01*
X005022Y005080D01*
X004996Y005054D01*
X004978Y005022D01*
X004969Y004987D01*
X004969Y004008D01*
X005265Y004008D01*
X005265Y003929D01*
X004969Y003929D01*
X004969Y003241D01*
X004937Y003197D01*
X004905Y003136D01*
X004884Y003070D01*
X004874Y003007D01*
X000279Y003007D01*
X000279Y002930D02*
X004974Y002930D01*
X004974Y002928D02*
X004874Y002928D01*
X004884Y002864D01*
X004905Y002799D01*
X004937Y002737D01*
X004977Y002681D01*
X005026Y002632D01*
X005082Y002591D01*
X005144Y002560D01*
X005210Y002539D01*
X005273Y002529D01*
X005273Y002928D01*
X005344Y002928D01*
X005344Y002829D01*
X005352Y002829D01*
X005352Y002529D01*
X005415Y002539D01*
X005481Y002560D01*
X005543Y002591D01*
X005599Y002632D01*
X005648Y002681D01*
X005688Y002737D01*
X005720Y002799D01*
X005741Y002864D01*
X005751Y002928D01*
X005635Y002928D01*
X005641Y002950D01*
X005641Y003007D01*
X005751Y003007D01*
X005913Y003007D01*
X005913Y002930D02*
X005636Y002930D01*
X005737Y002853D02*
X005928Y002853D01*
X005960Y002776D02*
X005708Y002776D01*
X005660Y002698D02*
X006017Y002698D01*
X006104Y002621D02*
X005584Y002621D01*
X005432Y002544D02*
X006631Y002544D01*
X006631Y002621D02*
X006521Y002621D01*
X006609Y002698D02*
X006631Y002698D01*
X006698Y002467D02*
X000279Y002467D01*
X000279Y002544D02*
X005193Y002544D01*
X005273Y002544D02*
X005352Y002544D01*
X005352Y002621D02*
X005273Y002621D01*
X005273Y002698D02*
X005352Y002698D01*
X005352Y002776D02*
X005273Y002776D01*
X005273Y002853D02*
X005344Y002853D01*
X005344Y003007D02*
X005344Y003929D01*
X005265Y003929D01*
X005265Y003405D01*
X005273Y003406D01*
X005273Y003007D01*
X005344Y003007D01*
X005273Y003007D01*
X005273Y003085D02*
X005344Y003085D01*
X005344Y003162D02*
X005273Y003162D01*
X005273Y003239D02*
X005344Y003239D01*
X005344Y003316D02*
X005273Y003316D01*
X005273Y003394D02*
X005344Y003394D01*
X005344Y003471D02*
X005265Y003471D01*
X005265Y003548D02*
X005344Y003548D01*
X005344Y003625D02*
X005265Y003625D01*
X005265Y003703D02*
X005344Y003703D01*
X005344Y003780D02*
X005265Y003780D01*
X005265Y003857D02*
X005344Y003857D01*
X005344Y003929D02*
X005344Y004008D01*
X005265Y004008D01*
X005265Y005108D01*
X005265Y005093D02*
X005344Y005093D01*
X005344Y005108D02*
X005520Y005108D01*
X005555Y005098D01*
X005587Y005080D01*
X005613Y005054D01*
X005631Y005022D01*
X005641Y004987D01*
X005641Y004008D01*
X005344Y004008D01*
X005344Y005108D01*
X005344Y005016D02*
X005265Y005016D01*
X005265Y004938D02*
X005344Y004938D01*
X005344Y004861D02*
X005265Y004861D01*
X005265Y004784D02*
X005344Y004784D01*
X005344Y004707D02*
X005265Y004707D01*
X005265Y004629D02*
X005344Y004629D01*
X005344Y004552D02*
X005265Y004552D01*
X005265Y004475D02*
X005344Y004475D01*
X005344Y004398D02*
X005265Y004398D01*
X005265Y004320D02*
X005344Y004320D01*
X005344Y004243D02*
X005265Y004243D01*
X005265Y004166D02*
X005344Y004166D01*
X005344Y004089D02*
X005265Y004089D01*
X005265Y004011D02*
X005344Y004011D01*
X005344Y003934D02*
X006009Y003934D01*
X006009Y003857D02*
X005641Y003857D01*
X005641Y003929D02*
X005344Y003929D01*
X005265Y003934D02*
X000279Y003934D01*
X000279Y003857D02*
X004969Y003857D01*
X004969Y003780D02*
X000279Y003780D01*
X000279Y003703D02*
X004969Y003703D01*
X004969Y003625D02*
X000279Y003625D01*
X000279Y003548D02*
X004969Y003548D01*
X004969Y003471D02*
X000279Y003471D01*
X000279Y003394D02*
X004969Y003394D01*
X004969Y003316D02*
X000279Y003316D01*
X000279Y003239D02*
X004967Y003239D01*
X004919Y003162D02*
X000279Y003162D01*
X000279Y003085D02*
X004889Y003085D01*
X004874Y003007D02*
X004969Y003007D01*
X004969Y002950D01*
X004974Y002928D01*
X004888Y002853D02*
X000279Y002853D01*
X000279Y002776D02*
X004917Y002776D01*
X004965Y002698D02*
X000279Y002698D01*
X000279Y002621D02*
X005041Y002621D01*
X005751Y003007D02*
X005741Y003070D01*
X005720Y003136D01*
X005688Y003197D01*
X005648Y003253D01*
X005641Y003260D01*
X005641Y003929D01*
X005641Y004011D02*
X006009Y004011D01*
X006009Y004089D02*
X005641Y004089D01*
X005641Y004166D02*
X006009Y004166D01*
X006009Y004243D02*
X005641Y004243D01*
X005641Y004320D02*
X006009Y004320D01*
X006009Y004398D02*
X005641Y004398D01*
X005641Y004475D02*
X006009Y004475D01*
X006009Y004552D02*
X005641Y004552D01*
X005641Y004629D02*
X006009Y004629D01*
X006009Y004707D02*
X005641Y004707D01*
X005641Y004784D02*
X006009Y004784D01*
X006009Y004861D02*
X005641Y004861D01*
X005641Y004938D02*
X006009Y004938D01*
X006015Y005016D02*
X005633Y005016D01*
X005565Y005093D02*
X006515Y005093D01*
X006515Y005170D02*
X000279Y005170D01*
X000279Y005093D02*
X005045Y005093D01*
X004976Y005016D02*
X000279Y005016D01*
X000279Y004938D02*
X004969Y004938D01*
X004969Y004861D02*
X000279Y004861D01*
X000279Y004784D02*
X004969Y004784D01*
X004969Y004707D02*
X000279Y004707D01*
X000279Y004629D02*
X004969Y004629D01*
X004969Y004552D02*
X000279Y004552D01*
X000279Y004475D02*
X004969Y004475D01*
X004969Y004398D02*
X000279Y004398D01*
X000279Y004320D02*
X004969Y004320D01*
X004969Y004243D02*
X000279Y004243D01*
X000279Y004166D02*
X004969Y004166D01*
X004969Y004089D02*
X000279Y004089D01*
X000279Y004011D02*
X004969Y004011D01*
X005641Y003780D02*
X006009Y003780D01*
X006009Y003703D02*
X005641Y003703D01*
X005641Y003625D02*
X006009Y003625D01*
X006009Y003548D02*
X005641Y003548D01*
X005641Y003471D02*
X006009Y003471D01*
X006009Y003394D02*
X005641Y003394D01*
X005641Y003316D02*
X006009Y003316D01*
X006009Y003239D02*
X005658Y003239D01*
X005707Y003162D02*
X005961Y003162D01*
X005929Y003085D02*
X005736Y003085D01*
X006775Y002389D02*
X000279Y002389D01*
X000279Y002312D02*
X006853Y002312D01*
X007521Y002621D02*
X008104Y002621D01*
X008017Y002698D02*
X007609Y002698D01*
X007666Y002776D02*
X007960Y002776D01*
X007928Y002853D02*
X007698Y002853D01*
X007712Y002930D02*
X007913Y002930D01*
X007913Y003007D02*
X007712Y003007D01*
X007696Y003085D02*
X007929Y003085D01*
X007961Y003162D02*
X007664Y003162D01*
X007605Y003239D02*
X008009Y003239D01*
X008009Y003316D02*
X007601Y003316D01*
X007601Y003394D02*
X008009Y003394D01*
X008009Y003471D02*
X007601Y003471D01*
X007601Y003548D02*
X008009Y003548D01*
X008009Y003625D02*
X007601Y003625D01*
X007601Y003703D02*
X008009Y003703D01*
X008009Y003780D02*
X007601Y003780D01*
X007601Y003857D02*
X008009Y003857D01*
X008009Y003934D02*
X007601Y003934D01*
X007601Y004011D02*
X008009Y004011D01*
X008009Y004089D02*
X007601Y004089D01*
X007601Y004166D02*
X008009Y004166D01*
X008009Y004243D02*
X007601Y004243D01*
X007601Y004320D02*
X008009Y004320D01*
X008009Y004398D02*
X007601Y004398D01*
X007601Y004475D02*
X008009Y004475D01*
X008009Y004552D02*
X007601Y004552D01*
X007601Y004629D02*
X008009Y004629D01*
X008009Y004707D02*
X007601Y004707D01*
X007601Y004784D02*
X008009Y004784D01*
X008009Y004861D02*
X007601Y004861D01*
X007601Y004938D02*
X008009Y004938D01*
X008015Y005016D02*
X007595Y005016D01*
X007471Y005093D02*
X008154Y005093D01*
X008154Y005170D02*
X007471Y005170D01*
X007471Y005247D02*
X008202Y005247D01*
X007983Y005402D02*
X007977Y005402D01*
X007977Y005479D02*
X007983Y005479D01*
X007977Y005556D02*
X007983Y005556D01*
X007154Y005556D02*
X007022Y005556D01*
X007022Y005495D02*
X007022Y005750D01*
X007154Y005618D01*
X007154Y005068D01*
X007067Y005068D01*
X007009Y005010D01*
X007009Y003228D01*
X006974Y003193D01*
X006948Y003130D01*
X006948Y004271D01*
X006855Y004363D01*
X006831Y004387D01*
X006831Y005437D01*
X006964Y005437D01*
X007022Y005495D01*
X007007Y005479D02*
X007154Y005479D01*
X007154Y005402D02*
X006831Y005402D01*
X006831Y005325D02*
X007154Y005325D01*
X007154Y005247D02*
X006831Y005247D01*
X006831Y005170D02*
X007154Y005170D01*
X007154Y005093D02*
X006831Y005093D01*
X006831Y005016D02*
X007015Y005016D01*
X007009Y004938D02*
X006831Y004938D01*
X006831Y004861D02*
X007009Y004861D01*
X007009Y004784D02*
X006831Y004784D01*
X006831Y004707D02*
X007009Y004707D01*
X007009Y004629D02*
X006831Y004629D01*
X006831Y004552D02*
X007009Y004552D01*
X007009Y004475D02*
X006831Y004475D01*
X006831Y004398D02*
X007009Y004398D01*
X007009Y004320D02*
X006898Y004320D01*
X006948Y004243D02*
X007009Y004243D01*
X007009Y004166D02*
X006948Y004166D01*
X006948Y004089D02*
X007009Y004089D01*
X007009Y004011D02*
X006948Y004011D01*
X006948Y003934D02*
X007009Y003934D01*
X007009Y003857D02*
X006948Y003857D01*
X006948Y003780D02*
X007009Y003780D01*
X007009Y003703D02*
X006948Y003703D01*
X006948Y003625D02*
X007009Y003625D01*
X007009Y003548D02*
X006948Y003548D01*
X006948Y003471D02*
X007009Y003471D01*
X007009Y003394D02*
X006948Y003394D01*
X006948Y003316D02*
X007009Y003316D01*
X007009Y003239D02*
X006948Y003239D01*
X006948Y003162D02*
X006961Y003162D01*
X008726Y002312D02*
X009154Y002312D01*
X009154Y002235D02*
X000279Y002235D01*
X000279Y002158D02*
X009154Y002158D01*
X009154Y002080D02*
X000279Y002080D01*
X000279Y002003D02*
X009154Y002003D01*
X009154Y001926D02*
X000279Y001926D01*
X000279Y001849D02*
X009154Y001849D01*
X009154Y001771D02*
X000279Y001771D01*
X000279Y001694D02*
X009154Y001694D01*
X009198Y001617D02*
X000279Y001617D01*
X000279Y001540D02*
X009275Y001540D01*
X009352Y001463D02*
X000279Y001463D01*
X000279Y001385D02*
X009429Y001385D01*
X009507Y001308D02*
X000279Y001308D01*
X000279Y001231D02*
X018898Y001231D01*
X018898Y001308D02*
X017922Y001308D01*
X017999Y001385D02*
X018898Y001385D01*
X018898Y001463D02*
X018077Y001463D01*
X018154Y001540D02*
X018898Y001540D01*
X018898Y001617D02*
X018231Y001617D01*
X018308Y001694D02*
X018898Y001694D01*
X018898Y001771D02*
X018385Y001771D01*
X018448Y001849D02*
X018898Y001849D01*
X018898Y001926D02*
X018448Y001926D01*
X018448Y002003D02*
X018898Y002003D01*
X018898Y002080D02*
X018448Y002080D01*
X018448Y002158D02*
X018898Y002158D01*
X018898Y002235D02*
X018448Y002235D01*
X018448Y002312D02*
X018898Y002312D01*
X018898Y002389D02*
X018448Y002389D01*
X018448Y002467D02*
X018898Y002467D01*
X018898Y002544D02*
X018448Y002544D01*
X018448Y002621D02*
X018898Y002621D01*
X018898Y002698D02*
X018448Y002698D01*
X018448Y002776D02*
X018898Y002776D01*
X018898Y002853D02*
X018448Y002853D01*
X018448Y002930D02*
X018898Y002930D01*
X018898Y003007D02*
X018448Y003007D01*
X018448Y003085D02*
X018898Y003085D01*
X018898Y003162D02*
X018448Y003162D01*
X018448Y003239D02*
X018898Y003239D01*
X018898Y003316D02*
X018448Y003316D01*
X018448Y003394D02*
X018898Y003394D01*
X018898Y003471D02*
X018448Y003471D01*
X018448Y003548D02*
X018898Y003548D01*
X018898Y003625D02*
X018448Y003625D01*
X018448Y003703D02*
X018898Y003703D01*
X018898Y003780D02*
X018448Y003780D01*
X018448Y003857D02*
X018898Y003857D01*
X018898Y003934D02*
X018448Y003934D01*
X018448Y004011D02*
X018898Y004011D01*
X018898Y004089D02*
X018448Y004089D01*
X018448Y004166D02*
X018898Y004166D01*
X018898Y004243D02*
X018448Y004243D01*
X018448Y004320D02*
X018898Y004320D01*
X018898Y004398D02*
X018448Y004398D01*
X018448Y004475D02*
X018898Y004475D01*
X018898Y004552D02*
X018448Y004552D01*
X018448Y004629D02*
X018898Y004629D01*
X018898Y004707D02*
X018448Y004707D01*
X018448Y004784D02*
X018898Y004784D01*
X018898Y004861D02*
X018448Y004861D01*
X018448Y004938D02*
X018898Y004938D01*
X018898Y005016D02*
X018448Y005016D01*
X018448Y005093D02*
X018898Y005093D01*
X018898Y005170D02*
X018448Y005170D01*
X018448Y005247D02*
X018898Y005247D01*
X018898Y005325D02*
X018448Y005325D01*
X018448Y005402D02*
X018898Y005402D01*
X018898Y005479D02*
X018448Y005479D01*
X018448Y005556D02*
X018898Y005556D01*
X017250Y006715D02*
X012898Y006715D01*
X012898Y006638D02*
X014911Y006638D01*
X014873Y006560D02*
X012898Y006560D01*
X012898Y006483D02*
X013810Y006483D01*
X013733Y006406D02*
X012898Y006406D01*
X012898Y006329D02*
X013655Y006329D01*
X013578Y006251D02*
X012898Y006251D01*
X012898Y006174D02*
X013501Y006174D01*
X013424Y006097D02*
X012898Y006097D01*
X012898Y006020D02*
X013346Y006020D01*
X013269Y005942D02*
X012898Y005942D01*
X012898Y005865D02*
X013192Y005865D01*
X013161Y005788D02*
X012841Y005788D01*
X012763Y005711D02*
X013161Y005711D01*
X013161Y005634D02*
X012686Y005634D01*
X012584Y005556D02*
X013161Y005556D01*
X013161Y005479D02*
X012256Y005479D01*
X012256Y005402D02*
X013161Y005402D01*
X013161Y005325D02*
X012256Y005325D01*
X012256Y005247D02*
X013161Y005247D01*
X013161Y005170D02*
X012256Y005170D01*
X012256Y005093D02*
X013161Y005093D01*
X013015Y005016D02*
X012595Y005016D01*
X012601Y004938D02*
X013009Y004938D01*
X013009Y004861D02*
X012601Y004861D01*
X012601Y004784D02*
X013009Y004784D01*
X013009Y004707D02*
X012601Y004707D01*
X012601Y004629D02*
X013009Y004629D01*
X013009Y004552D02*
X012601Y004552D01*
X012601Y004475D02*
X013009Y004475D01*
X013009Y004398D02*
X012601Y004398D01*
X012601Y004320D02*
X013009Y004320D01*
X013009Y004243D02*
X012601Y004243D01*
X012601Y004166D02*
X013009Y004166D01*
X013009Y004089D02*
X012601Y004089D01*
X012601Y004011D02*
X013009Y004011D01*
X013009Y003934D02*
X012601Y003934D01*
X012601Y003857D02*
X013009Y003857D01*
X013009Y003780D02*
X012601Y003780D01*
X012601Y003703D02*
X013009Y003703D01*
X013009Y003625D02*
X012601Y003625D01*
X012601Y003548D02*
X013009Y003548D01*
X013009Y003471D02*
X012601Y003471D01*
X012601Y003394D02*
X013009Y003394D01*
X013009Y003316D02*
X012601Y003316D01*
X012605Y003239D02*
X013009Y003239D01*
X012961Y003162D02*
X012664Y003162D01*
X012696Y003085D02*
X012929Y003085D01*
X012913Y003007D02*
X012712Y003007D01*
X012712Y002930D02*
X012913Y002930D01*
X012928Y002853D02*
X012698Y002853D01*
X012666Y002776D02*
X012960Y002776D01*
X013017Y002698D02*
X012609Y002698D01*
X012521Y002621D02*
X013104Y002621D01*
X013161Y002544D02*
X011948Y002544D01*
X011948Y002621D02*
X012104Y002621D01*
X012017Y002698D02*
X011948Y002698D01*
X011948Y002776D02*
X011960Y002776D01*
X011948Y002467D02*
X013161Y002467D01*
X013181Y002389D02*
X011948Y002389D01*
X011948Y002312D02*
X013181Y002312D01*
X013181Y002235D02*
X011978Y002235D01*
X010948Y003130D02*
X010948Y004436D01*
X010957Y004445D01*
X010957Y005284D01*
X010819Y005422D01*
X010727Y005515D01*
X010080Y005515D01*
X010080Y005688D01*
X010688Y005688D01*
X010774Y005602D01*
X011031Y005602D01*
X011031Y005542D01*
X011089Y005484D01*
X011362Y005484D01*
X011408Y005437D01*
X011408Y005097D01*
X011379Y005068D01*
X011067Y005068D01*
X011009Y005010D01*
X011009Y003228D01*
X010974Y003193D01*
X010948Y003130D01*
X010948Y003162D02*
X010961Y003162D01*
X010948Y003239D02*
X011009Y003239D01*
X011009Y003316D02*
X010948Y003316D01*
X010948Y003394D02*
X011009Y003394D01*
X011009Y003471D02*
X010948Y003471D01*
X010948Y003548D02*
X011009Y003548D01*
X011009Y003625D02*
X010948Y003625D01*
X010948Y003703D02*
X011009Y003703D01*
X011009Y003780D02*
X010948Y003780D01*
X010948Y003857D02*
X011009Y003857D01*
X011009Y003934D02*
X010948Y003934D01*
X010948Y004011D02*
X011009Y004011D01*
X011009Y004089D02*
X010948Y004089D01*
X010948Y004166D02*
X011009Y004166D01*
X011009Y004243D02*
X010948Y004243D01*
X010948Y004320D02*
X011009Y004320D01*
X011009Y004398D02*
X010948Y004398D01*
X010957Y004475D02*
X011009Y004475D01*
X011009Y004552D02*
X010957Y004552D01*
X010957Y004629D02*
X011009Y004629D01*
X011009Y004707D02*
X010957Y004707D01*
X010957Y004784D02*
X011009Y004784D01*
X011009Y004861D02*
X010957Y004861D01*
X010957Y004938D02*
X011009Y004938D01*
X011015Y005016D02*
X010957Y005016D01*
X010957Y005093D02*
X011404Y005093D01*
X011408Y005170D02*
X010957Y005170D01*
X010957Y005247D02*
X011408Y005247D01*
X011408Y005325D02*
X010917Y005325D01*
X010839Y005402D02*
X011408Y005402D01*
X011366Y005479D02*
X010762Y005479D01*
X010743Y005634D02*
X010080Y005634D01*
X010080Y005556D02*
X011031Y005556D01*
X010481Y006329D02*
X010080Y006329D01*
X010080Y006406D02*
X010481Y006406D01*
X010481Y006483D02*
X010079Y006483D01*
X009848Y006560D02*
X010481Y006560D01*
X010481Y006638D02*
X009848Y006638D01*
X009848Y006715D02*
X010481Y006715D01*
X010497Y006792D02*
X009848Y006792D01*
X009848Y006869D02*
X010574Y006869D01*
X010651Y006947D02*
X009848Y006947D01*
X009848Y007024D02*
X017311Y007024D01*
X017311Y007101D02*
X009823Y007101D01*
X009746Y007178D02*
X017311Y007178D01*
X017311Y007256D02*
X009669Y007256D01*
X009462Y007333D02*
X017311Y007333D01*
X017311Y007410D02*
X009450Y007410D01*
X009196Y007796D02*
X009118Y007796D01*
X009118Y007873D02*
X009196Y007873D01*
X009196Y007951D02*
X009118Y007951D01*
X009118Y008182D02*
X009196Y008182D01*
X009196Y008260D02*
X009118Y008260D01*
X009118Y008337D02*
X009196Y008337D01*
X009404Y008337D02*
X017625Y008337D01*
X017651Y008414D02*
X000279Y008414D01*
X000279Y008337D02*
X008910Y008337D01*
X008864Y008260D02*
X008823Y008260D01*
X008823Y008182D02*
X008860Y008182D01*
X008310Y008182D02*
X000279Y008182D01*
X000279Y008105D02*
X008310Y008105D01*
X008310Y008028D02*
X000279Y008028D01*
X000279Y007951D02*
X008310Y007951D01*
X008310Y007873D02*
X000279Y007873D01*
X000279Y007796D02*
X008447Y007796D01*
X008447Y007719D02*
X000279Y007719D01*
X000279Y007642D02*
X008447Y007642D01*
X008447Y007565D02*
X000279Y007565D01*
X000279Y008260D02*
X008310Y008260D01*
X009451Y008260D02*
X017548Y008260D01*
X017470Y008182D02*
X009454Y008182D01*
X009462Y006947D02*
X009530Y006947D01*
X009531Y006869D02*
X007455Y006869D01*
X007532Y006792D02*
X009531Y006792D01*
X009531Y006715D02*
X007598Y006715D01*
X007598Y006638D02*
X009531Y006638D01*
X009531Y006560D02*
X007598Y006560D01*
X007598Y006406D02*
X007601Y006406D01*
X007598Y006329D02*
X007601Y006329D01*
X007062Y005711D02*
X007022Y005711D01*
X007022Y005634D02*
X007139Y005634D01*
X006515Y005325D02*
X000279Y005325D01*
X000279Y005247D02*
X006515Y005247D01*
X008998Y002698D02*
X009017Y002698D01*
X008998Y002621D02*
X009104Y002621D01*
X009154Y002544D02*
X008958Y002544D01*
X008881Y002467D02*
X009154Y002467D01*
X009154Y002389D02*
X008803Y002389D01*
X013601Y004011D02*
X013969Y004011D01*
X013969Y004089D02*
X013601Y004089D01*
X013601Y004166D02*
X013969Y004166D01*
X013969Y004243D02*
X013601Y004243D01*
X013601Y004320D02*
X013969Y004320D01*
X013969Y004398D02*
X013601Y004398D01*
X013601Y004475D02*
X013969Y004475D01*
X013969Y004552D02*
X013601Y004552D01*
X013601Y004629D02*
X013969Y004629D01*
X013969Y004707D02*
X013601Y004707D01*
X013601Y004784D02*
X013969Y004784D01*
X013969Y004861D02*
X013601Y004861D01*
X013601Y004938D02*
X013969Y004938D01*
X013976Y005016D02*
X013595Y005016D01*
X013517Y005093D02*
X014045Y005093D01*
X014265Y005093D02*
X014344Y005093D01*
X014344Y005016D02*
X014265Y005016D01*
X014265Y004938D02*
X014344Y004938D01*
X014344Y004861D02*
X014265Y004861D01*
X014265Y004784D02*
X014344Y004784D01*
X014344Y004707D02*
X014265Y004707D01*
X014265Y004629D02*
X014344Y004629D01*
X014344Y004552D02*
X014265Y004552D01*
X014265Y004475D02*
X014344Y004475D01*
X014344Y004398D02*
X014265Y004398D01*
X014265Y004320D02*
X014344Y004320D01*
X014344Y004243D02*
X014265Y004243D01*
X014265Y004166D02*
X014344Y004166D01*
X014344Y004089D02*
X014265Y004089D01*
X014265Y004011D02*
X014344Y004011D01*
X015053Y004629D02*
X015293Y004629D01*
X015141Y004707D02*
X015101Y004707D01*
X015104Y004784D02*
X015141Y004784D01*
X014520Y005108D02*
X014520Y005108D01*
X014480Y005170D02*
X013517Y005170D01*
X013517Y005247D02*
X014463Y005247D01*
X014463Y005325D02*
X013517Y005325D01*
X013850Y006020D02*
X014873Y006020D01*
X014873Y006097D02*
X013927Y006097D01*
X014696Y005865D02*
X014728Y005865D01*
X014728Y005877D02*
X014728Y005504D01*
X014961Y005504D01*
X014961Y005756D01*
X014952Y005792D01*
X014933Y005823D01*
X014907Y005849D01*
X014876Y005868D01*
X014840Y005877D01*
X014728Y005877D01*
X014728Y005788D02*
X014696Y005788D01*
X014696Y005711D02*
X014728Y005711D01*
X014728Y005634D02*
X014696Y005634D01*
X014696Y005556D02*
X014728Y005556D01*
X014961Y005556D02*
X015243Y005556D01*
X015243Y005634D02*
X014961Y005634D01*
X014961Y005711D02*
X015243Y005711D01*
X015251Y005788D02*
X014953Y005788D01*
X014880Y005865D02*
X015832Y005865D01*
X015822Y005788D02*
X015652Y005788D01*
X015887Y006020D02*
X015291Y006020D01*
X015291Y006097D02*
X015451Y006097D01*
X015374Y006174D02*
X015291Y006174D01*
X015291Y006560D02*
X017096Y006560D01*
X017018Y006483D02*
X016334Y006483D01*
X015903Y006483D02*
X015569Y006483D01*
X015253Y006638D02*
X017173Y006638D01*
X017311Y006792D02*
X012882Y006792D01*
X012805Y006869D02*
X012805Y006869D01*
X017311Y006869D01*
X017311Y006947D02*
X012728Y006947D01*
X012798Y006876D02*
X012798Y006876D01*
X017695Y008491D02*
X000279Y008491D01*
X000279Y008569D02*
X017772Y008569D01*
X018007Y008569D02*
X018898Y008569D01*
X018898Y008646D02*
X000279Y008646D01*
X000279Y008723D02*
X018898Y008723D01*
X018898Y008800D02*
X000279Y008800D01*
X000279Y008878D02*
X018898Y008878D01*
X018898Y008955D02*
X000279Y008955D01*
X000279Y009032D02*
X018898Y009032D01*
X018898Y009109D02*
X000279Y009109D01*
X000279Y009187D02*
X018898Y009187D01*
X018898Y009264D02*
X000279Y009264D01*
X000279Y009341D02*
X018898Y009341D01*
X018898Y009418D02*
X000279Y009418D01*
X000279Y009496D02*
X018898Y009496D01*
X018898Y009573D02*
X000279Y009573D01*
X000279Y009650D02*
X018898Y009650D01*
X018898Y009727D02*
X000279Y009727D01*
X000279Y009804D02*
X018898Y009804D01*
X018898Y009882D02*
X000279Y009882D01*
X000279Y009959D02*
X018898Y009959D01*
X018898Y010036D02*
X000279Y010036D01*
X000279Y010113D02*
X018898Y010113D01*
X018898Y010191D02*
X000279Y010191D01*
X000279Y010268D02*
X018898Y010268D01*
X018898Y010345D02*
X000279Y010345D01*
X000279Y010422D02*
X018898Y010422D01*
X018898Y010500D02*
X000279Y010500D01*
X000279Y010577D02*
X018898Y010577D01*
X018898Y010654D02*
X000279Y010654D01*
X000279Y010731D02*
X018898Y010731D01*
X018898Y010809D02*
X000279Y010809D01*
X000279Y010886D02*
X018898Y010886D01*
X018898Y010963D02*
X000279Y010963D01*
X000279Y011040D02*
X018898Y011040D01*
X018898Y011118D02*
X000279Y011118D01*
X000279Y011195D02*
X018898Y011195D01*
X018898Y011272D02*
X000279Y011272D01*
X000279Y011349D02*
X018898Y011349D01*
X018898Y011427D02*
X000279Y011427D01*
X000279Y011504D02*
X018898Y011504D01*
X018898Y011581D02*
X000279Y011581D01*
X000279Y011658D02*
X018898Y011658D01*
X018898Y011736D02*
X000279Y011736D01*
X000279Y011813D02*
X018898Y011813D01*
X018898Y011890D02*
X011486Y011890D01*
X011499Y011903D02*
X011499Y015364D01*
X018898Y015364D01*
X018898Y000289D01*
X000279Y000289D01*
X000279Y015364D01*
X006890Y015364D01*
X006890Y011903D01*
X006971Y011821D01*
X007087Y011821D01*
X011418Y011821D01*
X011499Y011903D01*
X011499Y011967D02*
X018898Y011967D01*
X018898Y012044D02*
X011499Y012044D01*
X011499Y012122D02*
X018898Y012122D01*
X018898Y012199D02*
X011499Y012199D01*
X011499Y012276D02*
X018898Y012276D01*
X018898Y012353D02*
X011499Y012353D01*
X011499Y012431D02*
X018898Y012431D01*
X018898Y012508D02*
X011499Y012508D01*
X011499Y012585D02*
X018898Y012585D01*
X018898Y012662D02*
X011499Y012662D01*
X011499Y012740D02*
X018898Y012740D01*
X018898Y012817D02*
X011499Y012817D01*
X011499Y012894D02*
X018898Y012894D01*
X018898Y012971D02*
X011499Y012971D01*
X011499Y013049D02*
X018898Y013049D01*
X018898Y013126D02*
X013538Y013126D01*
X013477Y013101D02*
X013825Y013245D01*
X014091Y013511D01*
X014235Y013859D01*
X014235Y014235D01*
X014091Y014583D01*
X013825Y014849D01*
X013477Y014994D01*
X013101Y014994D01*
X012753Y014849D01*
X012487Y014583D01*
X012343Y014235D01*
X012343Y013859D01*
X012487Y013511D01*
X012753Y013245D01*
X013101Y013101D01*
X013477Y013101D01*
X013725Y013203D02*
X018898Y013203D01*
X018898Y013280D02*
X013861Y013280D01*
X013938Y013358D02*
X018898Y013358D01*
X018898Y013435D02*
X014015Y013435D01*
X014092Y013512D02*
X018898Y013512D01*
X018898Y013589D02*
X014124Y013589D01*
X014156Y013667D02*
X018898Y013667D01*
X018898Y013744D02*
X014188Y013744D01*
X014220Y013821D02*
X018898Y013821D01*
X018898Y013898D02*
X014235Y013898D01*
X014235Y013975D02*
X018898Y013975D01*
X018898Y014053D02*
X014235Y014053D01*
X014235Y014130D02*
X018898Y014130D01*
X018898Y014207D02*
X014235Y014207D01*
X014215Y014284D02*
X018898Y014284D01*
X018898Y014362D02*
X014183Y014362D01*
X014151Y014439D02*
X018898Y014439D01*
X018898Y014516D02*
X014119Y014516D01*
X014081Y014593D02*
X018898Y014593D01*
X018898Y014671D02*
X014004Y014671D01*
X013927Y014748D02*
X018898Y014748D01*
X018898Y014825D02*
X013849Y014825D01*
X013697Y014902D02*
X018898Y014902D01*
X018898Y014980D02*
X013511Y014980D01*
X013067Y014980D02*
X011499Y014980D01*
X011499Y015057D02*
X018898Y015057D01*
X018898Y015134D02*
X011499Y015134D01*
X011499Y015211D02*
X018898Y015211D01*
X018898Y015289D02*
X011499Y015289D01*
X011499Y014902D02*
X012881Y014902D01*
X012729Y014825D02*
X011499Y014825D01*
X011499Y014748D02*
X012651Y014748D01*
X012574Y014671D02*
X011499Y014671D01*
X011499Y014593D02*
X012497Y014593D01*
X012459Y014516D02*
X011499Y014516D01*
X011499Y014439D02*
X012427Y014439D01*
X012395Y014362D02*
X011499Y014362D01*
X011499Y014284D02*
X012363Y014284D01*
X012343Y014207D02*
X011499Y014207D01*
X011499Y014130D02*
X012343Y014130D01*
X012343Y014053D02*
X011499Y014053D01*
X011499Y013975D02*
X012343Y013975D01*
X012343Y013898D02*
X011499Y013898D01*
X011499Y013821D02*
X012358Y013821D01*
X012390Y013744D02*
X011499Y013744D01*
X011499Y013667D02*
X012422Y013667D01*
X012454Y013589D02*
X011499Y013589D01*
X011499Y013512D02*
X012486Y013512D01*
X012563Y013435D02*
X011499Y013435D01*
X011499Y013358D02*
X012640Y013358D01*
X012717Y013280D02*
X011499Y013280D01*
X011499Y013203D02*
X012853Y013203D01*
X013040Y013126D02*
X011499Y013126D01*
X006890Y013126D02*
X000279Y013126D01*
X000279Y013203D02*
X006890Y013203D01*
X006890Y013280D02*
X000279Y013280D01*
X000279Y013358D02*
X006890Y013358D01*
X006890Y013435D02*
X000279Y013435D01*
X000279Y013512D02*
X006890Y013512D01*
X006890Y013589D02*
X000279Y013589D01*
X000279Y013667D02*
X006890Y013667D01*
X006890Y013744D02*
X000279Y013744D01*
X000279Y013821D02*
X006890Y013821D01*
X006890Y013898D02*
X000279Y013898D01*
X000279Y013975D02*
X006890Y013975D01*
X006890Y014053D02*
X000279Y014053D01*
X000279Y014130D02*
X006890Y014130D01*
X006890Y014207D02*
X000279Y014207D01*
X000279Y014284D02*
X006890Y014284D01*
X006890Y014362D02*
X000279Y014362D01*
X000279Y014439D02*
X006890Y014439D01*
X006890Y014516D02*
X000279Y014516D01*
X000279Y014593D02*
X006890Y014593D01*
X006890Y014671D02*
X000279Y014671D01*
X000279Y014748D02*
X006890Y014748D01*
X006890Y014825D02*
X000279Y014825D01*
X000279Y014902D02*
X006890Y014902D01*
X006890Y014980D02*
X000279Y014980D01*
X000279Y015057D02*
X006890Y015057D01*
X006890Y015134D02*
X000279Y015134D01*
X000279Y015211D02*
X006890Y015211D01*
X006890Y015289D02*
X000279Y015289D01*
X000279Y013049D02*
X006890Y013049D01*
X006890Y012971D02*
X000279Y012971D01*
X000279Y012894D02*
X006890Y012894D01*
X006890Y012817D02*
X000279Y012817D01*
X000279Y012740D02*
X006890Y012740D01*
X006890Y012662D02*
X000279Y012662D01*
X000279Y012585D02*
X006890Y012585D01*
X006890Y012508D02*
X000279Y012508D01*
X000279Y012431D02*
X006890Y012431D01*
X006890Y012353D02*
X000279Y012353D01*
X000279Y012276D02*
X006890Y012276D01*
X006890Y012199D02*
X000279Y012199D01*
X000279Y012122D02*
X006890Y012122D01*
X006890Y012044D02*
X000279Y012044D01*
X000279Y011967D02*
X006890Y011967D01*
X006903Y011890D02*
X000279Y011890D01*
X000279Y001154D02*
X018898Y001154D01*
X018898Y001076D02*
X000279Y001076D01*
X000279Y000999D02*
X018898Y000999D01*
X018898Y000922D02*
X000279Y000922D01*
X000279Y000845D02*
X018898Y000845D01*
X018898Y000767D02*
X000279Y000767D01*
X000279Y000690D02*
X018898Y000690D01*
X018898Y000613D02*
X000279Y000613D01*
X000279Y000536D02*
X018898Y000536D01*
X018898Y000458D02*
X000279Y000458D01*
X000279Y000381D02*
X018898Y000381D01*
X018898Y000304D02*
X000279Y000304D01*
X017820Y008028D02*
X018898Y008028D01*
X018898Y008105D02*
X017897Y008105D01*
X018059Y008182D02*
X018898Y008182D01*
X018898Y008260D02*
X018127Y008260D01*
X018127Y008337D02*
X018898Y008337D01*
X018898Y008414D02*
X018127Y008414D01*
X018084Y008491D02*
X018898Y008491D01*
D22*
X013981Y005378D03*
X012777Y005171D03*
X011234Y005270D03*
X010227Y006621D03*
X007816Y005216D03*
X007006Y005235D03*
X007127Y006371D03*
X005077Y005971D03*
X000927Y001860D03*
X000877Y000810D03*
X016077Y005021D03*
X018427Y000710D03*
X018328Y014795D03*
X000927Y014716D03*
D23*
X013339Y005761D02*
X013886Y006308D01*
X015082Y006308D01*
X015135Y006361D02*
X015439Y006361D01*
X015557Y006243D01*
X016119Y006243D01*
X016137Y006262D01*
X017049Y006262D01*
X017489Y006702D01*
X017489Y007949D01*
X017889Y008349D01*
X013339Y005761D02*
X013339Y002490D01*
M02*
