%
M48
M72
T01C0.0130
T02C0.0157
T03C0.0400
T04C0.1614
%
T01
X18328Y14795
X927Y14716
X877Y810
X18427Y710
X16077Y5021
X7816Y5216
X5077Y5971
X13981Y5378
X11234Y5270
X7127Y6371
X7006Y5235
X927Y1860
X10227Y6621
X12777Y5171
T02
X18489Y7699
X17889Y8349
T03
X14313Y2967
X13313Y2967
X12313Y2967
X11313Y2967
X10313Y2967
X9313Y2967
X8313Y2967
X7313Y2967
X6313Y2967
X5313Y2967
T04
X13289Y14047
M30
