G75*
%MOIN*%
%OFA0B0*%
%FSLAX24Y24*%
%IPPOS*%
%LPD*%
%AMOC8*
5,1,8,0,0,1.08239X$1,22.5*
%
%ADD10C,0.0000*%
%ADD11C,0.0040*%
%ADD12C,0.0030*%
%ADD13C,0.0050*%
%ADD14C,0.0060*%
%ADD15R,0.0050X0.0050*%
%ADD16R,0.0100X0.0050*%
%ADD17R,0.0150X0.0050*%
%ADD18R,0.0250X0.0050*%
%ADD19R,0.0450X0.0050*%
%ADD20R,0.0350X0.0050*%
%ADD21R,0.0200X0.0050*%
%ADD22R,0.0300X0.0050*%
%ADD23R,0.0400X0.0050*%
%ADD24R,0.0550X0.0050*%
%ADD25R,0.0600X0.0050*%
%ADD26R,0.0650X0.0050*%
%ADD27R,0.0700X0.0050*%
%ADD28R,0.0750X0.0050*%
%ADD29R,0.0800X0.0050*%
%ADD30R,0.0500X0.0050*%
%ADD31R,0.1750X0.0050*%
%ADD32R,0.1800X0.0050*%
%ADD33R,0.1350X0.0050*%
%ADD34R,0.1050X0.0050*%
%ADD35R,0.1000X0.0050*%
%ADD36R,0.0950X0.0050*%
%ADD37R,0.0071X0.0004*%
%ADD38R,0.0087X0.0004*%
%ADD39R,0.0004X0.0004*%
%ADD40R,0.0118X0.0004*%
%ADD41R,0.0134X0.0004*%
%ADD42R,0.0146X0.0004*%
%ADD43R,0.0154X0.0004*%
%ADD44R,0.0173X0.0004*%
%ADD45R,0.0039X0.0004*%
%ADD46R,0.0063X0.0004*%
%ADD47R,0.0189X0.0004*%
%ADD48R,0.0075X0.0004*%
%ADD49R,0.0094X0.0004*%
%ADD50R,0.0106X0.0004*%
%ADD51R,0.0059X0.0004*%
%ADD52R,0.0114X0.0004*%
%ADD53R,0.0055X0.0004*%
%ADD54R,0.0051X0.0004*%
%ADD55R,0.0126X0.0004*%
%ADD56R,0.0047X0.0004*%
%ADD57R,0.0043X0.0004*%
%ADD58R,0.0031X0.0004*%
%ADD59R,0.0035X0.0004*%
%ADD60R,0.0067X0.0004*%
%ADD61R,0.0091X0.0004*%
%ADD62R,0.0098X0.0004*%
%ADD63R,0.0122X0.0004*%
%ADD64R,0.0130X0.0004*%
%ADD65R,0.0142X0.0004*%
%ADD66R,0.0150X0.0004*%
%ADD67R,0.0161X0.0004*%
%ADD68R,0.0083X0.0004*%
%ADD69R,0.0224X0.0004*%
%ADD70R,0.0181X0.0004*%
%ADD71R,0.0165X0.0004*%
%ADD72R,0.0193X0.0004*%
%ADD73R,0.0110X0.0004*%
%ADD74R,0.0102X0.0004*%
%ADD75R,0.0079X0.0004*%
%ADD76R,0.0012X0.0004*%
%ADD77R,0.0217X0.0004*%
%ADD78R,0.0008X0.0004*%
%ADD79R,0.0244X0.0004*%
%ADD80R,0.0272X0.0004*%
%ADD81R,0.0283X0.0004*%
%ADD82R,0.0248X0.0004*%
%ADD83R,0.0213X0.0004*%
%ADD84R,0.0157X0.0004*%
%ADD85R,0.0197X0.0004*%
%ADD86R,0.0169X0.0004*%
%ADD87R,0.0209X0.0004*%
%ADD88R,0.0185X0.0004*%
%ADD89R,0.0201X0.0004*%
%ADD90R,0.0291X0.0004*%
%ADD91R,0.0276X0.0004*%
%ADD92R,0.0268X0.0004*%
%ADD93R,0.0232X0.0004*%
%ADD94R,0.0205X0.0004*%
%ADD95R,0.0280X0.0004*%
%ADD96R,0.0220X0.0004*%
%ADD97R,0.0138X0.0004*%
%ADD98R,0.0177X0.0004*%
%ADD99R,0.0016X0.0004*%
%ADD100R,0.0028X0.0004*%
%ADD101R,0.0299X0.0004*%
%ADD102R,0.0319X0.0004*%
%ADD103R,0.0362X0.0004*%
%ADD104R,0.0406X0.0004*%
%ADD105R,0.0445X0.0004*%
%ADD106R,0.0370X0.0004*%
%ADD107R,0.0024X0.0004*%
%ADD108R,0.0508X0.0004*%
%ADD109R,0.0488X0.0004*%
%ADD110R,0.0378X0.0004*%
%ADD111R,0.0390X0.0004*%
%ADD112R,0.0382X0.0004*%
%ADD113R,0.0394X0.0004*%
%ADD114R,0.0437X0.0004*%
%ADD115R,0.0417X0.0004*%
%ADD116R,0.0425X0.0004*%
%ADD117R,0.0398X0.0004*%
%ADD118R,0.0374X0.0004*%
%ADD119R,0.0020X0.0004*%
%ADD120R,0.0441X0.0004*%
%ADD121R,0.0386X0.0004*%
%ADD122R,0.0402X0.0004*%
%ADD123R,0.0413X0.0004*%
%ADD124R,0.0339X0.0004*%
%ADD125R,0.0303X0.0004*%
%ADD126R,0.0236X0.0004*%
%ADD127R,0.0240X0.0004*%
D10*
X000139Y000149D02*
X000139Y015504D01*
X007029Y015504D01*
X007029Y011960D01*
X011360Y011960D01*
X011360Y015504D01*
X019037Y015504D01*
X019037Y000149D01*
X000139Y000149D01*
X006043Y006626D02*
X006045Y006605D01*
X006050Y006585D01*
X006059Y006566D01*
X006071Y006549D01*
X006086Y006534D01*
X006103Y006522D01*
X006122Y006513D01*
X006142Y006508D01*
X006163Y006506D01*
X006184Y006508D01*
X006204Y006513D01*
X006223Y006522D01*
X006240Y006534D01*
X006255Y006549D01*
X006267Y006566D01*
X006276Y006585D01*
X006281Y006605D01*
X006283Y006626D01*
X012482Y014047D02*
X012484Y014103D01*
X012490Y014159D01*
X012500Y014215D01*
X012513Y014269D01*
X012531Y014323D01*
X012552Y014375D01*
X012576Y014426D01*
X012605Y014475D01*
X012636Y014521D01*
X012671Y014566D01*
X012708Y014608D01*
X012749Y014647D01*
X012792Y014683D01*
X012838Y014716D01*
X012885Y014746D01*
X012935Y014772D01*
X012987Y014795D01*
X013040Y014815D01*
X013094Y014830D01*
X013149Y014842D01*
X013205Y014850D01*
X013261Y014854D01*
X013317Y014854D01*
X013373Y014850D01*
X013429Y014842D01*
X013484Y014830D01*
X013538Y014815D01*
X013591Y014795D01*
X013643Y014772D01*
X013692Y014746D01*
X013740Y014716D01*
X013786Y014683D01*
X013829Y014647D01*
X013870Y014608D01*
X013907Y014566D01*
X013942Y014521D01*
X013973Y014475D01*
X014002Y014426D01*
X014026Y014375D01*
X014047Y014323D01*
X014065Y014269D01*
X014078Y014215D01*
X014088Y014159D01*
X014094Y014103D01*
X014096Y014047D01*
X014094Y013991D01*
X014088Y013935D01*
X014078Y013879D01*
X014065Y013825D01*
X014047Y013771D01*
X014026Y013719D01*
X014002Y013668D01*
X013973Y013619D01*
X013942Y013573D01*
X013907Y013528D01*
X013870Y013486D01*
X013829Y013447D01*
X013786Y013411D01*
X013740Y013378D01*
X013693Y013348D01*
X013643Y013322D01*
X013591Y013299D01*
X013538Y013279D01*
X013484Y013264D01*
X013429Y013252D01*
X013373Y013244D01*
X013317Y013240D01*
X013261Y013240D01*
X013205Y013244D01*
X013149Y013252D01*
X013094Y013264D01*
X013040Y013279D01*
X012987Y013299D01*
X012935Y013322D01*
X012885Y013348D01*
X012838Y013378D01*
X012792Y013411D01*
X012749Y013447D01*
X012708Y013486D01*
X012671Y013528D01*
X012636Y013573D01*
X012605Y013619D01*
X012576Y013668D01*
X012552Y013719D01*
X012531Y013771D01*
X012513Y013825D01*
X012500Y013879D01*
X012490Y013935D01*
X012484Y013991D01*
X012482Y014047D01*
D11*
X012504Y009805D02*
X012504Y009373D01*
X012792Y009373D01*
X012939Y009373D02*
X012939Y009805D01*
X013155Y009805D01*
X013227Y009733D01*
X013227Y009589D01*
X013155Y009517D01*
X012939Y009517D01*
X013083Y009517D02*
X013227Y009373D01*
X013240Y009011D02*
X013384Y008867D01*
X013528Y009011D01*
X013528Y008578D01*
X013675Y008650D02*
X013747Y008578D01*
X013891Y008578D01*
X013963Y008650D01*
X013963Y008939D01*
X013891Y009011D01*
X013747Y009011D01*
X013675Y008939D01*
X013675Y008650D01*
X014110Y008578D02*
X014110Y009011D01*
X014545Y009011D02*
X014689Y009011D01*
X014617Y009011D02*
X014617Y008578D01*
X014545Y008578D02*
X014689Y008578D01*
X014398Y008578D02*
X014110Y008578D01*
X013240Y008578D02*
X013240Y009011D01*
X013093Y009011D02*
X012949Y008867D01*
X012805Y009011D01*
X012805Y008578D01*
X012659Y008578D02*
X012515Y008578D01*
X012587Y008578D02*
X012587Y009011D01*
X012515Y009011D02*
X012659Y009011D01*
X012368Y009011D02*
X012080Y008722D01*
X012152Y008795D02*
X012368Y008578D01*
X012080Y008578D02*
X012080Y009011D01*
X012069Y009373D02*
X012069Y009805D01*
X011922Y009805D02*
X011634Y009805D01*
X011778Y009805D02*
X011778Y009373D01*
X011487Y009445D02*
X011487Y009733D01*
X011415Y009805D01*
X011271Y009805D01*
X011199Y009733D01*
X011199Y009445D01*
X011271Y009373D01*
X011415Y009373D01*
X011487Y009445D01*
X012069Y009589D02*
X012357Y009589D01*
X012504Y009589D02*
X012648Y009589D01*
X012792Y009805D02*
X012504Y009805D01*
X012357Y009805D02*
X012357Y009373D01*
X013093Y009011D02*
X013093Y008578D01*
X013809Y009373D02*
X013809Y009805D01*
X013809Y009589D02*
X014097Y009589D01*
X014244Y009589D02*
X014532Y009589D01*
X014532Y009661D02*
X014532Y009373D01*
X014679Y009373D02*
X014967Y009373D01*
X015114Y009373D02*
X015114Y009805D01*
X015402Y009805D01*
X015258Y009589D02*
X015114Y009589D01*
X014679Y009805D02*
X014679Y009373D01*
X014532Y009661D02*
X014388Y009805D01*
X014244Y009661D01*
X014244Y009373D01*
X014097Y009373D02*
X014097Y009805D01*
X015270Y008939D02*
X015342Y009011D01*
X015486Y009011D01*
X015558Y008939D01*
X015558Y008867D01*
X015270Y008578D01*
X015558Y008578D01*
X015705Y008650D02*
X015993Y008939D01*
X015993Y008650D01*
X015921Y008578D01*
X015777Y008578D01*
X015705Y008650D01*
X015705Y008939D01*
X015777Y009011D01*
X015921Y009011D01*
X015993Y008939D01*
X016140Y008867D02*
X016284Y009011D01*
X016284Y008578D01*
X016140Y008578D02*
X016428Y008578D01*
X016791Y008578D02*
X016791Y009011D01*
X016575Y008795D01*
X016863Y008795D01*
X016892Y009393D02*
X016820Y009393D01*
X016820Y009466D01*
X016892Y009466D01*
X016892Y009393D01*
X017038Y009393D02*
X017326Y009682D01*
X017326Y009754D01*
X017254Y009826D01*
X017110Y009826D01*
X017038Y009754D01*
X017038Y009393D02*
X017326Y009393D01*
X017473Y009466D02*
X017761Y009754D01*
X017761Y009466D01*
X017689Y009393D01*
X017545Y009393D01*
X017473Y009466D01*
X017473Y009754D01*
X017545Y009826D01*
X017689Y009826D01*
X017761Y009754D01*
X016674Y009393D02*
X016385Y009393D01*
X016530Y009393D02*
X016530Y009826D01*
X016385Y009682D01*
X016239Y009538D02*
X016239Y009826D01*
X015950Y009826D02*
X015950Y009538D01*
X016095Y009393D01*
X016239Y009538D01*
X011499Y008867D02*
X011499Y008722D01*
X011354Y008578D01*
X011208Y008650D02*
X011136Y008578D01*
X010992Y008578D01*
X010919Y008650D01*
X010919Y008939D01*
X010992Y009011D01*
X011136Y009011D01*
X011208Y008939D01*
X011354Y009011D02*
X011499Y008867D01*
X010774Y009011D02*
X010629Y008867D01*
X010629Y008722D01*
X010774Y008578D01*
X010473Y009373D02*
X010473Y009589D01*
X010617Y009733D01*
X010617Y009805D01*
X010473Y009589D02*
X010329Y009733D01*
X010329Y009805D01*
X010182Y009805D02*
X010182Y009373D01*
X009894Y009373D02*
X009894Y009805D01*
X010038Y009661D01*
X010182Y009805D01*
X013672Y006072D02*
X013908Y005718D01*
X013908Y006072D01*
X014034Y005954D02*
X014152Y006072D01*
X014152Y005718D01*
X014034Y005718D02*
X014270Y005718D01*
X013672Y005718D02*
X013672Y006072D01*
X009149Y004897D02*
X008913Y004897D01*
X009031Y004897D02*
X009031Y005251D01*
X008913Y005133D01*
X008786Y005192D02*
X008786Y004956D01*
X008727Y004897D01*
X008550Y004897D01*
X008550Y005251D01*
X008727Y005251D01*
X008786Y005192D01*
X006462Y005162D02*
X006462Y005221D01*
X006403Y005280D01*
X006285Y005280D01*
X006226Y005221D01*
X006099Y005221D02*
X006040Y005280D01*
X005863Y005280D01*
X005863Y004926D01*
X006040Y004926D01*
X006099Y004985D01*
X006099Y005221D01*
X006226Y004926D02*
X006462Y005162D01*
X006462Y004926D02*
X006226Y004926D01*
X014871Y002349D02*
X015107Y001995D01*
X015233Y001995D02*
X015469Y001995D01*
X015351Y001995D02*
X015351Y002349D01*
X015233Y002231D01*
X015107Y002349D02*
X014871Y001995D01*
D12*
X014518Y002022D02*
X014154Y001779D01*
X014518Y001779D01*
X014518Y001659D02*
X014154Y001659D01*
X014154Y001477D01*
X014215Y001417D01*
X014458Y001417D01*
X014518Y001477D01*
X014518Y001659D01*
X014518Y002022D02*
X014154Y002022D01*
X014215Y002142D02*
X014336Y002142D01*
X014336Y002263D01*
X014215Y002142D02*
X014154Y002202D01*
X014154Y002324D01*
X014215Y002384D01*
X014458Y002384D01*
X014518Y002324D01*
X014518Y002202D01*
X014458Y002142D01*
X013518Y001961D02*
X013518Y001840D01*
X013458Y001779D01*
X013397Y001779D01*
X013336Y001840D01*
X013276Y001779D01*
X013215Y001779D01*
X013154Y001840D01*
X013154Y001961D01*
X013215Y002022D01*
X013336Y002142D02*
X013336Y002384D01*
X013458Y002263D02*
X013215Y002263D01*
X013458Y002022D02*
X013518Y001961D01*
X013336Y001901D02*
X013336Y001840D01*
X013276Y001659D02*
X013154Y001538D01*
X013276Y001417D01*
X013518Y001417D01*
X013458Y001297D02*
X013518Y001236D01*
X013518Y001115D01*
X013458Y001054D01*
X013397Y001054D01*
X013336Y001115D01*
X013276Y001054D01*
X013215Y001054D01*
X013154Y001115D01*
X013154Y001236D01*
X013215Y001297D01*
X013336Y001176D02*
X013336Y001115D01*
X013276Y001659D02*
X013518Y001659D01*
X012568Y001659D02*
X012204Y001659D01*
X012204Y001417D01*
X012265Y001297D02*
X012204Y001236D01*
X012204Y001115D01*
X012265Y001054D01*
X012326Y001054D01*
X012386Y001115D01*
X012386Y001176D01*
X012386Y001115D02*
X012447Y001054D01*
X012508Y001054D01*
X012568Y001115D01*
X012568Y001236D01*
X012508Y001297D01*
X012568Y000934D02*
X012326Y000934D01*
X012204Y000813D01*
X012326Y000692D01*
X012568Y000692D01*
X012508Y000572D02*
X012568Y000511D01*
X012568Y000390D01*
X012508Y000329D01*
X012447Y000329D01*
X012386Y000390D01*
X012326Y000329D01*
X012265Y000329D01*
X012204Y000390D01*
X012204Y000511D01*
X012265Y000572D01*
X012386Y000451D02*
X012386Y000390D01*
X011518Y000390D02*
X011458Y000329D01*
X011397Y000329D01*
X011336Y000390D01*
X011276Y000329D01*
X011215Y000329D01*
X011154Y000390D01*
X011154Y000511D01*
X011215Y000572D01*
X011276Y000692D02*
X011518Y000692D01*
X011458Y000572D02*
X011518Y000511D01*
X011518Y000390D01*
X011336Y000390D02*
X011336Y000451D01*
X011276Y000692D02*
X011154Y000813D01*
X011276Y000934D01*
X011518Y000934D01*
X011458Y001054D02*
X011397Y001054D01*
X011336Y001115D01*
X011276Y001054D01*
X011215Y001054D01*
X011154Y001115D01*
X011154Y001236D01*
X011215Y001297D01*
X011154Y001417D02*
X011397Y001417D01*
X011518Y001538D01*
X011397Y001659D01*
X011154Y001659D01*
X011215Y001779D02*
X011458Y001779D01*
X011518Y001840D01*
X011518Y002022D01*
X011154Y002022D01*
X011154Y001840D01*
X011215Y001779D01*
X011336Y001659D02*
X011336Y001417D01*
X011458Y001297D02*
X011518Y001236D01*
X011518Y001115D01*
X011458Y001054D01*
X011336Y001115D02*
X011336Y001176D01*
X010518Y001236D02*
X010518Y001115D01*
X010458Y001054D01*
X010397Y001054D01*
X010336Y001115D01*
X010336Y001236D01*
X010397Y001297D01*
X010458Y001297D01*
X010518Y001236D01*
X010336Y001236D02*
X010276Y001297D01*
X010215Y001297D01*
X010154Y001236D01*
X010154Y001115D01*
X010215Y001054D01*
X010276Y001054D01*
X010336Y001115D01*
X010276Y001417D02*
X010518Y001417D01*
X010276Y001417D02*
X010154Y001538D01*
X010276Y001659D01*
X010518Y001659D01*
X010154Y001779D02*
X010154Y002022D01*
X010154Y001901D02*
X010518Y001901D01*
X010397Y002022D01*
X010336Y002142D02*
X010336Y002384D01*
X010458Y002263D02*
X010215Y002263D01*
X009518Y002263D02*
X009518Y002384D01*
X009518Y002324D02*
X009154Y002324D01*
X009154Y002384D02*
X009154Y002263D01*
X009154Y002143D02*
X009518Y002143D01*
X009154Y001900D01*
X009518Y001900D01*
X009518Y001780D02*
X009518Y001538D01*
X009518Y001418D02*
X009579Y001357D01*
X009458Y001236D01*
X009518Y001175D01*
X009518Y001659D02*
X009154Y001659D01*
X008518Y001659D02*
X008154Y001659D01*
X008154Y001417D01*
X008154Y001297D02*
X008154Y001054D01*
X008154Y001176D02*
X008518Y001176D01*
X008397Y001297D01*
X008276Y000934D02*
X008154Y000813D01*
X008276Y000692D01*
X008518Y000692D01*
X008458Y000572D02*
X008397Y000572D01*
X008336Y000511D01*
X008336Y000390D01*
X008276Y000329D01*
X008215Y000329D01*
X008154Y000390D01*
X008154Y000511D01*
X008215Y000572D01*
X008276Y000572D01*
X008336Y000511D01*
X008336Y000390D02*
X008397Y000329D01*
X008458Y000329D01*
X008518Y000390D01*
X008518Y000511D01*
X008458Y000572D01*
X008518Y000934D02*
X008276Y000934D01*
X007468Y000934D02*
X007226Y000934D01*
X007104Y000813D01*
X007226Y000692D01*
X007468Y000692D01*
X007408Y000572D02*
X007347Y000572D01*
X007286Y000511D01*
X007286Y000390D01*
X007226Y000329D01*
X007165Y000329D01*
X007104Y000390D01*
X007104Y000511D01*
X007165Y000572D01*
X007226Y000572D01*
X007286Y000511D01*
X007286Y000390D02*
X007347Y000329D01*
X007408Y000329D01*
X007468Y000390D01*
X007468Y000511D01*
X007408Y000572D01*
X007104Y001054D02*
X007104Y001297D01*
X007104Y001417D02*
X007347Y001417D01*
X007468Y001538D01*
X007347Y001659D01*
X007104Y001659D01*
X007165Y001779D02*
X007408Y001779D01*
X007468Y001840D01*
X007468Y002022D01*
X007104Y002022D01*
X007104Y001840D01*
X007165Y001779D01*
X007286Y001659D02*
X007286Y001417D01*
X007347Y001297D02*
X007468Y001176D01*
X007104Y001176D01*
X006468Y001236D02*
X006408Y001297D01*
X006165Y001297D01*
X006104Y001236D01*
X006104Y001115D01*
X006165Y001054D01*
X006286Y001054D01*
X006286Y001176D01*
X006408Y001054D02*
X006468Y001115D01*
X006468Y001236D01*
X006468Y001417D02*
X006104Y001417D01*
X006286Y001417D02*
X006286Y001659D01*
X006165Y001779D02*
X006104Y001840D01*
X006104Y001961D01*
X006165Y002022D01*
X006408Y002022D01*
X006468Y001961D01*
X006468Y001840D01*
X006408Y001779D01*
X006468Y001659D02*
X006104Y001659D01*
X005468Y001659D02*
X005468Y001477D01*
X005408Y001417D01*
X005165Y001417D01*
X005104Y001477D01*
X005104Y001659D01*
X005468Y001659D01*
X005468Y001779D02*
X005104Y001779D01*
X005468Y002022D01*
X005104Y002022D01*
X005165Y002142D02*
X005286Y002142D01*
X005286Y002263D01*
X005165Y002142D02*
X005104Y002202D01*
X005104Y002324D01*
X005165Y002384D01*
X005408Y002384D01*
X005468Y002324D01*
X005468Y002202D01*
X005408Y002142D01*
X006104Y002263D02*
X006226Y002142D01*
X006468Y002142D01*
X006468Y002384D02*
X006226Y002384D01*
X006104Y002263D01*
X007104Y002202D02*
X007165Y002142D01*
X007226Y002142D01*
X007286Y002202D01*
X007286Y002324D01*
X007347Y002384D01*
X007408Y002384D01*
X007468Y002324D01*
X007468Y002202D01*
X007408Y002142D01*
X007104Y002202D02*
X007104Y002324D01*
X007165Y002384D01*
X008154Y002324D02*
X008215Y002384D01*
X008154Y002324D02*
X008154Y002202D01*
X008215Y002142D01*
X008276Y002142D01*
X008336Y002202D01*
X008336Y002324D01*
X008397Y002384D01*
X008458Y002384D01*
X008518Y002324D01*
X008518Y002202D01*
X008458Y002142D01*
X008458Y002022D02*
X008215Y002022D01*
X008154Y001961D01*
X008154Y001840D01*
X008215Y001779D01*
X008458Y001779D02*
X008518Y001840D01*
X008518Y001961D01*
X008458Y002022D01*
X011154Y002202D02*
X011215Y002142D01*
X011276Y002142D01*
X011336Y002202D01*
X011336Y002324D01*
X011397Y002384D01*
X011458Y002384D01*
X011518Y002324D01*
X011518Y002202D01*
X011458Y002142D01*
X011154Y002202D02*
X011154Y002324D01*
X011215Y002384D01*
X012204Y002324D02*
X012265Y002384D01*
X012204Y002324D02*
X012204Y002202D01*
X012265Y002142D01*
X012326Y002142D01*
X012386Y002202D01*
X012386Y002324D01*
X012447Y002384D01*
X012508Y002384D01*
X012568Y002324D01*
X012568Y002202D01*
X012508Y002142D01*
X012508Y002022D02*
X012265Y002022D01*
X012204Y001961D01*
X012204Y001840D01*
X012265Y001779D01*
X012508Y001779D02*
X012568Y001840D01*
X012568Y001961D01*
X012508Y002022D01*
X015076Y003683D02*
X015319Y004047D01*
X015439Y003986D02*
X015500Y004047D01*
X015621Y004047D01*
X015682Y003986D01*
X015682Y003925D01*
X015439Y003683D01*
X015682Y003683D01*
X015319Y003683D02*
X015076Y004047D01*
X015692Y004527D02*
X015753Y004466D01*
X015874Y004466D01*
X015935Y004527D01*
X016055Y004466D02*
X016298Y004709D01*
X016298Y004770D01*
X016237Y004830D01*
X016116Y004830D01*
X016055Y004770D01*
X015935Y004770D02*
X015874Y004830D01*
X015753Y004830D01*
X015692Y004770D01*
X015692Y004527D01*
X016055Y004466D02*
X016298Y004466D01*
X016528Y005755D02*
X016649Y005755D01*
X016710Y005816D01*
X016830Y005755D02*
X017073Y005755D01*
X016951Y005755D02*
X016951Y006119D01*
X016830Y005998D01*
X016710Y006059D02*
X016649Y006119D01*
X016528Y006119D01*
X016467Y006059D01*
X016467Y005816D01*
X016528Y005755D01*
X013290Y005891D02*
X013047Y005891D01*
X012928Y005891D02*
X012806Y006012D01*
X012867Y006012D02*
X012685Y006012D01*
X012685Y005891D02*
X012685Y006255D01*
X012867Y006255D01*
X012928Y006194D01*
X012928Y006073D01*
X012867Y006012D01*
X013047Y006133D02*
X013169Y006255D01*
X013169Y005891D01*
X010840Y005860D02*
X010597Y005860D01*
X010840Y006103D01*
X010840Y006163D01*
X010779Y006224D01*
X010658Y006224D01*
X010597Y006163D01*
X010478Y006163D02*
X010478Y006042D01*
X010417Y005981D01*
X010235Y005981D01*
X010235Y005860D02*
X010235Y006224D01*
X010417Y006224D01*
X010478Y006163D01*
X010356Y005981D02*
X010478Y005860D01*
X010100Y006984D02*
X009979Y006984D01*
X009918Y007045D01*
X009798Y006984D02*
X009677Y007105D01*
X009738Y007105D02*
X009556Y007105D01*
X009556Y006984D02*
X009556Y007348D01*
X009738Y007348D01*
X009798Y007287D01*
X009798Y007166D01*
X009738Y007105D01*
X009918Y007287D02*
X009979Y007348D01*
X010100Y007348D01*
X010161Y007287D01*
X010161Y007227D01*
X010100Y007166D01*
X010161Y007105D01*
X010161Y007045D01*
X010100Y006984D01*
X010100Y007166D02*
X010039Y007166D01*
X010061Y007936D02*
X010061Y008301D01*
X009939Y008179D01*
X009819Y008118D02*
X009577Y008118D01*
X009577Y007936D02*
X009577Y008301D01*
X009819Y008301D02*
X009819Y007936D01*
X009939Y007936D02*
X010182Y007936D01*
X005652Y006963D02*
X005338Y006649D01*
X005495Y006649D02*
X005495Y006963D01*
X005338Y006963D02*
X005652Y006649D01*
X005652Y006806D02*
X005338Y006806D01*
D13*
X005264Y008341D02*
X005264Y008646D01*
X005163Y008748D01*
X005061Y008646D01*
X005061Y008341D01*
X004857Y008341D02*
X004857Y008748D01*
X004959Y008748D01*
X005061Y008646D01*
X005465Y008646D02*
X005465Y008442D01*
X005567Y008341D01*
X005770Y008341D01*
X005872Y008442D01*
X005872Y008646D01*
X005770Y008748D01*
X005567Y008748D01*
X005465Y008646D01*
X004657Y008646D02*
X004657Y008341D01*
X004351Y008341D01*
X004250Y008442D01*
X004351Y008544D01*
X004657Y008544D01*
X004657Y008646D02*
X004555Y008748D01*
X004351Y008748D01*
X004049Y008646D02*
X004049Y008341D01*
X003744Y008341D01*
X003642Y008442D01*
X003744Y008544D01*
X004049Y008544D01*
X004049Y008646D02*
X003947Y008748D01*
X003744Y008748D01*
X003441Y008748D02*
X003238Y008341D01*
X003034Y008748D01*
X002833Y008646D02*
X002833Y008544D01*
X002426Y008544D01*
X002426Y008442D02*
X002426Y008646D01*
X002528Y008748D01*
X002732Y008748D01*
X002833Y008646D01*
X002732Y008341D02*
X002528Y008341D01*
X002426Y008442D01*
X002226Y008442D02*
X002226Y008849D01*
X002124Y008951D01*
X001819Y008951D01*
X001819Y008341D01*
X002124Y008341D01*
X002226Y008442D01*
X007856Y006685D02*
X007974Y006567D01*
X008092Y006685D01*
X008591Y006919D02*
X009191Y006919D01*
X009191Y007419D02*
X008591Y007419D01*
X008626Y007835D02*
X009137Y007835D01*
X008941Y007953D02*
X008941Y008190D01*
X009137Y008308D02*
X008626Y008308D01*
X009374Y008229D02*
X009374Y007914D01*
X011067Y006355D02*
X011067Y005755D01*
X011567Y005755D02*
X011567Y006355D01*
X012048Y006355D02*
X012048Y005755D01*
X012548Y005755D02*
X012548Y006355D01*
X014852Y005145D02*
X015352Y005145D01*
X015352Y004645D02*
X014852Y004645D01*
X014805Y004468D02*
X014805Y003468D01*
X015127Y003043D02*
X015127Y002592D01*
X014977Y002592D02*
X015277Y002592D01*
X014977Y002892D02*
X015127Y003043D01*
X015869Y005698D02*
X015869Y006198D01*
X016369Y006198D02*
X016369Y005698D01*
X004805Y004468D02*
X004805Y003468D01*
X004427Y003017D02*
X004127Y002717D01*
X004202Y002642D01*
X004352Y002642D01*
X004427Y002717D01*
X004427Y003017D01*
X004352Y003093D01*
X004202Y003093D01*
X004127Y003017D01*
X004127Y002717D01*
X003967Y002642D02*
X003667Y002642D01*
X003817Y002642D02*
X003817Y003093D01*
X003667Y002942D01*
D14*
X003298Y003565D02*
X003058Y003735D01*
X002958Y003675D01*
X002768Y004125D01*
X002788Y004115D02*
X002988Y004315D01*
X002988Y004565D01*
X002838Y004815D01*
X002588Y004865D01*
X002288Y004765D01*
X002338Y004765D01*
X002188Y004515D01*
X002288Y004215D01*
X002388Y004115D01*
X002238Y003715D01*
X002138Y003765D01*
X001938Y003615D01*
X001788Y003765D01*
X001938Y004015D01*
X001838Y004265D01*
X001538Y004365D01*
X001538Y004315D01*
X001538Y004565D01*
X001838Y004615D01*
X001938Y004915D01*
X001738Y005115D01*
X001888Y005265D01*
X002188Y005115D01*
X002488Y005265D01*
X002438Y005265D01*
X002488Y005515D01*
X002738Y005515D01*
X002738Y005215D01*
X003038Y005115D01*
X003288Y005265D01*
X003438Y005165D01*
X003288Y004865D01*
X003388Y004615D01*
X003688Y004565D01*
X003688Y004315D01*
X003388Y004315D01*
X003288Y003965D01*
X003438Y003765D01*
X003288Y003615D01*
X003088Y003765D01*
X002988Y003715D01*
X002788Y004115D01*
X002800Y004127D02*
X003334Y004127D01*
X003318Y004069D02*
X002811Y004069D01*
X002840Y004010D02*
X003301Y004010D01*
X003318Y003995D02*
X003488Y003755D01*
X003298Y003565D01*
X003332Y003659D02*
X003228Y003659D01*
X003150Y003718D02*
X003391Y003718D01*
X003429Y003776D02*
X002957Y003776D01*
X002986Y003718D02*
X002994Y003718D01*
X002928Y003835D02*
X003385Y003835D01*
X003341Y003893D02*
X002898Y003893D01*
X002869Y003952D02*
X003297Y003952D01*
X003351Y004186D02*
X002859Y004186D01*
X002917Y004244D02*
X003368Y004244D01*
X003418Y004265D02*
X003718Y004315D01*
X003718Y004575D01*
X003418Y004635D01*
X003372Y004654D02*
X002934Y004654D01*
X002899Y004712D02*
X003349Y004712D01*
X003325Y004771D02*
X002864Y004771D01*
X002764Y004829D02*
X003302Y004829D01*
X003308Y004885D02*
X003488Y005145D01*
X003298Y005325D01*
X003038Y005145D01*
X003050Y005122D02*
X003416Y005122D01*
X003414Y005180D02*
X003147Y005180D01*
X003245Y005239D02*
X003327Y005239D01*
X003387Y005063D02*
X001789Y005063D01*
X001745Y005122D02*
X002173Y005122D01*
X002168Y005145D02*
X001908Y005325D01*
X001718Y005145D01*
X001898Y004885D01*
X001929Y004888D02*
X003299Y004888D01*
X003329Y004946D02*
X001906Y004946D01*
X001848Y005005D02*
X003358Y005005D01*
X003016Y005122D02*
X002202Y005122D01*
X002319Y005180D02*
X002841Y005180D01*
X002788Y005245D02*
X002738Y005565D01*
X002468Y005565D01*
X002418Y005245D01*
X002436Y005239D02*
X002738Y005239D01*
X002738Y005297D02*
X002444Y005297D01*
X002456Y005356D02*
X002738Y005356D01*
X002738Y005414D02*
X002468Y005414D01*
X002479Y005473D02*
X002738Y005473D01*
X002056Y005180D02*
X001803Y005180D01*
X001862Y005239D02*
X001939Y005239D01*
X001909Y004829D02*
X002482Y004829D01*
X002306Y004771D02*
X001890Y004771D01*
X001870Y004712D02*
X002306Y004712D01*
X002271Y004654D02*
X001851Y004654D01*
X001788Y004635D02*
X001488Y004575D01*
X001488Y004315D01*
X001788Y004265D01*
X001846Y004244D02*
X002278Y004244D01*
X002258Y004303D02*
X001723Y004303D01*
X001548Y004361D02*
X002239Y004361D01*
X002219Y004420D02*
X001538Y004420D01*
X001538Y004478D02*
X002200Y004478D01*
X002201Y004537D02*
X001538Y004537D01*
X001722Y004595D02*
X002236Y004595D01*
X002448Y004135D02*
X002415Y004153D01*
X002385Y004174D01*
X002356Y004198D01*
X002330Y004225D01*
X002308Y004254D01*
X002288Y004286D01*
X002271Y004319D01*
X002258Y004354D01*
X002249Y004390D01*
X002243Y004427D01*
X002241Y004464D01*
X002243Y004501D01*
X002248Y004538D01*
X002258Y004574D01*
X002270Y004609D01*
X002287Y004643D01*
X002306Y004674D01*
X002329Y004704D01*
X002355Y004731D01*
X002383Y004755D01*
X002414Y004776D01*
X002446Y004794D01*
X002480Y004809D01*
X002516Y004820D01*
X002552Y004828D01*
X002589Y004832D01*
X002627Y004832D01*
X002664Y004828D01*
X002700Y004820D01*
X002736Y004809D01*
X002770Y004794D01*
X002802Y004776D01*
X002833Y004755D01*
X002861Y004731D01*
X002887Y004704D01*
X002910Y004674D01*
X002929Y004643D01*
X002946Y004609D01*
X002958Y004574D01*
X002968Y004538D01*
X002973Y004501D01*
X002975Y004464D01*
X002973Y004427D01*
X002967Y004390D01*
X002958Y004354D01*
X002945Y004319D01*
X002928Y004286D01*
X002908Y004254D01*
X002886Y004225D01*
X002860Y004198D01*
X002831Y004174D01*
X002801Y004153D01*
X002768Y004135D01*
X002976Y004303D02*
X003384Y004303D01*
X003688Y004361D02*
X002988Y004361D01*
X002988Y004420D02*
X003688Y004420D01*
X003688Y004478D02*
X002988Y004478D01*
X002988Y004537D02*
X003688Y004537D01*
X003504Y004595D02*
X002969Y004595D01*
X003307Y004883D02*
X003336Y004836D01*
X003361Y004788D01*
X003383Y004738D01*
X003402Y004687D01*
X003417Y004635D01*
X003418Y004262D02*
X003408Y004215D01*
X003395Y004169D01*
X003380Y004124D01*
X003362Y004079D01*
X003341Y004036D01*
X003318Y003995D01*
X001892Y003998D02*
X001864Y004048D01*
X001840Y004100D01*
X001819Y004153D01*
X001802Y004208D01*
X001789Y004264D01*
X001869Y004186D02*
X002317Y004186D01*
X002375Y004127D02*
X001893Y004127D01*
X001916Y004069D02*
X002371Y004069D01*
X002349Y004010D02*
X001935Y004010D01*
X001888Y003995D02*
X001728Y003755D01*
X001908Y003565D01*
X002148Y003735D01*
X002248Y003675D01*
X002448Y004125D01*
X002327Y003952D02*
X001900Y003952D01*
X001865Y003893D02*
X002305Y003893D01*
X002283Y003835D02*
X001830Y003835D01*
X001795Y003776D02*
X002261Y003776D01*
X002239Y003718D02*
X002231Y003718D01*
X002075Y003718D02*
X001835Y003718D01*
X001893Y003659D02*
X001997Y003659D01*
X002171Y005148D02*
X002216Y005173D01*
X002263Y005196D01*
X002311Y005215D01*
X002360Y005232D01*
X002410Y005245D01*
X001899Y004880D02*
X001872Y004833D01*
X001848Y004786D01*
X001827Y004737D01*
X001809Y004686D01*
X001795Y004635D01*
X002793Y005247D02*
X002845Y005233D01*
X002896Y005216D01*
X002946Y005196D01*
X002995Y005173D01*
X003042Y005146D01*
X004813Y003217D02*
X005063Y003467D01*
X005563Y003467D01*
X005813Y003217D01*
X006063Y003467D01*
X006563Y003467D01*
X006813Y003217D01*
X007063Y003467D01*
X007563Y003467D01*
X007813Y003217D01*
X008063Y003467D01*
X008563Y003467D01*
X008813Y003217D01*
X009063Y003467D01*
X009563Y003467D01*
X009813Y003217D01*
X010063Y003467D01*
X010563Y003467D01*
X010813Y003217D01*
X011063Y003467D01*
X011563Y003467D01*
X011813Y003217D01*
X012063Y003467D01*
X012563Y003467D01*
X012813Y003217D01*
X013063Y003467D01*
X013563Y003467D01*
X013813Y003217D01*
X014063Y003467D01*
X014563Y003467D01*
X014813Y003217D01*
X014813Y002717D01*
X014563Y002467D01*
X014063Y002467D01*
X013813Y002717D01*
X013563Y002467D01*
X013063Y002467D01*
X012813Y002717D01*
X012563Y002467D01*
X012063Y002467D01*
X011813Y002717D01*
X011563Y002467D01*
X011063Y002467D01*
X010813Y002717D01*
X010563Y002467D01*
X010063Y002467D01*
X009813Y002717D01*
X009563Y002467D01*
X009063Y002467D01*
X008813Y002717D01*
X008563Y002467D01*
X008063Y002467D01*
X007813Y002717D01*
X007563Y002467D01*
X007063Y002467D01*
X006813Y002717D01*
X006563Y002467D01*
X006063Y002467D01*
X005813Y002717D01*
X005563Y002467D01*
X005063Y002467D01*
X004813Y002717D01*
X004813Y003217D01*
X005923Y005406D02*
X006403Y005406D01*
X006503Y005886D02*
X006503Y006146D01*
X006403Y006626D02*
X006283Y006626D01*
X006043Y006626D01*
X005923Y006626D01*
X008230Y006587D02*
X008720Y006587D01*
X008960Y006587D01*
X009450Y006587D01*
X008960Y006587D02*
X008958Y006566D01*
X008953Y006546D01*
X008944Y006527D01*
X008932Y006510D01*
X008917Y006495D01*
X008900Y006483D01*
X008881Y006474D01*
X008861Y006469D01*
X008840Y006467D01*
X008819Y006469D01*
X008799Y006474D01*
X008780Y006483D01*
X008763Y006495D01*
X008748Y006510D01*
X008736Y006527D01*
X008727Y006546D01*
X008722Y006566D01*
X008720Y006587D01*
X008230Y005367D02*
X009450Y005367D01*
X014482Y005798D02*
X014482Y006178D01*
X014842Y006178D01*
X015322Y006178D02*
X015682Y006178D01*
X015682Y005798D01*
X015212Y005618D02*
X014952Y005618D01*
D15*
X014567Y010285D03*
X014717Y010935D03*
X014717Y010985D03*
X014717Y011235D03*
X014467Y011635D03*
X014467Y011685D03*
X014417Y011785D03*
X013917Y011635D03*
X013867Y011735D03*
X013867Y011835D03*
X013867Y011885D03*
X013567Y011585D03*
X013517Y011485D03*
X013467Y011435D03*
X013067Y011435D03*
X013067Y011385D03*
X013067Y011335D03*
X013017Y010435D03*
X012917Y010435D03*
X012917Y010385D03*
X012967Y010285D03*
X013217Y010285D03*
X006630Y011874D03*
X004080Y011174D03*
X003180Y011124D03*
X001580Y009624D03*
X001480Y009624D03*
D16*
X002855Y012574D03*
X002855Y012924D03*
X006605Y011824D03*
X012742Y011435D03*
X012742Y011385D03*
X012742Y011335D03*
X012742Y011285D03*
X012742Y011235D03*
X012742Y011185D03*
X012742Y011135D03*
X012742Y011085D03*
X012792Y010985D03*
X012792Y010935D03*
X012792Y010885D03*
X012842Y010735D03*
X012892Y010635D03*
X012892Y010585D03*
X012942Y010335D03*
X013092Y010385D03*
X013642Y010885D03*
X014092Y010785D03*
X014142Y010835D03*
X014142Y010885D03*
X014142Y010935D03*
X014142Y010985D03*
X014142Y011035D03*
X014742Y011035D03*
X014742Y011085D03*
X014742Y011135D03*
X014742Y011185D03*
X014692Y011285D03*
X014692Y011335D03*
X014692Y011385D03*
X014692Y011435D03*
X014642Y011585D03*
X014592Y011685D03*
X014592Y011735D03*
X014542Y011785D03*
X014542Y011835D03*
X014442Y011735D03*
X014442Y011585D03*
X014392Y011535D03*
X013942Y011585D03*
X013892Y011685D03*
X013842Y011785D03*
X013892Y011935D03*
X013942Y011985D03*
X013992Y012035D03*
X014242Y012035D03*
X014342Y012185D03*
X014342Y012235D03*
X014292Y012285D03*
X014242Y012335D03*
X014092Y012435D03*
X014392Y012135D03*
X014442Y012035D03*
X013542Y011635D03*
X013542Y011535D03*
X013442Y011385D03*
X013392Y011335D03*
X013342Y011285D03*
X013142Y011285D03*
X013042Y011485D03*
X012792Y011535D03*
X012792Y011585D03*
X012842Y011735D03*
X012842Y011785D03*
X012992Y011985D03*
X013042Y012035D03*
X013092Y012085D03*
X013142Y012135D03*
X013192Y012185D03*
X013192Y012235D03*
X013092Y011735D03*
X014742Y010885D03*
X014742Y010835D03*
X014742Y010785D03*
X014742Y010735D03*
X014742Y010685D03*
X014692Y010635D03*
X014692Y010585D03*
X014692Y010535D03*
X014642Y010485D03*
X014642Y010435D03*
X014642Y010385D03*
X014592Y010335D03*
D17*
X013717Y010785D03*
X013667Y010835D03*
X013217Y011235D03*
X012767Y011035D03*
X012817Y010835D03*
X012817Y010785D03*
X012867Y010685D03*
X012917Y010535D03*
X012967Y010485D03*
X013167Y010335D03*
X012767Y011485D03*
X012817Y011635D03*
X012817Y011685D03*
X012867Y011835D03*
X012967Y011935D03*
X013167Y011785D03*
X013067Y011685D03*
X013467Y011735D03*
X013517Y011685D03*
X014017Y011535D03*
X014617Y011635D03*
X014667Y011535D03*
X014667Y011485D03*
X014467Y011985D03*
X014417Y012085D03*
X014117Y012135D03*
X014167Y012385D03*
X013267Y012285D03*
X006580Y011774D03*
X006580Y011724D03*
X006530Y011674D03*
X004880Y011224D03*
D18*
X005330Y011624D03*
X005330Y011674D03*
X005480Y011924D03*
X005530Y011974D03*
X005930Y011824D03*
X005930Y011774D03*
X005930Y011724D03*
X005880Y011674D03*
X005880Y011624D03*
X005830Y011574D03*
X005980Y011874D03*
X005980Y011924D03*
X005030Y012424D03*
X005080Y012574D03*
X004780Y012824D03*
X004880Y012974D03*
X004930Y013074D03*
X004980Y013124D03*
X004980Y013174D03*
X004680Y013324D03*
X004430Y012924D03*
X004380Y012824D03*
X004330Y012724D03*
X004330Y012674D03*
X004280Y012574D03*
X004580Y012574D03*
X004630Y012624D03*
X005530Y012724D03*
X005630Y012874D03*
X005680Y012974D03*
X005730Y013024D03*
X005730Y013074D03*
X005780Y013174D03*
X005780Y013574D03*
X003630Y012224D03*
X004080Y011874D03*
X004080Y011774D03*
X004030Y011674D03*
X004030Y011574D03*
X003680Y011724D03*
X003580Y011574D03*
X003530Y011524D03*
X003130Y011574D03*
X003130Y011624D03*
X003180Y011724D03*
X002880Y011874D03*
X002880Y011924D03*
X002880Y012074D03*
X002880Y012174D03*
X002830Y011774D03*
X002830Y011724D03*
X002830Y011674D03*
X002780Y011624D03*
X002780Y011574D03*
X002780Y011524D03*
X002730Y011474D03*
X002730Y011424D03*
X002530Y010974D03*
X002480Y010874D03*
X002180Y010974D03*
X002030Y010874D03*
X001980Y010824D03*
X001930Y010774D03*
X001880Y010724D03*
X001830Y010674D03*
X001780Y010624D03*
X001730Y010574D03*
X001680Y010524D03*
X001580Y010374D03*
X001480Y010174D03*
X001480Y010074D03*
X002880Y012624D03*
X006030Y011224D03*
X013367Y012335D03*
X013467Y012385D03*
X014117Y012085D03*
X014317Y011835D03*
X013917Y010685D03*
D19*
X013917Y010735D03*
X013867Y012485D03*
X006030Y011274D03*
X005480Y011324D03*
X005280Y011524D03*
X004930Y011324D03*
X004730Y011724D03*
X005030Y012224D03*
X005080Y012324D03*
X004330Y012424D03*
X004280Y012374D03*
X003630Y012124D03*
X003580Y011824D03*
X002630Y011274D03*
X001880Y010074D03*
X001580Y009724D03*
X004980Y013524D03*
X005730Y013474D03*
D20*
X005380Y013174D03*
X004980Y013574D03*
X005930Y012224D03*
X004980Y012124D03*
X005280Y011574D03*
X005480Y011274D03*
X004880Y011274D03*
X004430Y011524D03*
X004130Y012124D03*
X004180Y012174D03*
X003180Y011174D03*
X002330Y010624D03*
X002280Y010524D03*
X002230Y010474D03*
X002180Y010424D03*
X002180Y010374D03*
X002130Y010324D03*
X002080Y010274D03*
X014217Y011485D03*
D21*
X014242Y011985D03*
X013392Y011785D03*
X013092Y011635D03*
X013092Y011585D03*
X013092Y011535D03*
X012892Y011885D03*
X006505Y011624D03*
X006455Y011574D03*
X006405Y011524D03*
X005455Y011224D03*
X005355Y011724D03*
X005405Y011774D03*
X005405Y011824D03*
X005455Y011874D03*
X005305Y012424D03*
X005355Y012474D03*
X005405Y012524D03*
X005405Y012574D03*
X005455Y012624D03*
X005505Y012674D03*
X005555Y012774D03*
X005605Y012824D03*
X005655Y012924D03*
X004905Y013024D03*
X004855Y012924D03*
X004805Y012874D03*
X004755Y012774D03*
X004705Y012724D03*
X004655Y012674D03*
X004555Y012524D03*
X003705Y011774D03*
X003655Y011674D03*
X003605Y011624D03*
X003205Y011774D03*
X003205Y011824D03*
X003155Y011674D03*
X002855Y012224D03*
X002855Y012874D03*
X005005Y013624D03*
X001655Y010474D03*
X001605Y010424D03*
X001555Y010324D03*
X001505Y010274D03*
X001505Y010224D03*
X001455Y010124D03*
D22*
X001555Y009674D03*
X002305Y010574D03*
X002355Y010674D03*
X002405Y010724D03*
X002405Y010774D03*
X002455Y010824D03*
X002505Y010924D03*
X002105Y010924D03*
X002705Y011374D03*
X003155Y011524D03*
X002855Y011824D03*
X002905Y011974D03*
X002905Y012024D03*
X002855Y012124D03*
X002855Y012674D03*
X002855Y012724D03*
X002855Y012774D03*
X002855Y012824D03*
X004105Y011924D03*
X004055Y011824D03*
X004055Y011724D03*
X004055Y011624D03*
X004055Y011524D03*
X004105Y011224D03*
X004805Y011524D03*
X004855Y011874D03*
X004855Y011924D03*
X004905Y011974D03*
X004905Y012024D03*
X004955Y012074D03*
X005055Y012474D03*
X005055Y012524D03*
X005105Y012624D03*
X005105Y012674D03*
X005155Y012724D03*
X005155Y012774D03*
X005205Y012824D03*
X005205Y012874D03*
X005255Y012924D03*
X005255Y012974D03*
X005305Y013024D03*
X005305Y013074D03*
X005355Y013124D03*
X005405Y013224D03*
X005455Y013274D03*
X005755Y013124D03*
X005805Y013224D03*
X005805Y013274D03*
X005005Y013274D03*
X005005Y013224D03*
X005005Y013324D03*
X004655Y013274D03*
X004605Y013224D03*
X004555Y013174D03*
X004555Y013124D03*
X004505Y013074D03*
X004505Y013024D03*
X004455Y012974D03*
X004405Y012874D03*
X004355Y012774D03*
X004305Y012624D03*
X004255Y012524D03*
X006005Y011974D03*
X005805Y011524D03*
X006355Y011474D03*
X013292Y011835D03*
X013642Y012435D03*
D23*
X014342Y011935D03*
X014342Y011885D03*
X005755Y013524D03*
X005055Y012274D03*
X005005Y012174D03*
X004805Y011824D03*
X004805Y011774D03*
X004255Y012274D03*
X004255Y012324D03*
X004205Y012224D03*
X003655Y012174D03*
X004105Y011274D03*
X003205Y011224D03*
X002655Y011324D03*
X002055Y010224D03*
X002005Y010174D03*
X001955Y010124D03*
D24*
X001580Y009774D03*
X002430Y011074D03*
X002580Y011174D03*
X003230Y011324D03*
X004180Y011374D03*
X004680Y011624D03*
X005880Y012174D03*
X005680Y013374D03*
X004930Y013474D03*
D25*
X004905Y013424D03*
X005655Y013324D03*
X005855Y012124D03*
X006055Y011324D03*
X004655Y011574D03*
X004205Y011424D03*
X003305Y011424D03*
X003255Y011374D03*
X002405Y011024D03*
X001605Y009824D03*
D26*
X001630Y009874D03*
X003330Y011474D03*
X004230Y011474D03*
X005830Y012074D03*
X004880Y013374D03*
D27*
X005805Y012024D03*
X003555Y011924D03*
X003505Y011874D03*
X001655Y009924D03*
D28*
X001680Y009974D03*
D29*
X001705Y010024D03*
D30*
X002505Y011124D03*
X002605Y011224D03*
X003205Y011274D03*
X004155Y011324D03*
X004705Y011674D03*
X005105Y012374D03*
X004355Y012474D03*
X005705Y013424D03*
D31*
X005530Y011374D03*
D32*
X005555Y011424D03*
D33*
X005330Y011474D03*
D34*
X003730Y011974D03*
D35*
X003755Y012024D03*
D36*
X003780Y012074D03*
D37*
X006673Y009400D03*
X006925Y009038D03*
X006551Y008814D03*
X006492Y008849D03*
X006598Y008644D03*
X006488Y008581D03*
X006437Y008613D03*
X006531Y008341D03*
X006496Y008314D03*
X006610Y008294D03*
X006539Y008180D03*
X006905Y008349D03*
X006944Y008290D03*
X007326Y008329D03*
X007326Y008333D03*
X007326Y008384D03*
X007775Y008467D03*
X007807Y008392D03*
X007807Y008388D03*
X007807Y008384D03*
X007807Y008215D03*
X007807Y008211D03*
X007807Y008207D03*
X007807Y008203D03*
X007807Y008199D03*
X007807Y008196D03*
X007960Y008066D03*
X007815Y007955D03*
X007578Y007944D03*
X007602Y007786D03*
X007397Y007845D03*
X007055Y007928D03*
X006968Y007664D03*
X008035Y008436D03*
X008086Y008467D03*
X008035Y008696D03*
X007984Y008821D03*
X007559Y008762D03*
X007602Y009211D03*
X007606Y009412D03*
D38*
X007196Y009432D03*
X007815Y009054D03*
X007862Y008833D03*
X007807Y008810D03*
X007779Y008798D03*
X007771Y008794D03*
X007732Y008778D03*
X007681Y008755D03*
X007645Y008743D03*
X007559Y008774D03*
X007275Y008581D03*
X007118Y008514D03*
X007047Y008487D03*
X006937Y008440D03*
X006787Y008377D03*
X006740Y008353D03*
X006649Y008318D03*
X006531Y008184D03*
X006740Y008042D03*
X006956Y008270D03*
X007582Y007951D03*
X007582Y007947D03*
X007819Y007959D03*
X007397Y007696D03*
X006964Y007668D03*
X006598Y008636D03*
D39*
X006691Y008353D03*
X006698Y008318D03*
X006624Y008286D03*
X006580Y008184D03*
X006498Y008180D03*
X006659Y008014D03*
X006663Y008010D03*
X006903Y007920D03*
X007009Y007971D03*
X007013Y007668D03*
X007612Y007755D03*
X007856Y007955D03*
X007828Y007983D03*
X007887Y008081D03*
X007907Y008329D03*
X007990Y008479D03*
X007974Y008491D03*
X007694Y008743D03*
X007631Y008755D03*
X007612Y008747D03*
X007494Y008696D03*
X007474Y008688D03*
X007761Y008770D03*
X007954Y008818D03*
X007966Y008814D03*
X007828Y009184D03*
X007600Y009184D03*
X007498Y009184D03*
X007376Y009337D03*
X007486Y009436D03*
X007222Y009451D03*
X007139Y009306D03*
X007124Y009274D03*
X006832Y009408D03*
X006734Y009408D03*
X006691Y009392D03*
X006856Y009018D03*
X007041Y008463D03*
X006986Y008440D03*
X006836Y008377D03*
X007399Y008152D03*
D40*
X007641Y007975D03*
X007397Y007711D03*
X006968Y007672D03*
X006874Y008412D03*
X006870Y008416D03*
X007181Y008538D03*
X007472Y008660D03*
X007559Y008696D03*
X007582Y008719D03*
X007590Y008723D03*
X007756Y008782D03*
X007838Y008829D03*
X007811Y009199D03*
X007551Y009436D03*
X007283Y009377D03*
X007960Y008365D03*
X007960Y008073D03*
D41*
X007649Y007967D03*
X007397Y007719D03*
X006968Y007676D03*
X006535Y008321D03*
X006492Y008593D03*
X007547Y009192D03*
X007165Y009290D03*
X007165Y009444D03*
D42*
X007167Y009298D03*
X007301Y009373D03*
X007383Y009345D03*
X007549Y009196D03*
X007809Y009073D03*
X007813Y009077D03*
X007608Y008735D03*
X007553Y008688D03*
X007958Y008357D03*
X008037Y008455D03*
X006970Y007680D03*
X006757Y008050D03*
X006781Y009440D03*
D43*
X006785Y008979D03*
X006494Y008829D03*
X006616Y008314D03*
X006966Y007955D03*
X006966Y007684D03*
X008033Y008676D03*
X007549Y009428D03*
D44*
X007960Y008349D03*
X006968Y007692D03*
X006968Y007688D03*
D45*
X006866Y007731D03*
X006854Y007739D03*
X006854Y007743D03*
X006854Y007747D03*
X006846Y007759D03*
X006842Y007770D03*
X006838Y007778D03*
X006838Y007782D03*
X006834Y007794D03*
X006834Y007798D03*
X006834Y007837D03*
X006834Y007841D03*
X006838Y007853D03*
X006838Y007857D03*
X006842Y007865D03*
X006842Y007869D03*
X006846Y007877D03*
X006846Y007881D03*
X006850Y007884D03*
X006854Y007888D03*
X006854Y007892D03*
X006858Y007896D03*
X006968Y007975D03*
X006964Y007987D03*
X006964Y007991D03*
X006964Y007995D03*
X006964Y007999D03*
X006964Y008003D03*
X006964Y008007D03*
X006960Y008014D03*
X006960Y008018D03*
X006960Y008022D03*
X006960Y008026D03*
X006956Y008046D03*
X006956Y008050D03*
X006956Y008058D03*
X006956Y008062D03*
X006956Y008066D03*
X006948Y008113D03*
X006948Y008117D03*
X006944Y008144D03*
X006944Y008148D03*
X006944Y008152D03*
X006944Y008156D03*
X006944Y008160D03*
X006941Y008184D03*
X006941Y008188D03*
X006937Y008211D03*
X006937Y008215D03*
X006937Y008219D03*
X006933Y008247D03*
X006933Y008251D03*
X006933Y008259D03*
X006917Y008381D03*
X006917Y008384D03*
X006905Y008479D03*
X006901Y008507D03*
X006901Y008510D03*
X006901Y008514D03*
X006897Y008546D03*
X006897Y008550D03*
X006893Y008570D03*
X006893Y008573D03*
X006893Y008577D03*
X006889Y008597D03*
X006889Y008601D03*
X006889Y008605D03*
X006889Y008617D03*
X006885Y008636D03*
X006885Y008640D03*
X006885Y008644D03*
X006885Y008648D03*
X006885Y008652D03*
X006881Y008660D03*
X006881Y008664D03*
X006878Y008715D03*
X006878Y008719D03*
X006874Y008727D03*
X006874Y008731D03*
X006874Y008735D03*
X006874Y008739D03*
X006874Y008743D03*
X006874Y008747D03*
X006870Y008755D03*
X006870Y008759D03*
X006870Y008762D03*
X006870Y008766D03*
X006870Y008770D03*
X006870Y008774D03*
X006866Y008786D03*
X006866Y008790D03*
X006866Y008806D03*
X006866Y008810D03*
X006862Y008825D03*
X006862Y008829D03*
X006862Y008833D03*
X006862Y008837D03*
X006862Y008841D03*
X006858Y008853D03*
X006858Y008857D03*
X006858Y008861D03*
X006854Y008881D03*
X006854Y008884D03*
X006854Y008888D03*
X006854Y008900D03*
X006854Y008904D03*
X006850Y008920D03*
X006850Y008924D03*
X006850Y008928D03*
X006850Y008932D03*
X006846Y008951D03*
X006846Y008955D03*
X006846Y008959D03*
X006960Y008999D03*
X006972Y008979D03*
X006976Y008967D03*
X006988Y008947D03*
X007000Y008928D03*
X007039Y008861D03*
X007051Y008841D03*
X007059Y008825D03*
X007070Y008802D03*
X007074Y008798D03*
X007082Y008782D03*
X007082Y008778D03*
X007094Y008762D03*
X007094Y008759D03*
X007106Y008743D03*
X007106Y008739D03*
X007118Y008723D03*
X007118Y008719D03*
X007130Y008703D03*
X007130Y008699D03*
X007130Y008696D03*
X007133Y008692D03*
X007137Y008688D03*
X007165Y008640D03*
X007169Y008633D03*
X007181Y008609D03*
X007185Y008605D03*
X007193Y008589D03*
X007196Y008585D03*
X007228Y008534D03*
X007228Y008530D03*
X007232Y008522D03*
X007232Y008518D03*
X007248Y008495D03*
X007259Y008479D03*
X007259Y008475D03*
X007259Y008471D03*
X007263Y008467D03*
X007271Y008455D03*
X007271Y008451D03*
X007279Y008440D03*
X007283Y008436D03*
X007287Y008424D03*
X007295Y008416D03*
X007295Y008412D03*
X007299Y008404D03*
X007307Y008396D03*
X007358Y008408D03*
X007370Y008428D03*
X007381Y008447D03*
X007385Y008455D03*
X007421Y008514D03*
X007567Y008538D03*
X007567Y008542D03*
X007567Y008546D03*
X007563Y008601D03*
X007606Y008680D03*
X007673Y008593D03*
X007673Y008589D03*
X007704Y008550D03*
X007724Y008518D03*
X007748Y008487D03*
X007791Y008487D03*
X007791Y008491D03*
X007791Y008495D03*
X007791Y008499D03*
X007791Y008503D03*
X007791Y008507D03*
X007791Y008510D03*
X007791Y008514D03*
X007791Y008526D03*
X007791Y008530D03*
X007791Y008534D03*
X007791Y008538D03*
X007791Y008542D03*
X007791Y008546D03*
X007791Y008550D03*
X007791Y008554D03*
X007791Y008558D03*
X007791Y008562D03*
X007791Y008566D03*
X007795Y008629D03*
X007795Y008633D03*
X007795Y008636D03*
X007795Y008640D03*
X007795Y008644D03*
X007795Y008648D03*
X007795Y008652D03*
X007795Y008656D03*
X007795Y008660D03*
X007795Y008664D03*
X007933Y008613D03*
X007937Y008617D03*
X007937Y008621D03*
X007925Y008554D03*
X007925Y008542D03*
X007929Y008530D03*
X007929Y008526D03*
X007937Y008514D03*
X007948Y008491D03*
X007960Y008377D03*
X007846Y008294D03*
X007842Y008290D03*
X007838Y008282D03*
X007838Y008278D03*
X007834Y008274D03*
X007834Y008270D03*
X007830Y008180D03*
X007830Y008176D03*
X007834Y008172D03*
X007834Y008164D03*
X007838Y008160D03*
X007842Y008152D03*
X007850Y008140D03*
X007787Y008140D03*
X007787Y008136D03*
X007787Y008133D03*
X007787Y008129D03*
X007787Y008125D03*
X007787Y008121D03*
X007787Y008117D03*
X007787Y008144D03*
X007787Y008148D03*
X007787Y008152D03*
X007787Y008156D03*
X007787Y008160D03*
X007783Y008030D03*
X007775Y008018D03*
X007775Y007999D03*
X007775Y007995D03*
X007779Y007987D03*
X007728Y007928D03*
X007732Y007920D03*
X007736Y007912D03*
X007740Y007908D03*
X007744Y007896D03*
X007744Y007841D03*
X007736Y007829D03*
X007736Y007825D03*
X007736Y007821D03*
X007649Y007751D03*
X007563Y007818D03*
X007563Y007821D03*
X007559Y007825D03*
X007559Y007829D03*
X007555Y007837D03*
X007551Y007853D03*
X007551Y007857D03*
X007551Y007869D03*
X007551Y007881D03*
X007555Y007896D03*
X007555Y007900D03*
X007559Y007904D03*
X007559Y007908D03*
X007559Y007912D03*
X007563Y007920D03*
X007567Y007924D03*
X007547Y007971D03*
X007539Y007987D03*
X007527Y008007D03*
X007511Y008034D03*
X007504Y008050D03*
X007492Y008070D03*
X007480Y008089D03*
X007468Y008109D03*
X007448Y008144D03*
X007413Y008203D03*
X007401Y008219D03*
X007401Y008223D03*
X007378Y008266D03*
X007370Y008274D03*
X007370Y008278D03*
X007370Y008286D03*
X007358Y008298D03*
X007358Y008302D03*
X007358Y008306D03*
X007354Y008310D03*
X007303Y008314D03*
X007295Y008302D03*
X007275Y008270D03*
X007236Y008207D03*
X007228Y008192D03*
X007141Y008046D03*
X007137Y008038D03*
X007137Y008034D03*
X007130Y008026D03*
X007130Y008022D03*
X007122Y008014D03*
X007118Y008007D03*
X007110Y007995D03*
X007110Y007991D03*
X007106Y007987D03*
X007102Y007979D03*
X007102Y007975D03*
X007094Y007967D03*
X007094Y007963D03*
X007086Y007955D03*
X007086Y007951D03*
X007082Y007947D03*
X007090Y007877D03*
X007094Y007869D03*
X007098Y007861D03*
X007098Y007857D03*
X007098Y007853D03*
X007102Y007841D03*
X007102Y007837D03*
X007102Y007833D03*
X007102Y007802D03*
X007102Y007798D03*
X007102Y007794D03*
X007102Y007790D03*
X007098Y007782D03*
X007098Y007778D03*
X007094Y007766D03*
X007086Y007751D03*
X007078Y007735D03*
X007338Y007751D03*
X007338Y007755D03*
X007342Y007739D03*
X007346Y007735D03*
X007338Y007786D03*
X007342Y007798D03*
X007342Y007802D03*
X007448Y007806D03*
X007456Y007794D03*
X007456Y007743D03*
X007452Y007739D03*
X007452Y007735D03*
X007397Y007688D03*
X007598Y008014D03*
X007598Y008018D03*
X007598Y008022D03*
X007594Y008081D03*
X007594Y008085D03*
X007594Y008097D03*
X007594Y008101D03*
X007594Y008105D03*
X007590Y008148D03*
X007590Y008152D03*
X007590Y008156D03*
X007590Y008160D03*
X007582Y008255D03*
X007582Y008259D03*
X007582Y008262D03*
X007582Y008266D03*
X007582Y008270D03*
X007582Y008274D03*
X007582Y008278D03*
X007582Y008282D03*
X007578Y008329D03*
X007578Y008333D03*
X007578Y008337D03*
X007578Y008341D03*
X007574Y008388D03*
X007574Y008392D03*
X007574Y008396D03*
X007574Y008400D03*
X007574Y008404D03*
X007574Y008408D03*
X007574Y008412D03*
X007570Y008483D03*
X007570Y008487D03*
X007787Y008432D03*
X008082Y008278D03*
X008086Y008274D03*
X008090Y008262D03*
X008090Y008259D03*
X008094Y008247D03*
X008094Y008243D03*
X008094Y008196D03*
X008094Y008192D03*
X008090Y008184D03*
X008090Y008180D03*
X008090Y008176D03*
X008086Y008172D03*
X008086Y008168D03*
X008086Y008164D03*
X008082Y008160D03*
X008078Y008152D03*
X007858Y008026D03*
X007858Y008022D03*
X007858Y008018D03*
X007858Y008014D03*
X007858Y007999D03*
X007858Y007995D03*
X007858Y007991D03*
X008126Y008499D03*
X008130Y008503D03*
X008133Y008514D03*
X008145Y008534D03*
X008145Y008538D03*
X008141Y008605D03*
X008141Y008609D03*
X008137Y008613D03*
X008137Y008617D03*
X008035Y008699D03*
X008019Y008853D03*
X008019Y008857D03*
X008023Y008861D03*
X008023Y008865D03*
X008023Y008888D03*
X008023Y008892D03*
X008019Y008900D03*
X007988Y008936D03*
X007948Y008900D03*
X007944Y008896D03*
X007941Y008892D03*
X007937Y008877D03*
X007799Y008877D03*
X007799Y008881D03*
X007799Y008884D03*
X007799Y008888D03*
X007799Y008892D03*
X007799Y008896D03*
X007799Y008904D03*
X007799Y008908D03*
X007799Y008912D03*
X007799Y008916D03*
X007799Y008920D03*
X007799Y008924D03*
X007799Y008928D03*
X007799Y008873D03*
X007799Y008869D03*
X007673Y008932D03*
X007669Y008928D03*
X007677Y008940D03*
X007677Y008944D03*
X007685Y008951D03*
X007685Y008955D03*
X007689Y008959D03*
X007693Y008963D03*
X007696Y008971D03*
X007704Y008987D03*
X007708Y008991D03*
X007712Y008999D03*
X007712Y009003D03*
X007720Y009010D03*
X007720Y009014D03*
X007728Y009022D03*
X007732Y009030D03*
X007736Y009034D03*
X007744Y009050D03*
X007759Y009089D03*
X007752Y009101D03*
X007748Y009113D03*
X007748Y009152D03*
X007748Y009156D03*
X007752Y009164D03*
X007752Y009168D03*
X007756Y009176D03*
X007870Y009176D03*
X007874Y009168D03*
X007874Y009164D03*
X007878Y009160D03*
X007878Y009156D03*
X007878Y009109D03*
X007870Y009093D03*
X007645Y009243D03*
X007649Y009251D03*
X007653Y009259D03*
X007657Y009266D03*
X007657Y009270D03*
X007661Y009274D03*
X007661Y009278D03*
X007665Y009290D03*
X007665Y009294D03*
X007665Y009306D03*
X007665Y009310D03*
X007665Y009314D03*
X007665Y009318D03*
X007665Y009329D03*
X007665Y009333D03*
X007661Y009345D03*
X007661Y009349D03*
X007661Y009353D03*
X007657Y009357D03*
X007657Y009361D03*
X007653Y009365D03*
X007653Y009369D03*
X007641Y009388D03*
X007559Y009447D03*
X007448Y009373D03*
X007437Y009278D03*
X007441Y009270D03*
X007441Y009266D03*
X007444Y009262D03*
X007444Y009259D03*
X007448Y009251D03*
X007531Y009168D03*
X007531Y009164D03*
X007531Y009160D03*
X007531Y009156D03*
X007535Y009113D03*
X007535Y009109D03*
X007535Y009105D03*
X007535Y009101D03*
X007535Y009097D03*
X007539Y009050D03*
X007539Y009046D03*
X007539Y009034D03*
X007539Y009022D03*
X007539Y009018D03*
X007539Y009014D03*
X007543Y008971D03*
X007543Y008967D03*
X007543Y008963D03*
X007543Y008959D03*
X007543Y008955D03*
X007543Y008951D03*
X007547Y008916D03*
X007547Y008912D03*
X007547Y008908D03*
X007547Y008904D03*
X007547Y008900D03*
X007547Y008896D03*
X007547Y008892D03*
X007551Y008857D03*
X007551Y008853D03*
X007551Y008849D03*
X007551Y008845D03*
X007551Y008841D03*
X007551Y008829D03*
X007551Y008825D03*
X007551Y008821D03*
X007551Y008818D03*
X007598Y008806D03*
X007602Y008814D03*
X007610Y008825D03*
X007614Y008833D03*
X007618Y008841D03*
X007622Y008845D03*
X007626Y008853D03*
X007626Y008857D03*
X007633Y008869D03*
X007637Y008873D03*
X007641Y008881D03*
X007649Y008892D03*
X007653Y008900D03*
X007657Y008904D03*
X007661Y008912D03*
X007488Y008845D03*
X007456Y008888D03*
X007354Y009022D03*
X007334Y009054D03*
X007322Y009066D03*
X006992Y009156D03*
X006992Y009160D03*
X006992Y009164D03*
X006996Y009184D03*
X006996Y009188D03*
X006996Y009192D03*
X006996Y009227D03*
X006996Y009231D03*
X006996Y009235D03*
X006992Y009255D03*
X006992Y009259D03*
X006992Y009262D03*
X006988Y009274D03*
X006988Y009278D03*
X006980Y009294D03*
X006976Y009306D03*
X006972Y009314D03*
X006968Y009321D03*
X006964Y009325D03*
X007086Y009341D03*
X007098Y009318D03*
X007102Y009314D03*
X007106Y009310D03*
X007086Y009392D03*
X007102Y009420D03*
X007236Y009408D03*
X007236Y009404D03*
X007240Y009396D03*
X007244Y009381D03*
X007240Y009337D03*
X007200Y009231D03*
X006988Y009144D03*
X006988Y009140D03*
X006984Y009129D03*
X006980Y009125D03*
X006980Y009121D03*
X006976Y009113D03*
X006972Y009105D03*
X006968Y009097D03*
X006602Y009093D03*
X006598Y009097D03*
X006598Y009101D03*
X006594Y009105D03*
X006590Y009113D03*
X006590Y009117D03*
X006582Y009125D03*
X006578Y009144D03*
X006574Y009156D03*
X006570Y009172D03*
X006570Y009176D03*
X006570Y009180D03*
X006570Y009184D03*
X006570Y009188D03*
X006570Y009231D03*
X006570Y009235D03*
X006570Y009239D03*
X006570Y009243D03*
X006570Y009247D03*
X006574Y009259D03*
X006574Y009262D03*
X006578Y009274D03*
X006582Y009286D03*
X006582Y009290D03*
X006582Y009294D03*
X006586Y009302D03*
X006590Y009310D03*
X006594Y009314D03*
X006598Y009325D03*
X006602Y009329D03*
X006606Y009333D03*
X006606Y009337D03*
X006626Y009361D03*
X006594Y008766D03*
X006602Y008755D03*
X006602Y008751D03*
X006606Y008739D03*
X006606Y008735D03*
X006606Y008692D03*
X006606Y008688D03*
X006602Y008676D03*
X006602Y008672D03*
X006602Y008668D03*
X006496Y008570D03*
X006496Y008566D03*
X006500Y008546D03*
X006500Y008542D03*
X006500Y008538D03*
X006500Y008534D03*
X006504Y008510D03*
X006507Y008491D03*
X006507Y008487D03*
X006511Y008467D03*
X006511Y008463D03*
X006511Y008459D03*
X006511Y008455D03*
X006515Y008432D03*
X006519Y008412D03*
X006519Y008408D03*
X006523Y008388D03*
X006523Y008377D03*
X006523Y008373D03*
X006527Y008353D03*
X006472Y008298D03*
X006468Y008290D03*
X006464Y008274D03*
X006464Y008270D03*
X006464Y008266D03*
X006464Y008255D03*
X006464Y008251D03*
X006468Y008235D03*
X006472Y008223D03*
X006586Y008219D03*
X006590Y008223D03*
X006594Y008227D03*
X006594Y008231D03*
X006602Y008266D03*
X006598Y008278D03*
X006598Y008286D03*
X006641Y008046D03*
X006637Y008038D03*
X006637Y008030D03*
X006637Y008022D03*
X006708Y008014D03*
X006393Y008648D03*
X006389Y008656D03*
X006389Y008660D03*
X006378Y008688D03*
X006378Y008692D03*
X006378Y008739D03*
X006378Y008743D03*
X006381Y008755D03*
X006385Y008759D03*
X006385Y008762D03*
X006385Y008766D03*
X006397Y008778D03*
X006397Y008782D03*
D46*
X006429Y008617D03*
X006563Y008621D03*
X006598Y008648D03*
X006661Y009026D03*
X006893Y009018D03*
X006905Y009392D03*
X006897Y009396D03*
X007165Y009463D03*
X007484Y009215D03*
X007771Y009188D03*
X007925Y008865D03*
X007968Y008656D03*
X007779Y008459D03*
X007779Y008455D03*
X007803Y008400D03*
X007803Y008396D03*
X008035Y008333D03*
X007881Y008109D03*
X007704Y007790D03*
X007397Y007692D03*
X007358Y007723D03*
X007039Y007703D03*
X006897Y007703D03*
X006893Y007932D03*
X007059Y007924D03*
X007165Y008066D03*
X006941Y008298D03*
X006909Y008341D03*
X006606Y008290D03*
X006535Y008176D03*
X006673Y008077D03*
X007330Y008377D03*
X007559Y008759D03*
D47*
X007850Y008589D03*
X007267Y008148D03*
X007630Y007955D03*
X006968Y007696D03*
X006783Y009432D03*
D48*
X006687Y009408D03*
X006883Y009404D03*
X006923Y009034D03*
X006883Y009014D03*
X006781Y008971D03*
X006683Y009014D03*
X006545Y008818D03*
X006596Y008640D03*
X006903Y008353D03*
X006946Y008286D03*
X007155Y008093D03*
X006907Y007940D03*
X006903Y007936D03*
X006907Y007699D03*
X007029Y007699D03*
X007368Y007818D03*
X007395Y007841D03*
X007694Y007786D03*
X007805Y008066D03*
X007895Y008101D03*
X007809Y008192D03*
X007876Y008333D03*
X008025Y008337D03*
X007986Y008467D03*
X007773Y008471D03*
X007773Y008475D03*
X007557Y008766D03*
X007533Y008802D03*
X007494Y009211D03*
X007419Y009337D03*
X007490Y009412D03*
X007813Y009215D03*
X007844Y009188D03*
X008025Y008101D03*
X006675Y008073D03*
D49*
X006677Y008003D03*
X006681Y008329D03*
X006689Y008333D03*
X006708Y008341D03*
X006763Y008365D03*
X006838Y008396D03*
X006846Y008400D03*
X006909Y008428D03*
X006921Y008432D03*
X006976Y008455D03*
X006984Y008459D03*
X007004Y008467D03*
X007023Y008475D03*
X007031Y008479D03*
X007059Y008491D03*
X007078Y008499D03*
X007086Y008503D03*
X007098Y008507D03*
X007133Y008522D03*
X007216Y008558D03*
X007283Y008585D03*
X007291Y008589D03*
X007299Y008593D03*
X007311Y008597D03*
X007319Y008601D03*
X007346Y008613D03*
X007354Y008617D03*
X007559Y008782D03*
X007641Y008739D03*
X007669Y008751D03*
X007689Y008759D03*
X007696Y008762D03*
X007984Y008833D03*
X007984Y008920D03*
X008035Y008692D03*
X007964Y008369D03*
X007885Y008337D03*
X007799Y008251D03*
X007815Y008054D03*
X007819Y007963D03*
X007960Y008070D03*
X007397Y007837D03*
X007397Y007699D03*
X006598Y008633D03*
X006492Y008845D03*
X006704Y009007D03*
X006708Y009003D03*
X006862Y009007D03*
X007547Y009444D03*
D50*
X007813Y009207D03*
X007982Y008908D03*
X007982Y008841D03*
X007915Y008853D03*
X007761Y008786D03*
X007572Y008711D03*
X007238Y008570D03*
X006946Y008447D03*
X006494Y008585D03*
X007399Y007833D03*
X007399Y007703D03*
X007817Y007971D03*
X007163Y009282D03*
X007163Y009451D03*
D51*
X007120Y009432D03*
X006915Y009384D03*
X006911Y009388D03*
X006671Y009022D03*
X006655Y009030D03*
X006651Y009034D03*
X006561Y008810D03*
X006565Y008806D03*
X006431Y008814D03*
X006494Y008577D03*
X006911Y008337D03*
X007155Y008085D03*
X007163Y008070D03*
X006887Y007928D03*
X006891Y007707D03*
X007045Y007707D03*
X007387Y007849D03*
X007439Y007723D03*
X007592Y007790D03*
X007572Y007940D03*
X007698Y007951D03*
X008041Y008109D03*
X008045Y008113D03*
X008045Y008325D03*
X008041Y008329D03*
X008096Y008471D03*
X008104Y008475D03*
X007966Y008475D03*
X007915Y008577D03*
X007962Y008652D03*
X008104Y008656D03*
X007781Y008451D03*
X007801Y008404D03*
X007872Y008329D03*
X007328Y008373D03*
X007324Y008337D03*
X007612Y009215D03*
X007620Y009219D03*
X007624Y009404D03*
D52*
X007549Y009440D03*
X007813Y009203D03*
X007982Y008904D03*
X007557Y008798D03*
X007576Y008715D03*
X007557Y008699D03*
X007521Y008684D03*
X007478Y008664D03*
X008037Y008444D03*
X007817Y007975D03*
X007399Y007829D03*
X007399Y007707D03*
X006533Y008192D03*
X006828Y008388D03*
X006876Y008408D03*
D53*
X006913Y008333D03*
X006941Y008302D03*
X007326Y008341D03*
X007326Y008369D03*
X007157Y008081D03*
X007059Y007920D03*
X006881Y007924D03*
X006885Y007711D03*
X007051Y007711D03*
X007437Y007818D03*
X007441Y007814D03*
X007586Y007794D03*
X007712Y007794D03*
X007712Y007944D03*
X007708Y007947D03*
X007574Y007936D03*
X007846Y007979D03*
X007870Y008117D03*
X007874Y008325D03*
X008051Y008321D03*
X008110Y008652D03*
X007929Y008869D03*
X007811Y009050D03*
X007771Y009081D03*
X007858Y009081D03*
X007630Y009227D03*
X007480Y009219D03*
X007212Y009306D03*
X007118Y009302D03*
X006925Y009377D03*
X006921Y009381D03*
X006657Y009388D03*
X006657Y009392D03*
X006653Y009384D03*
X006645Y009038D03*
X006574Y008798D03*
X006429Y008810D03*
X006421Y008806D03*
X006413Y008629D03*
X006421Y008621D03*
X006567Y008625D03*
X006598Y008652D03*
X006929Y009042D03*
X007559Y008755D03*
X007559Y008751D03*
X006578Y008211D03*
X006673Y007979D03*
X007476Y009404D03*
D54*
X007470Y009400D03*
X007466Y009396D03*
X007631Y009396D03*
X007635Y009392D03*
X007214Y009428D03*
X007112Y009428D03*
X006935Y009369D03*
X006927Y009373D03*
X006639Y009377D03*
X006635Y009373D03*
X006631Y009369D03*
X006628Y009058D03*
X006631Y009054D03*
X006643Y009042D03*
X006572Y008802D03*
X006415Y008802D03*
X006411Y008798D03*
X006419Y008625D03*
X006624Y008629D03*
X006628Y008625D03*
X006639Y008613D03*
X006647Y008605D03*
X006651Y008601D03*
X006655Y008597D03*
X006659Y008593D03*
X006663Y008589D03*
X006667Y008585D03*
X006671Y008581D03*
X006675Y008577D03*
X006679Y008573D03*
X006683Y008570D03*
X006687Y008566D03*
X006691Y008562D03*
X006694Y008558D03*
X006698Y008554D03*
X006718Y008534D03*
X006722Y008530D03*
X006726Y008526D03*
X006730Y008522D03*
X006750Y008499D03*
X006754Y008495D03*
X006757Y008491D03*
X006761Y008487D03*
X006765Y008483D03*
X006769Y008479D03*
X006773Y008475D03*
X006777Y008471D03*
X006781Y008467D03*
X006785Y008463D03*
X006789Y008459D03*
X006793Y008455D03*
X006797Y008451D03*
X006805Y008444D03*
X006817Y008432D03*
X006820Y008428D03*
X006824Y008424D03*
X006868Y008377D03*
X006872Y008373D03*
X006915Y008329D03*
X006919Y008325D03*
X006923Y008321D03*
X006927Y008318D03*
X006931Y008314D03*
X006935Y008310D03*
X006939Y008306D03*
X006982Y008259D03*
X006994Y008247D03*
X006998Y008243D03*
X007021Y008219D03*
X007025Y008215D03*
X007029Y008211D03*
X007033Y008207D03*
X007037Y008203D03*
X007041Y008199D03*
X007045Y008196D03*
X007049Y008192D03*
X007053Y008188D03*
X007057Y008184D03*
X007061Y008180D03*
X007065Y008176D03*
X007069Y008172D03*
X007072Y008168D03*
X007076Y008164D03*
X007080Y008160D03*
X007084Y008156D03*
X007159Y008077D03*
X007163Y008073D03*
X007191Y008046D03*
X007194Y008042D03*
X007198Y008038D03*
X007218Y008018D03*
X007222Y008014D03*
X007226Y008010D03*
X007230Y008007D03*
X007234Y008003D03*
X007238Y007999D03*
X007242Y007995D03*
X007246Y007991D03*
X007257Y007979D03*
X007257Y007975D03*
X007261Y007971D03*
X007265Y007967D03*
X007269Y007963D03*
X007273Y007959D03*
X007289Y007944D03*
X007293Y007940D03*
X007297Y007936D03*
X007301Y007932D03*
X007305Y007928D03*
X007320Y007912D03*
X007324Y007908D03*
X007328Y007904D03*
X007332Y007900D03*
X007336Y007896D03*
X007340Y007892D03*
X007344Y007888D03*
X007348Y007884D03*
X007352Y007881D03*
X007356Y007877D03*
X007360Y007873D03*
X007364Y007869D03*
X007368Y007865D03*
X007376Y007857D03*
X007356Y007814D03*
X007580Y007798D03*
X007714Y007798D03*
X007817Y007947D03*
X007789Y007979D03*
X007872Y008113D03*
X007864Y008121D03*
X008049Y008117D03*
X008053Y008121D03*
X008057Y008125D03*
X008061Y008129D03*
X007868Y008321D03*
X007801Y008408D03*
X007801Y008412D03*
X007797Y008416D03*
X007785Y008447D03*
X007954Y008487D03*
X007958Y008483D03*
X008108Y008479D03*
X008112Y008483D03*
X008120Y008491D03*
X008116Y008644D03*
X008112Y008648D03*
X007958Y008648D03*
X007954Y008644D03*
X007986Y008818D03*
X007864Y009085D03*
X007864Y009180D03*
X007761Y009180D03*
X007628Y009223D03*
X007474Y009223D03*
X007466Y009227D03*
X006943Y009062D03*
X006939Y009058D03*
X006931Y009050D03*
X006927Y009046D03*
X007135Y008684D03*
X007328Y008365D03*
X007328Y008345D03*
X007561Y008739D03*
X006604Y008251D03*
X006604Y008247D03*
X006486Y008211D03*
X006482Y008310D03*
X006872Y007916D03*
X006876Y007719D03*
X006880Y007715D03*
X007057Y007715D03*
X007061Y007719D03*
D55*
X006968Y007963D03*
X007397Y007715D03*
X007645Y007971D03*
X007779Y008243D03*
X007515Y008676D03*
X008031Y008684D03*
X007811Y009196D03*
X006952Y008451D03*
X006618Y008310D03*
D56*
X006606Y008255D03*
X006531Y008345D03*
X006712Y008538D03*
X006708Y008542D03*
X006704Y008546D03*
X006700Y008550D03*
X006736Y008518D03*
X006740Y008514D03*
X006744Y008507D03*
X006748Y008503D03*
X006799Y008447D03*
X006807Y008440D03*
X006811Y008436D03*
X006976Y008266D03*
X006980Y008262D03*
X006988Y008255D03*
X006988Y008251D03*
X007004Y008239D03*
X007007Y008235D03*
X007011Y008231D03*
X007019Y008223D03*
X007086Y008152D03*
X007090Y008148D03*
X007094Y008144D03*
X007098Y008140D03*
X007224Y008184D03*
X007259Y008243D03*
X007271Y008262D03*
X007326Y008349D03*
X007326Y008353D03*
X007326Y008361D03*
X007405Y008487D03*
X007441Y008546D03*
X007452Y008566D03*
X007476Y008605D03*
X007614Y008672D03*
X007622Y008660D03*
X007637Y008640D03*
X007677Y008585D03*
X007681Y008581D03*
X007685Y008573D03*
X007689Y008570D03*
X007696Y008558D03*
X007716Y008530D03*
X007720Y008526D03*
X007728Y008514D03*
X007740Y008499D03*
X007783Y008444D03*
X007783Y008440D03*
X007795Y008420D03*
X007838Y008365D03*
X007862Y008318D03*
X007862Y008314D03*
X007858Y008310D03*
X008055Y008318D03*
X008059Y008314D03*
X008063Y008310D03*
X008067Y008306D03*
X008035Y008432D03*
X007960Y008479D03*
X007944Y008499D03*
X007948Y008640D03*
X008118Y008487D03*
X008070Y008140D03*
X008067Y008136D03*
X008067Y008133D03*
X007862Y008125D03*
X007858Y008129D03*
X007854Y008133D03*
X007783Y007983D03*
X007720Y007936D03*
X007716Y007940D03*
X007724Y007806D03*
X007720Y007802D03*
X007574Y007802D03*
X007574Y007806D03*
X007570Y007810D03*
X007567Y007814D03*
X007444Y007727D03*
X007350Y007727D03*
X007350Y007810D03*
X007378Y007853D03*
X007370Y007861D03*
X007319Y007916D03*
X007315Y007920D03*
X007311Y007924D03*
X007283Y007947D03*
X007279Y007951D03*
X007275Y007955D03*
X007252Y007983D03*
X007248Y007987D03*
X007216Y008022D03*
X007212Y008026D03*
X007208Y008030D03*
X007204Y008034D03*
X007074Y007904D03*
X007070Y007908D03*
X007067Y007912D03*
X007063Y007916D03*
X007070Y007727D03*
X007067Y007723D03*
X006870Y007723D03*
X006862Y007904D03*
X006866Y007908D03*
X006870Y007912D03*
X006874Y007920D03*
X006704Y008010D03*
X006716Y008034D03*
X007464Y008117D03*
X007563Y008743D03*
X007559Y008747D03*
X007492Y008837D03*
X007484Y008849D03*
X007480Y008853D03*
X007452Y008892D03*
X007441Y008908D03*
X007425Y008928D03*
X007421Y008932D03*
X007417Y008940D03*
X007405Y008955D03*
X007401Y008959D03*
X007393Y008971D03*
X007389Y008975D03*
X007385Y008983D03*
X007370Y009003D03*
X007362Y009014D03*
X007358Y009018D03*
X007350Y009030D03*
X007346Y009034D03*
X007338Y009046D03*
X007330Y009058D03*
X007326Y009062D03*
X007319Y009073D03*
X007311Y009085D03*
X007307Y009089D03*
X007303Y009093D03*
X007295Y009105D03*
X007291Y009109D03*
X007287Y009117D03*
X007271Y009136D03*
X007267Y009144D03*
X007263Y009148D03*
X007248Y009168D03*
X007236Y009184D03*
X007232Y009192D03*
X007204Y009227D03*
X007196Y009239D03*
X007193Y009243D03*
X007189Y009251D03*
X007224Y009310D03*
X007224Y009424D03*
X007106Y009424D03*
X007110Y009306D03*
X006941Y009361D03*
X006937Y009365D03*
X006960Y009085D03*
X006952Y009073D03*
X006948Y009070D03*
X006944Y009066D03*
X006933Y009054D03*
X006980Y008963D03*
X006996Y008936D03*
X007043Y008853D03*
X006641Y009046D03*
X006626Y009062D03*
X006622Y009066D03*
X006610Y009077D03*
X006610Y009341D03*
X006618Y009353D03*
X006645Y009381D03*
X006578Y008794D03*
X006582Y008790D03*
X006586Y008786D03*
X006586Y008782D03*
X006590Y008778D03*
X006598Y008656D03*
X006570Y008629D03*
X006633Y008621D03*
X006637Y008617D03*
X006645Y008609D03*
X006405Y008636D03*
X006401Y008640D03*
X006397Y008644D03*
X006401Y008786D03*
X006405Y008794D03*
X007456Y009239D03*
X007460Y009235D03*
X007464Y009231D03*
X007441Y009369D03*
X007452Y009381D03*
X007460Y009392D03*
X007630Y009400D03*
X007633Y009231D03*
X007763Y009184D03*
X007763Y009085D03*
D57*
X007746Y009054D03*
X007742Y009046D03*
X007738Y009042D03*
X007738Y009038D03*
X007730Y009026D03*
X007726Y009018D03*
X007718Y009007D03*
X007710Y008995D03*
X007702Y008983D03*
X007702Y008979D03*
X007698Y008975D03*
X007694Y008967D03*
X007683Y008947D03*
X007675Y008936D03*
X007667Y008924D03*
X007667Y008920D03*
X007663Y008916D03*
X007659Y008908D03*
X007651Y008896D03*
X007647Y008888D03*
X007639Y008877D03*
X007631Y008865D03*
X007631Y008861D03*
X007624Y008849D03*
X007616Y008837D03*
X007612Y008829D03*
X007608Y008821D03*
X007604Y008818D03*
X007600Y008810D03*
X007596Y008802D03*
X007506Y008818D03*
X007502Y008821D03*
X007502Y008825D03*
X007498Y008829D03*
X007498Y008833D03*
X007490Y008841D03*
X007478Y008857D03*
X007474Y008861D03*
X007470Y008865D03*
X007466Y008869D03*
X007466Y008873D03*
X007462Y008877D03*
X007458Y008881D03*
X007458Y008884D03*
X007450Y008896D03*
X007446Y008900D03*
X007443Y008904D03*
X007435Y008912D03*
X007435Y008916D03*
X007431Y008920D03*
X007427Y008924D03*
X007419Y008936D03*
X007415Y008944D03*
X007411Y008947D03*
X007407Y008951D03*
X007399Y008963D03*
X007395Y008967D03*
X007387Y008979D03*
X007383Y008987D03*
X007380Y008991D03*
X007376Y008995D03*
X007376Y008999D03*
X007368Y009007D03*
X007364Y009010D03*
X007352Y009026D03*
X007344Y009038D03*
X007344Y009042D03*
X007336Y009050D03*
X007320Y009070D03*
X007313Y009077D03*
X007313Y009081D03*
X007301Y009097D03*
X007297Y009101D03*
X007289Y009113D03*
X007281Y009121D03*
X007281Y009125D03*
X007277Y009129D03*
X007273Y009133D03*
X007269Y009140D03*
X007261Y009152D03*
X007257Y009156D03*
X007254Y009160D03*
X007250Y009164D03*
X007246Y009172D03*
X007242Y009176D03*
X007238Y009180D03*
X007234Y009188D03*
X007230Y009196D03*
X007226Y009199D03*
X007222Y009203D03*
X007222Y009207D03*
X007218Y009211D03*
X007214Y009215D03*
X007210Y009219D03*
X007206Y009223D03*
X007198Y009235D03*
X007191Y009247D03*
X007187Y009255D03*
X007183Y009259D03*
X007179Y009262D03*
X007175Y009266D03*
X007226Y009314D03*
X007230Y009318D03*
X007230Y009416D03*
X007226Y009420D03*
X007450Y009377D03*
X007454Y009384D03*
X007458Y009388D03*
X007450Y009247D03*
X007454Y009243D03*
X007639Y009235D03*
X007643Y009239D03*
X007647Y009247D03*
X007651Y009255D03*
X007655Y009262D03*
X007651Y009373D03*
X007647Y009377D03*
X007647Y009381D03*
X007643Y009384D03*
X007813Y009219D03*
X007860Y009184D03*
X007872Y009172D03*
X007868Y009089D03*
X007935Y008873D03*
X007946Y008636D03*
X007943Y008633D03*
X007943Y008629D03*
X007939Y008625D03*
X007939Y008507D03*
X007943Y008503D03*
X007950Y008495D03*
X007797Y008424D03*
X007793Y008428D03*
X007785Y008436D03*
X007746Y008491D03*
X007742Y008495D03*
X007738Y008503D03*
X007734Y008507D03*
X007730Y008510D03*
X007722Y008522D03*
X007714Y008534D03*
X007706Y008542D03*
X007706Y008546D03*
X007698Y008554D03*
X007694Y008562D03*
X007691Y008566D03*
X007683Y008577D03*
X007635Y008644D03*
X007631Y008648D03*
X007628Y008652D03*
X007624Y008656D03*
X007620Y008664D03*
X007616Y008668D03*
X007612Y008676D03*
X007604Y008684D03*
X007478Y008609D03*
X007474Y008601D03*
X007470Y008597D03*
X007470Y008593D03*
X007466Y008589D03*
X007462Y008585D03*
X007462Y008581D03*
X007458Y008577D03*
X007458Y008573D03*
X007454Y008570D03*
X007450Y008562D03*
X007446Y008558D03*
X007446Y008554D03*
X007443Y008550D03*
X007439Y008542D03*
X007435Y008538D03*
X007435Y008534D03*
X007431Y008530D03*
X007427Y008526D03*
X007427Y008522D03*
X007423Y008518D03*
X007419Y008510D03*
X007415Y008507D03*
X007415Y008503D03*
X007411Y008499D03*
X007411Y008495D03*
X007407Y008491D03*
X007403Y008483D03*
X007399Y008479D03*
X007399Y008475D03*
X007395Y008471D03*
X007391Y008467D03*
X007391Y008463D03*
X007387Y008459D03*
X007383Y008451D03*
X007380Y008444D03*
X007376Y008440D03*
X007376Y008436D03*
X007372Y008432D03*
X007368Y008424D03*
X007364Y008420D03*
X007364Y008416D03*
X007360Y008412D03*
X007356Y008404D03*
X007352Y008400D03*
X007352Y008396D03*
X007328Y008357D03*
X007352Y008314D03*
X007360Y008294D03*
X007364Y008290D03*
X007368Y008282D03*
X007376Y008270D03*
X007380Y008262D03*
X007383Y008259D03*
X007383Y008255D03*
X007387Y008251D03*
X007387Y008247D03*
X007391Y008243D03*
X007395Y008239D03*
X007395Y008235D03*
X007399Y008231D03*
X007399Y008227D03*
X007407Y008215D03*
X007407Y008211D03*
X007411Y008207D03*
X007419Y008196D03*
X007443Y008152D03*
X007446Y008148D03*
X007450Y008140D03*
X007454Y008136D03*
X007454Y008133D03*
X007458Y008129D03*
X007458Y008125D03*
X007462Y008121D03*
X007466Y008113D03*
X007470Y008105D03*
X007474Y008101D03*
X007474Y008097D03*
X007482Y008085D03*
X007486Y008081D03*
X007486Y008077D03*
X007494Y008066D03*
X007498Y008062D03*
X007498Y008058D03*
X007506Y008046D03*
X007506Y008042D03*
X007509Y008038D03*
X007517Y008026D03*
X007517Y008022D03*
X007521Y008018D03*
X007521Y008014D03*
X007529Y008003D03*
X007533Y007999D03*
X007533Y007995D03*
X007541Y007983D03*
X007545Y007979D03*
X007545Y007975D03*
X007549Y007967D03*
X007553Y007963D03*
X007572Y007932D03*
X007569Y007928D03*
X007722Y007932D03*
X007730Y007924D03*
X007734Y007916D03*
X007730Y007818D03*
X007730Y007814D03*
X007726Y007810D03*
X007446Y007810D03*
X007450Y007731D03*
X007348Y007731D03*
X007100Y007786D03*
X007096Y007774D03*
X007088Y007755D03*
X007084Y007747D03*
X007080Y007743D03*
X007080Y007739D03*
X007072Y007731D03*
X007096Y007865D03*
X007088Y007881D03*
X007088Y007884D03*
X007084Y007888D03*
X007084Y007892D03*
X007080Y007896D03*
X007076Y007900D03*
X007088Y007959D03*
X007096Y007971D03*
X007104Y007983D03*
X007112Y007999D03*
X007116Y008003D03*
X007120Y008010D03*
X007124Y008018D03*
X007131Y008030D03*
X007139Y008042D03*
X007214Y008164D03*
X007214Y008168D03*
X007218Y008172D03*
X007218Y008176D03*
X007222Y008180D03*
X007226Y008188D03*
X007230Y008196D03*
X007234Y008199D03*
X007234Y008203D03*
X007242Y008211D03*
X007242Y008215D03*
X007246Y008219D03*
X007250Y008223D03*
X007250Y008227D03*
X007254Y008231D03*
X007254Y008235D03*
X007257Y008239D03*
X007261Y008247D03*
X007265Y008251D03*
X007265Y008255D03*
X007269Y008259D03*
X007273Y008266D03*
X007277Y008274D03*
X007281Y008278D03*
X007281Y008282D03*
X007289Y008290D03*
X007289Y008294D03*
X007297Y008306D03*
X007301Y008310D03*
X007301Y008400D03*
X007297Y008408D03*
X007289Y008420D03*
X007285Y008428D03*
X007285Y008432D03*
X007277Y008444D03*
X007273Y008447D03*
X007269Y008459D03*
X007265Y008463D03*
X007254Y008483D03*
X007254Y008487D03*
X007250Y008491D03*
X007246Y008499D03*
X007242Y008503D03*
X007242Y008507D03*
X007238Y008510D03*
X007238Y008514D03*
X007230Y008526D03*
X007198Y008581D03*
X007191Y008593D03*
X007191Y008597D03*
X007187Y008601D03*
X007179Y008613D03*
X007179Y008617D03*
X007175Y008621D03*
X007167Y008636D03*
X007128Y008707D03*
X007124Y008711D03*
X007120Y008715D03*
X007116Y008727D03*
X007112Y008731D03*
X007112Y008735D03*
X007104Y008747D03*
X007100Y008751D03*
X007100Y008755D03*
X007092Y008766D03*
X007088Y008770D03*
X007088Y008774D03*
X007080Y008786D03*
X007080Y008790D03*
X007076Y008794D03*
X007069Y008806D03*
X007069Y008810D03*
X007065Y008814D03*
X007065Y008818D03*
X007057Y008829D03*
X007053Y008833D03*
X007053Y008837D03*
X007049Y008845D03*
X007045Y008849D03*
X007041Y008857D03*
X007037Y008865D03*
X007033Y008869D03*
X007033Y008873D03*
X007029Y008877D03*
X007029Y008881D03*
X007025Y008884D03*
X007021Y008888D03*
X007021Y008892D03*
X007017Y008896D03*
X007017Y008900D03*
X007013Y008904D03*
X007009Y008908D03*
X007009Y008912D03*
X007006Y008916D03*
X007006Y008920D03*
X007002Y008924D03*
X006998Y008932D03*
X006994Y008940D03*
X006990Y008944D03*
X006986Y008951D03*
X006986Y008955D03*
X006982Y008959D03*
X006974Y008971D03*
X006974Y008975D03*
X006970Y008983D03*
X006966Y008987D03*
X006962Y008991D03*
X006962Y008995D03*
X006958Y009003D03*
X006954Y009007D03*
X006950Y009010D03*
X006950Y009014D03*
X006950Y009018D03*
X006954Y009077D03*
X006958Y009081D03*
X006962Y009089D03*
X006966Y009093D03*
X006970Y009101D03*
X006974Y009109D03*
X006978Y009117D03*
X006974Y009310D03*
X006970Y009318D03*
X006962Y009329D03*
X006962Y009333D03*
X006958Y009337D03*
X006954Y009341D03*
X006954Y009345D03*
X006950Y009349D03*
X006946Y009353D03*
X006943Y009357D03*
X006628Y009365D03*
X006620Y009357D03*
X006616Y009349D03*
X006612Y009345D03*
X006596Y009321D03*
X006596Y009318D03*
X006604Y009089D03*
X006604Y009085D03*
X006608Y009081D03*
X006612Y009073D03*
X006616Y009070D03*
X006635Y009050D03*
X006592Y008774D03*
X006596Y008770D03*
X006600Y008759D03*
X006596Y008660D03*
X006407Y008633D03*
X006391Y008652D03*
X006391Y008774D03*
X006403Y008790D03*
X006742Y008510D03*
X006478Y008306D03*
X006474Y008302D03*
X006470Y008294D03*
X006600Y008274D03*
X006600Y008270D03*
X006604Y008262D03*
X006604Y008259D03*
X006584Y008215D03*
X006671Y008081D03*
X006643Y008050D03*
X006860Y007900D03*
X006848Y007755D03*
X006860Y007735D03*
X006868Y007727D03*
X007017Y008227D03*
X007781Y008034D03*
X007852Y008030D03*
X007856Y007987D03*
X007856Y007983D03*
X007852Y008136D03*
X007844Y008144D03*
X007844Y008148D03*
X007840Y008286D03*
X007848Y008298D03*
X007852Y008302D03*
X007856Y008306D03*
X007848Y008349D03*
X007848Y008353D03*
X007844Y008357D03*
X007840Y008361D03*
X007836Y008369D03*
X007832Y008373D03*
X008069Y008302D03*
X008072Y008298D03*
X008072Y008294D03*
X008076Y008290D03*
X008080Y008286D03*
X008080Y008282D03*
X008080Y008156D03*
X008076Y008148D03*
X008072Y008144D03*
X008124Y008495D03*
X008131Y008507D03*
X008135Y008510D03*
X008139Y008518D03*
X008135Y008621D03*
X008131Y008625D03*
X008131Y008629D03*
X008128Y008633D03*
X008124Y008636D03*
X008120Y008640D03*
D58*
X008149Y008585D03*
X008149Y008581D03*
X007799Y008696D03*
X007799Y008778D03*
X007799Y008975D03*
X007799Y008979D03*
X007752Y009109D03*
X007874Y009101D03*
X007874Y009097D03*
X007878Y009117D03*
X007878Y009121D03*
X007535Y009144D03*
X007531Y009125D03*
X007547Y008940D03*
X007543Y008932D03*
X007433Y009298D03*
X007433Y009302D03*
X007291Y009345D03*
X007236Y009333D03*
X007240Y009388D03*
X007086Y009357D03*
X007086Y009353D03*
X006984Y009136D03*
X006850Y008944D03*
X006850Y008940D03*
X006858Y008869D03*
X006858Y008849D03*
X006897Y008538D03*
X006897Y008534D03*
X006905Y008459D03*
X006905Y008455D03*
X006917Y008373D03*
X006937Y008227D03*
X006941Y008172D03*
X006960Y008034D03*
X006960Y008030D03*
X006838Y007790D03*
X006838Y007786D03*
X006637Y008014D03*
X006637Y008018D03*
X006673Y008085D03*
X007342Y007794D03*
X007338Y007747D03*
X007342Y007743D03*
X007456Y007747D03*
X007456Y007751D03*
X007555Y007845D03*
X007649Y007951D03*
X007649Y007987D03*
X007594Y008073D03*
X007594Y008140D03*
X007582Y008247D03*
X007582Y008251D03*
X007574Y008349D03*
X007578Y008369D03*
X007578Y008373D03*
X007574Y008420D03*
X007574Y008424D03*
X007567Y008503D03*
X007567Y008507D03*
X007787Y008294D03*
X007787Y008290D03*
X007830Y008184D03*
X007960Y008062D03*
X008094Y008207D03*
X008094Y008211D03*
X008094Y008227D03*
X008094Y008231D03*
X007748Y007861D03*
X006381Y008672D03*
X006378Y008727D03*
X006381Y008747D03*
X006578Y009148D03*
X006574Y009152D03*
X006578Y009270D03*
D59*
X006576Y009266D03*
X006580Y009278D03*
X006580Y009282D03*
X006584Y009298D03*
X006588Y009306D03*
X006572Y009251D03*
X006569Y009227D03*
X006569Y009223D03*
X006569Y009219D03*
X006569Y009215D03*
X006569Y009211D03*
X006569Y009207D03*
X006569Y009203D03*
X006569Y009199D03*
X006569Y009196D03*
X006569Y009192D03*
X006572Y009168D03*
X006572Y009160D03*
X006580Y009140D03*
X006580Y009136D03*
X006580Y009133D03*
X006584Y009129D03*
X006588Y009121D03*
X006592Y009109D03*
X006844Y008971D03*
X006844Y008967D03*
X006844Y008963D03*
X006848Y008947D03*
X006848Y008936D03*
X006852Y008916D03*
X006852Y008912D03*
X006852Y008908D03*
X006852Y008896D03*
X006852Y008892D03*
X006856Y008877D03*
X006856Y008873D03*
X006860Y008865D03*
X006860Y008845D03*
X006864Y008821D03*
X006864Y008818D03*
X006864Y008814D03*
X006864Y008802D03*
X006868Y008798D03*
X006868Y008794D03*
X006868Y008782D03*
X006868Y008778D03*
X006872Y008751D03*
X006876Y008723D03*
X006876Y008711D03*
X006883Y008656D03*
X006887Y008633D03*
X006887Y008629D03*
X006887Y008625D03*
X006887Y008621D03*
X006887Y008613D03*
X006887Y008609D03*
X006891Y008593D03*
X006891Y008589D03*
X006891Y008585D03*
X006891Y008581D03*
X006895Y008566D03*
X006895Y008562D03*
X006895Y008558D03*
X006895Y008554D03*
X006899Y008542D03*
X006899Y008530D03*
X006899Y008526D03*
X006899Y008522D03*
X006899Y008518D03*
X006903Y008503D03*
X006903Y008499D03*
X006903Y008495D03*
X006903Y008491D03*
X006903Y008487D03*
X006903Y008483D03*
X006907Y008475D03*
X006907Y008471D03*
X006907Y008467D03*
X006907Y008463D03*
X006915Y008400D03*
X006915Y008396D03*
X006915Y008392D03*
X006915Y008388D03*
X006919Y008377D03*
X006931Y008266D03*
X006931Y008262D03*
X006935Y008255D03*
X006935Y008243D03*
X006935Y008239D03*
X006935Y008235D03*
X006935Y008231D03*
X006935Y008223D03*
X006939Y008207D03*
X006939Y008203D03*
X006939Y008199D03*
X006939Y008196D03*
X006939Y008192D03*
X006943Y008180D03*
X006943Y008176D03*
X006943Y008168D03*
X006943Y008164D03*
X006946Y008140D03*
X006946Y008136D03*
X006946Y008133D03*
X006946Y008129D03*
X006946Y008125D03*
X006946Y008121D03*
X006954Y008054D03*
X006958Y008042D03*
X006958Y008038D03*
X006962Y008010D03*
X006966Y007983D03*
X006966Y007979D03*
X006844Y007873D03*
X006840Y007861D03*
X006836Y007849D03*
X006836Y007845D03*
X006832Y007833D03*
X006832Y007829D03*
X006832Y007825D03*
X006832Y007821D03*
X006832Y007818D03*
X006832Y007814D03*
X006832Y007810D03*
X006832Y007806D03*
X006832Y007802D03*
X006840Y007774D03*
X006844Y007766D03*
X006844Y007762D03*
X006852Y007751D03*
X007092Y007759D03*
X007092Y007762D03*
X007096Y007770D03*
X007104Y007806D03*
X007104Y007810D03*
X007104Y007814D03*
X007104Y007818D03*
X007104Y007821D03*
X007104Y007825D03*
X007104Y007829D03*
X007104Y007845D03*
X007104Y007849D03*
X007092Y007873D03*
X007336Y007782D03*
X007336Y007778D03*
X007336Y007774D03*
X007336Y007770D03*
X007336Y007766D03*
X007336Y007762D03*
X007336Y007759D03*
X007340Y007790D03*
X007344Y007806D03*
X007450Y007802D03*
X007458Y007798D03*
X007458Y007790D03*
X007458Y007786D03*
X007458Y007782D03*
X007458Y007778D03*
X007458Y007774D03*
X007458Y007770D03*
X007458Y007766D03*
X007458Y007762D03*
X007458Y007759D03*
X007458Y007755D03*
X007557Y007833D03*
X007557Y007841D03*
X007553Y007849D03*
X007549Y007861D03*
X007549Y007865D03*
X007549Y007873D03*
X007549Y007877D03*
X007553Y007884D03*
X007553Y007888D03*
X007553Y007892D03*
X007561Y007916D03*
X007537Y007991D03*
X007525Y008010D03*
X007513Y008030D03*
X007502Y008054D03*
X007490Y008073D03*
X007478Y008093D03*
X007592Y008077D03*
X007596Y008070D03*
X007596Y008066D03*
X007596Y008062D03*
X007596Y008058D03*
X007596Y008054D03*
X007596Y008050D03*
X007596Y008046D03*
X007596Y008042D03*
X007596Y008038D03*
X007596Y008034D03*
X007596Y008030D03*
X007596Y008026D03*
X007600Y008010D03*
X007600Y008007D03*
X007600Y008003D03*
X007600Y007999D03*
X007600Y007995D03*
X007600Y007991D03*
X007600Y007987D03*
X007596Y008089D03*
X007596Y008093D03*
X007592Y008109D03*
X007592Y008113D03*
X007592Y008117D03*
X007592Y008121D03*
X007592Y008125D03*
X007592Y008129D03*
X007592Y008133D03*
X007592Y008136D03*
X007592Y008144D03*
X007588Y008164D03*
X007588Y008168D03*
X007588Y008172D03*
X007588Y008176D03*
X007588Y008180D03*
X007584Y008227D03*
X007584Y008231D03*
X007584Y008235D03*
X007584Y008239D03*
X007584Y008243D03*
X007580Y008286D03*
X007580Y008290D03*
X007580Y008294D03*
X007580Y008298D03*
X007580Y008302D03*
X007580Y008306D03*
X007580Y008310D03*
X007580Y008314D03*
X007580Y008318D03*
X007580Y008321D03*
X007580Y008325D03*
X007576Y008345D03*
X007576Y008353D03*
X007576Y008357D03*
X007576Y008361D03*
X007576Y008365D03*
X007576Y008377D03*
X007576Y008381D03*
X007576Y008384D03*
X007572Y008416D03*
X007572Y008428D03*
X007572Y008432D03*
X007572Y008436D03*
X007572Y008440D03*
X007572Y008444D03*
X007572Y008447D03*
X007572Y008451D03*
X007572Y008455D03*
X007572Y008459D03*
X007572Y008463D03*
X007572Y008467D03*
X007572Y008471D03*
X007572Y008475D03*
X007572Y008479D03*
X007569Y008491D03*
X007569Y008495D03*
X007569Y008499D03*
X007569Y008510D03*
X007569Y008514D03*
X007569Y008518D03*
X007569Y008522D03*
X007569Y008526D03*
X007569Y008530D03*
X007569Y008534D03*
X007565Y008550D03*
X007565Y008554D03*
X007565Y008558D03*
X007565Y008562D03*
X007565Y008566D03*
X007565Y008570D03*
X007565Y008573D03*
X007565Y008577D03*
X007565Y008581D03*
X007565Y008585D03*
X007565Y008589D03*
X007565Y008593D03*
X007565Y008597D03*
X007561Y008605D03*
X007561Y008648D03*
X007561Y008652D03*
X007561Y008656D03*
X007561Y008660D03*
X007561Y008664D03*
X007561Y008668D03*
X007561Y008672D03*
X007549Y008833D03*
X007549Y008837D03*
X007549Y008861D03*
X007549Y008865D03*
X007549Y008869D03*
X007549Y008873D03*
X007549Y008877D03*
X007549Y008881D03*
X007549Y008884D03*
X007549Y008888D03*
X007545Y008920D03*
X007545Y008924D03*
X007545Y008928D03*
X007545Y008936D03*
X007545Y008944D03*
X007545Y008947D03*
X007541Y008975D03*
X007541Y008979D03*
X007541Y008983D03*
X007541Y008987D03*
X007541Y008991D03*
X007541Y008995D03*
X007541Y008999D03*
X007541Y009003D03*
X007541Y009007D03*
X007541Y009010D03*
X007537Y009026D03*
X007537Y009030D03*
X007541Y009038D03*
X007541Y009042D03*
X007537Y009054D03*
X007537Y009058D03*
X007537Y009062D03*
X007537Y009066D03*
X007537Y009070D03*
X007537Y009073D03*
X007537Y009077D03*
X007537Y009081D03*
X007537Y009085D03*
X007537Y009089D03*
X007537Y009093D03*
X007533Y009117D03*
X007533Y009121D03*
X007533Y009129D03*
X007533Y009133D03*
X007533Y009136D03*
X007533Y009140D03*
X007533Y009148D03*
X007533Y009152D03*
X007529Y009172D03*
X007446Y009255D03*
X007439Y009274D03*
X007439Y009282D03*
X007439Y009286D03*
X007435Y009290D03*
X007435Y009294D03*
X007435Y009306D03*
X007435Y009310D03*
X007435Y009314D03*
X007435Y009318D03*
X007435Y009321D03*
X007435Y009325D03*
X007435Y009329D03*
X007435Y009333D03*
X007242Y009341D03*
X007242Y009345D03*
X007234Y009329D03*
X007234Y009325D03*
X007230Y009321D03*
X007242Y009384D03*
X007242Y009392D03*
X007238Y009400D03*
X007230Y009412D03*
X007100Y009416D03*
X007096Y009412D03*
X007092Y009408D03*
X007092Y009404D03*
X007088Y009400D03*
X007088Y009396D03*
X007084Y009388D03*
X007084Y009384D03*
X007084Y009381D03*
X007084Y009377D03*
X007084Y009373D03*
X007084Y009369D03*
X007084Y009365D03*
X007084Y009361D03*
X007084Y009349D03*
X007084Y009345D03*
X007088Y009337D03*
X007088Y009333D03*
X007092Y009329D03*
X007092Y009325D03*
X007096Y009321D03*
X006986Y009290D03*
X006986Y009286D03*
X006986Y009282D03*
X006990Y009270D03*
X006990Y009266D03*
X006994Y009251D03*
X006994Y009247D03*
X006994Y009243D03*
X006994Y009239D03*
X006998Y009223D03*
X006998Y009219D03*
X006998Y009215D03*
X006998Y009211D03*
X006998Y009207D03*
X006998Y009203D03*
X006998Y009199D03*
X006998Y009196D03*
X006994Y009180D03*
X006994Y009176D03*
X006994Y009172D03*
X006994Y009168D03*
X006990Y009152D03*
X006990Y009148D03*
X006982Y009133D03*
X006978Y009298D03*
X006978Y009302D03*
X007663Y009302D03*
X007663Y009298D03*
X007663Y009286D03*
X007663Y009282D03*
X007663Y009321D03*
X007663Y009325D03*
X007663Y009337D03*
X007663Y009341D03*
X007754Y009172D03*
X007750Y009160D03*
X007746Y009148D03*
X007746Y009144D03*
X007746Y009140D03*
X007746Y009136D03*
X007746Y009133D03*
X007746Y009129D03*
X007746Y009125D03*
X007746Y009121D03*
X007746Y009117D03*
X007750Y009105D03*
X007754Y009097D03*
X007757Y009093D03*
X007801Y009046D03*
X007801Y009042D03*
X007801Y009038D03*
X007801Y009034D03*
X007801Y009030D03*
X007801Y009026D03*
X007801Y009022D03*
X007801Y009018D03*
X007801Y009014D03*
X007801Y009010D03*
X007801Y009007D03*
X007801Y009003D03*
X007801Y008999D03*
X007801Y008995D03*
X007801Y008991D03*
X007801Y008987D03*
X007801Y008983D03*
X007801Y008971D03*
X007801Y008967D03*
X007801Y008963D03*
X007801Y008959D03*
X007801Y008955D03*
X007801Y008951D03*
X007801Y008947D03*
X007801Y008944D03*
X007801Y008940D03*
X007801Y008936D03*
X007801Y008932D03*
X007801Y008900D03*
X007797Y008865D03*
X007797Y008861D03*
X007797Y008857D03*
X007797Y008853D03*
X007797Y008849D03*
X007797Y008845D03*
X007797Y008841D03*
X007797Y008837D03*
X007797Y008833D03*
X007797Y008774D03*
X007797Y008770D03*
X007797Y008766D03*
X007797Y008762D03*
X007797Y008759D03*
X007797Y008755D03*
X007797Y008751D03*
X007797Y008747D03*
X007797Y008743D03*
X007797Y008739D03*
X007797Y008735D03*
X007797Y008731D03*
X007797Y008727D03*
X007797Y008723D03*
X007797Y008719D03*
X007797Y008715D03*
X007797Y008711D03*
X007797Y008707D03*
X007797Y008703D03*
X007797Y008699D03*
X007797Y008692D03*
X007797Y008688D03*
X007797Y008684D03*
X007797Y008680D03*
X007797Y008676D03*
X007797Y008672D03*
X007797Y008668D03*
X007793Y008581D03*
X007793Y008577D03*
X007793Y008573D03*
X007793Y008570D03*
X007789Y008522D03*
X007789Y008518D03*
X007710Y008538D03*
X007789Y008373D03*
X007789Y008369D03*
X007789Y008365D03*
X007789Y008361D03*
X007789Y008357D03*
X007789Y008353D03*
X007789Y008349D03*
X007789Y008345D03*
X007789Y008341D03*
X007789Y008337D03*
X007789Y008333D03*
X007789Y008329D03*
X007789Y008325D03*
X007789Y008321D03*
X007789Y008318D03*
X007789Y008314D03*
X007789Y008310D03*
X007789Y008306D03*
X007789Y008302D03*
X007789Y008298D03*
X007789Y008286D03*
X007789Y008282D03*
X007789Y008278D03*
X007789Y008274D03*
X007789Y008270D03*
X007789Y008266D03*
X007789Y008262D03*
X007832Y008262D03*
X007832Y008266D03*
X007828Y008188D03*
X007832Y008168D03*
X007840Y008156D03*
X007789Y008164D03*
X007789Y008168D03*
X007789Y008172D03*
X007789Y008176D03*
X007789Y008180D03*
X007789Y008184D03*
X007789Y008188D03*
X007785Y008113D03*
X007785Y008109D03*
X007785Y008105D03*
X007785Y008101D03*
X007785Y008097D03*
X007785Y008093D03*
X007785Y008089D03*
X007785Y008085D03*
X007785Y008081D03*
X007785Y008077D03*
X007785Y008073D03*
X007785Y008070D03*
X007777Y008026D03*
X007777Y008022D03*
X007773Y008014D03*
X007773Y008010D03*
X007773Y008007D03*
X007773Y008003D03*
X007777Y007991D03*
X007860Y008003D03*
X007860Y008007D03*
X007860Y008010D03*
X007742Y007904D03*
X007742Y007900D03*
X007746Y007892D03*
X007746Y007888D03*
X007746Y007884D03*
X007746Y007881D03*
X007746Y007877D03*
X007746Y007873D03*
X007746Y007869D03*
X007746Y007865D03*
X007746Y007857D03*
X007746Y007853D03*
X007746Y007849D03*
X007746Y007845D03*
X007742Y007837D03*
X007738Y007833D03*
X007415Y008199D03*
X007285Y008286D03*
X007293Y008298D03*
X007175Y008625D03*
X007171Y008629D03*
X007061Y008821D03*
X006608Y008731D03*
X006604Y008743D03*
X006604Y008747D03*
X006596Y008762D03*
X006604Y008684D03*
X006604Y008680D03*
X006600Y008664D03*
X006494Y008573D03*
X006498Y008562D03*
X006498Y008558D03*
X006498Y008554D03*
X006498Y008550D03*
X006502Y008530D03*
X006502Y008526D03*
X006502Y008522D03*
X006502Y008518D03*
X006502Y008514D03*
X006506Y008507D03*
X006506Y008503D03*
X006506Y008499D03*
X006506Y008495D03*
X006509Y008483D03*
X006509Y008479D03*
X006509Y008475D03*
X006509Y008471D03*
X006513Y008451D03*
X006513Y008447D03*
X006513Y008444D03*
X006513Y008440D03*
X006513Y008436D03*
X006517Y008428D03*
X006517Y008424D03*
X006517Y008420D03*
X006517Y008416D03*
X006521Y008404D03*
X006521Y008400D03*
X006521Y008396D03*
X006521Y008392D03*
X006525Y008384D03*
X006525Y008381D03*
X006525Y008369D03*
X006525Y008365D03*
X006525Y008361D03*
X006525Y008357D03*
X006529Y008349D03*
X006466Y008286D03*
X006466Y008282D03*
X006466Y008278D03*
X006462Y008262D03*
X006462Y008259D03*
X006466Y008247D03*
X006466Y008243D03*
X006466Y008239D03*
X006466Y008231D03*
X006470Y008227D03*
X006474Y008219D03*
X006478Y008215D03*
X006596Y008235D03*
X006596Y008239D03*
X006596Y008243D03*
X006600Y008282D03*
X006639Y008042D03*
X006635Y008034D03*
X006635Y008026D03*
X006639Y008010D03*
X006675Y007975D03*
X006710Y008018D03*
X006710Y008022D03*
X006710Y008026D03*
X006710Y008030D03*
X006387Y008664D03*
X006387Y008668D03*
X006380Y008676D03*
X006380Y008680D03*
X006380Y008684D03*
X006376Y008696D03*
X006376Y008699D03*
X006376Y008703D03*
X006376Y008707D03*
X006376Y008711D03*
X006376Y008715D03*
X006376Y008719D03*
X006376Y008723D03*
X006376Y008731D03*
X006376Y008735D03*
X006383Y008751D03*
X006387Y008770D03*
X007643Y008884D03*
X007939Y008884D03*
X007939Y008881D03*
X007939Y008888D03*
X008021Y008896D03*
X008025Y008884D03*
X008025Y008881D03*
X008025Y008877D03*
X008025Y008873D03*
X008025Y008869D03*
X007880Y009105D03*
X007880Y009113D03*
X007880Y009125D03*
X007880Y009129D03*
X007880Y009133D03*
X007880Y009136D03*
X007880Y009140D03*
X007880Y009144D03*
X007880Y009148D03*
X007880Y009152D03*
X007923Y008573D03*
X007923Y008570D03*
X007923Y008566D03*
X007923Y008562D03*
X007923Y008558D03*
X007927Y008550D03*
X007927Y008546D03*
X007927Y008538D03*
X007927Y008534D03*
X007931Y008522D03*
X007931Y008518D03*
X007939Y008510D03*
X008143Y008522D03*
X008143Y008526D03*
X008143Y008530D03*
X008147Y008542D03*
X008147Y008546D03*
X008147Y008550D03*
X008147Y008554D03*
X008147Y008558D03*
X008147Y008562D03*
X008147Y008566D03*
X008147Y008570D03*
X008147Y008573D03*
X008147Y008577D03*
X008147Y008589D03*
X008147Y008593D03*
X008147Y008597D03*
X008143Y008601D03*
X008088Y008270D03*
X008088Y008266D03*
X008092Y008255D03*
X008092Y008251D03*
X008096Y008239D03*
X008096Y008235D03*
X008096Y008223D03*
X008096Y008219D03*
X008096Y008215D03*
X008096Y008203D03*
X008096Y008199D03*
X008092Y008188D03*
D60*
X008033Y008105D03*
X007887Y008105D03*
X007840Y008034D03*
X007817Y007951D03*
X007651Y007755D03*
X007163Y008062D03*
X007155Y008089D03*
X006730Y008038D03*
X006675Y007983D03*
X006943Y008294D03*
X006907Y008345D03*
X007328Y008381D03*
X007777Y008463D03*
X007911Y008581D03*
X007974Y008660D03*
X008096Y008660D03*
X007974Y008471D03*
X007982Y008932D03*
X007545Y009176D03*
X007482Y009408D03*
X007616Y009408D03*
X007163Y009270D03*
X006891Y009400D03*
X006683Y009404D03*
X006667Y009396D03*
X006675Y009018D03*
X006624Y008727D03*
X006557Y008617D03*
D61*
X006667Y008325D03*
X006663Y008321D03*
X006899Y008424D03*
X006990Y008463D03*
X007104Y008510D03*
X007159Y008534D03*
X007328Y008605D03*
X007557Y008778D03*
X007663Y008747D03*
X007706Y008766D03*
X007726Y008774D03*
X007789Y008802D03*
X007797Y008806D03*
X007817Y008814D03*
X007824Y008818D03*
X007872Y008837D03*
X007880Y008841D03*
X007919Y008857D03*
X007982Y008829D03*
X007982Y008924D03*
X008080Y008664D03*
X007549Y009180D03*
X007549Y009184D03*
X007194Y009302D03*
X006919Y009026D03*
X006675Y007995D03*
X007647Y007759D03*
X007813Y008058D03*
X007911Y008097D03*
X008009Y008097D03*
D62*
X007817Y008050D03*
X007651Y007762D03*
X007045Y007936D03*
X006738Y008046D03*
X006675Y007999D03*
X006616Y008302D03*
X006533Y008333D03*
X006698Y008337D03*
X006718Y008345D03*
X006726Y008349D03*
X006746Y008357D03*
X006754Y008361D03*
X006773Y008369D03*
X006781Y008373D03*
X006828Y008392D03*
X007013Y008471D03*
X007041Y008483D03*
X007069Y008495D03*
X007124Y008518D03*
X007143Y008526D03*
X007151Y008530D03*
X007191Y008546D03*
X007198Y008550D03*
X007206Y008554D03*
X007226Y008562D03*
X007234Y008566D03*
X007336Y008609D03*
X007490Y008672D03*
X007565Y008707D03*
X007557Y008786D03*
X007765Y008790D03*
X007982Y008837D03*
X007982Y008916D03*
X008037Y008440D03*
X006919Y009022D03*
X006454Y008818D03*
X007167Y009278D03*
D63*
X007167Y009286D03*
X007167Y009447D03*
X006781Y009444D03*
X007549Y009188D03*
X007517Y008680D03*
X007242Y008573D03*
X006872Y008404D03*
X006824Y008384D03*
X006529Y008325D03*
X006533Y008196D03*
X006494Y008589D03*
X006651Y008723D03*
X007399Y007825D03*
X007647Y007766D03*
X007785Y008247D03*
X008037Y008447D03*
D64*
X007962Y008077D03*
X007647Y007770D03*
X007399Y007821D03*
X006533Y008199D03*
X006655Y008719D03*
X006494Y008837D03*
X007246Y008577D03*
X007596Y008727D03*
D65*
X007799Y009062D03*
X007803Y009066D03*
X007807Y009070D03*
X008035Y008680D03*
X007964Y008081D03*
X007649Y007963D03*
X007649Y007774D03*
X006968Y007959D03*
X006535Y008207D03*
X006496Y008597D03*
X006791Y008975D03*
X006830Y009003D03*
X007165Y009294D03*
X007165Y009440D03*
D66*
X007165Y009436D03*
X007023Y007940D03*
X007649Y007778D03*
D67*
X007647Y007782D03*
X007962Y008353D03*
X007549Y009199D03*
X007549Y009424D03*
X006781Y008983D03*
D68*
X006919Y009030D03*
X006694Y009412D03*
X007167Y009459D03*
X007813Y009211D03*
X007982Y008825D03*
X007986Y008664D03*
X007769Y008483D03*
X007813Y008377D03*
X007328Y008392D03*
X007324Y008321D03*
X007324Y008318D03*
X006954Y008274D03*
X006899Y008361D03*
X006895Y008365D03*
X006891Y008369D03*
X006935Y008436D03*
X006612Y008298D03*
X006675Y008070D03*
X007053Y007932D03*
X007167Y008050D03*
X007529Y008810D03*
X007529Y008814D03*
X007714Y008770D03*
D69*
X007946Y008341D03*
X007730Y008227D03*
X006986Y007944D03*
X006702Y008711D03*
X006785Y008999D03*
D70*
X007319Y009369D03*
X007547Y009416D03*
X006968Y007947D03*
D71*
X006968Y007951D03*
X006496Y008605D03*
X007551Y009203D03*
X008035Y008672D03*
X006783Y009436D03*
D72*
X007553Y008196D03*
X007628Y007959D03*
D73*
X007637Y007979D03*
X007819Y008038D03*
X007185Y008542D03*
X007555Y008794D03*
X007834Y008825D03*
X008031Y008688D03*
X006968Y007967D03*
X006618Y008306D03*
X006531Y008329D03*
X006492Y008841D03*
D74*
X006944Y008444D03*
X006535Y008188D03*
X006673Y008007D03*
X007633Y007983D03*
X007819Y007967D03*
X007819Y008042D03*
X007819Y008046D03*
X007563Y008703D03*
X007484Y008668D03*
X007559Y008790D03*
X007830Y008821D03*
X007984Y008912D03*
X007165Y009455D03*
D75*
X007169Y009274D03*
X006878Y009408D03*
X006866Y009412D03*
X006783Y009447D03*
X006870Y009010D03*
X006693Y009010D03*
X006547Y008613D03*
X006531Y008337D03*
X006901Y008357D03*
X006948Y008282D03*
X006952Y008278D03*
X007153Y008097D03*
X007165Y008058D03*
X007165Y008054D03*
X006964Y007971D03*
X006673Y007987D03*
X006673Y007991D03*
X007326Y008325D03*
X007326Y008388D03*
X007771Y008479D03*
X007811Y008381D03*
X007811Y008259D03*
X007807Y008255D03*
X007960Y008373D03*
X007807Y008062D03*
X007559Y008770D03*
X007531Y008806D03*
X007921Y008861D03*
X007984Y008928D03*
D76*
X007754Y008215D03*
X007557Y008215D03*
X007376Y008184D03*
X007372Y008148D03*
X006797Y008046D03*
X006675Y008050D03*
X006533Y008172D03*
X006596Y008333D03*
X006691Y008688D03*
X006781Y008967D03*
X006817Y009412D03*
D77*
X006781Y008995D03*
X007569Y008199D03*
X007939Y008345D03*
X007163Y008129D03*
X006919Y008085D03*
X006864Y008073D03*
X006730Y008054D03*
D78*
X006748Y008073D03*
X006846Y008054D03*
X006996Y008117D03*
X007043Y008089D03*
X007090Y008097D03*
X007224Y008121D03*
X007259Y008164D03*
X007326Y008176D03*
X007448Y008196D03*
X007472Y008164D03*
X007708Y008243D03*
X007819Y008070D03*
X006630Y008239D03*
X006598Y008325D03*
X006598Y008329D03*
X006531Y008581D03*
X006492Y008853D03*
X006748Y009412D03*
X007795Y009184D03*
X007846Y009050D03*
X007960Y008936D03*
D79*
X006783Y009416D03*
X006748Y008058D03*
D80*
X006761Y008062D03*
X007324Y008160D03*
D81*
X006775Y008066D03*
D82*
X006848Y008070D03*
D83*
X006878Y008077D03*
X006897Y008081D03*
X007389Y008168D03*
X007456Y008180D03*
X007633Y008211D03*
X006779Y009424D03*
D84*
X006492Y008825D03*
X006492Y008601D03*
X007763Y008239D03*
X007956Y008085D03*
X008035Y008459D03*
D85*
X007846Y008593D03*
X007366Y008164D03*
X006937Y008089D03*
X006689Y008715D03*
X006779Y009428D03*
D86*
X006494Y008821D03*
X007860Y008585D03*
X008037Y008668D03*
X008033Y008463D03*
X007962Y008089D03*
D87*
X007407Y008172D03*
X007289Y008152D03*
X007254Y008144D03*
X007234Y008140D03*
X007143Y008125D03*
X006962Y008093D03*
D88*
X007750Y008235D03*
X007958Y008093D03*
X007943Y008845D03*
X007946Y008849D03*
X006781Y008987D03*
D89*
X006781Y008991D03*
X006978Y008097D03*
X007108Y008117D03*
X007112Y008121D03*
D90*
X007051Y008101D03*
D91*
X007063Y008105D03*
X007704Y008219D03*
X007704Y008223D03*
D92*
X007067Y008109D03*
D93*
X007088Y008113D03*
X007194Y008136D03*
X007513Y008192D03*
X007340Y009349D03*
X007340Y009357D03*
X006781Y009420D03*
D94*
X007441Y008176D03*
X007590Y008203D03*
X007610Y008207D03*
X007740Y008231D03*
X007189Y008133D03*
D95*
X007324Y008156D03*
D96*
X007496Y008184D03*
X007500Y008188D03*
D97*
X007962Y008361D03*
X008033Y008451D03*
X007600Y008731D03*
X007553Y008692D03*
X007797Y009058D03*
X007813Y009192D03*
X007545Y009432D03*
X007387Y009341D03*
X006494Y008833D03*
X006533Y008318D03*
X006533Y008203D03*
X006820Y008381D03*
X006872Y008420D03*
D98*
X006494Y008609D03*
X007549Y009207D03*
X007549Y009420D03*
X007655Y008215D03*
D99*
X007693Y008633D03*
X007830Y009046D03*
X007527Y009447D03*
X006968Y008699D03*
X006626Y008243D03*
D100*
X007084Y008652D03*
X007730Y008593D03*
X007860Y008581D03*
X007986Y008814D03*
X007281Y009381D03*
X006572Y009255D03*
X006572Y009164D03*
D101*
X007795Y008597D03*
D102*
X007785Y008601D03*
D103*
X007767Y008605D03*
X006771Y008699D03*
D104*
X007746Y008609D03*
D105*
X007683Y008613D03*
D106*
X007645Y008617D03*
X006921Y008684D03*
D107*
X006736Y008719D03*
X007263Y008636D03*
X007728Y008629D03*
X007850Y008617D03*
X007389Y009373D03*
D108*
X007269Y008656D03*
X007569Y008621D03*
D109*
X007570Y008625D03*
D110*
X007523Y008629D03*
X007004Y008676D03*
D111*
X007486Y008633D03*
D112*
X007470Y008636D03*
D113*
X007413Y008640D03*
X007059Y008672D03*
D114*
X007360Y008644D03*
D115*
X007315Y008648D03*
D116*
X007315Y008652D03*
X006799Y008696D03*
D117*
X007179Y008660D03*
D118*
X007131Y008664D03*
D119*
X007210Y008676D03*
X007332Y008664D03*
X006828Y008711D03*
X006781Y008680D03*
X007982Y008940D03*
D120*
X007082Y008668D03*
D121*
X006988Y008680D03*
D122*
X006901Y008688D03*
D123*
X006852Y008692D03*
D124*
X006763Y008703D03*
D125*
X006742Y008707D03*
D126*
X007342Y009353D03*
X007342Y009361D03*
D127*
X007344Y009365D03*
M02*
