G75*
%MOIN*%
%OFA0B0*%
%FSLAX24Y24*%
%IPPOS*%
%LPD*%
%AMOC8*
5,1,8,0,0,1.08239X$1,22.5*
%
%ADD10C,0.0000*%
%ADD11C,0.0780*%
%ADD12R,0.0600X0.0600*%
%ADD13C,0.0600*%
%ADD14C,0.0277*%
%ADD15C,0.0118*%
%ADD16C,0.0079*%
%ADD17C,0.0250*%
%ADD18C,0.0157*%
D10*
X000139Y000149D02*
X000139Y015504D01*
X007029Y015504D01*
X007029Y011960D01*
X011360Y011960D01*
X011360Y015504D01*
X019037Y015504D01*
X019037Y000149D01*
X000139Y000149D01*
X012482Y014047D02*
X012484Y014103D01*
X012490Y014159D01*
X012500Y014215D01*
X012513Y014269D01*
X012531Y014323D01*
X012552Y014375D01*
X012576Y014426D01*
X012605Y014475D01*
X012636Y014521D01*
X012671Y014566D01*
X012708Y014608D01*
X012749Y014647D01*
X012792Y014683D01*
X012838Y014716D01*
X012885Y014746D01*
X012935Y014772D01*
X012987Y014795D01*
X013040Y014815D01*
X013094Y014830D01*
X013149Y014842D01*
X013205Y014850D01*
X013261Y014854D01*
X013317Y014854D01*
X013373Y014850D01*
X013429Y014842D01*
X013484Y014830D01*
X013538Y014815D01*
X013591Y014795D01*
X013643Y014772D01*
X013692Y014746D01*
X013740Y014716D01*
X013786Y014683D01*
X013829Y014647D01*
X013870Y014608D01*
X013907Y014566D01*
X013942Y014521D01*
X013973Y014475D01*
X014002Y014426D01*
X014026Y014375D01*
X014047Y014323D01*
X014065Y014269D01*
X014078Y014215D01*
X014088Y014159D01*
X014094Y014103D01*
X014096Y014047D01*
X014094Y013991D01*
X014088Y013935D01*
X014078Y013879D01*
X014065Y013825D01*
X014047Y013771D01*
X014026Y013719D01*
X014002Y013668D01*
X013973Y013619D01*
X013942Y013573D01*
X013907Y013528D01*
X013870Y013486D01*
X013829Y013447D01*
X013786Y013411D01*
X013740Y013378D01*
X013693Y013348D01*
X013643Y013322D01*
X013591Y013299D01*
X013538Y013279D01*
X013484Y013264D01*
X013429Y013252D01*
X013373Y013244D01*
X013317Y013240D01*
X013261Y013240D01*
X013205Y013244D01*
X013149Y013252D01*
X013094Y013264D01*
X013040Y013279D01*
X012987Y013299D01*
X012935Y013322D01*
X012885Y013348D01*
X012838Y013378D01*
X012792Y013411D01*
X012749Y013447D01*
X012708Y013486D01*
X012671Y013528D01*
X012636Y013573D01*
X012605Y013619D01*
X012576Y013668D01*
X012552Y013719D01*
X012531Y013771D01*
X012513Y013825D01*
X012500Y013879D01*
X012490Y013935D01*
X012484Y013991D01*
X012482Y014047D01*
D11*
X017974Y010897D03*
X017974Y009897D03*
X017974Y006606D03*
X017974Y004874D03*
X001950Y002709D03*
X000950Y002709D03*
D12*
X014313Y002967D03*
D13*
X013313Y002967D03*
X012313Y002967D03*
X011313Y002967D03*
X010313Y002967D03*
X009313Y002967D03*
X008313Y002967D03*
X007313Y002967D03*
X006313Y002967D03*
X005313Y002967D03*
D14*
X017889Y008349D03*
X018489Y007699D03*
D15*
X018489Y009149D01*
X018639Y009299D01*
X018639Y010799D01*
X018539Y010899D01*
X017976Y010899D01*
X017974Y010897D01*
X017974Y006606D02*
X018509Y006610D01*
X018639Y006499D01*
X018639Y001699D01*
X018239Y001299D01*
X007739Y001299D01*
X007313Y001726D01*
X007313Y002967D01*
X008313Y002967D02*
X008313Y001926D01*
X008489Y001749D01*
X017739Y001749D01*
X017974Y001984D01*
X017974Y004874D01*
X006313Y002967D02*
X005385Y002039D01*
X003742Y002039D01*
X003742Y002047D01*
X003089Y002699D01*
X001959Y002699D01*
X001950Y002709D01*
D16*
X001489Y002544D02*
X001454Y002544D01*
X001441Y002505D02*
X001467Y002585D01*
X001468Y002594D01*
X001536Y002431D01*
X001673Y002294D01*
X001853Y002219D01*
X002048Y002219D01*
X002228Y002294D01*
X002365Y002431D01*
X002411Y002541D01*
X003024Y002541D01*
X003583Y001981D01*
X003583Y001974D01*
X003676Y001881D01*
X005450Y001881D01*
X006165Y002596D01*
X006233Y002568D01*
X006392Y002568D01*
X006539Y002629D01*
X006651Y002741D01*
X006712Y002888D01*
X006712Y003047D01*
X006651Y003193D01*
X006539Y003306D01*
X006392Y003367D01*
X006233Y003367D01*
X006086Y003306D01*
X005974Y003193D01*
X005913Y003047D01*
X005913Y002888D01*
X005941Y002820D01*
X005319Y002198D01*
X003815Y002198D01*
X003807Y002206D01*
X003155Y002858D01*
X002418Y002858D01*
X002365Y002986D01*
X002228Y003123D01*
X002048Y003198D01*
X001853Y003198D01*
X001673Y003123D01*
X001536Y002986D01*
X001468Y002823D01*
X001467Y002832D01*
X001441Y002912D01*
X001403Y002986D01*
X001354Y003053D01*
X001295Y003112D01*
X001228Y003161D01*
X001154Y003199D01*
X001074Y003225D01*
X000992Y003238D01*
X000990Y003238D01*
X000990Y002748D01*
X000911Y002748D01*
X000911Y003238D01*
X000909Y003238D01*
X000826Y003225D01*
X000747Y003199D01*
X000673Y003161D01*
X000606Y003112D01*
X000547Y003053D01*
X000498Y002986D01*
X000460Y002912D01*
X000434Y002832D01*
X000421Y002750D01*
X000421Y002748D01*
X000911Y002748D01*
X000911Y002669D01*
X000990Y002669D01*
X000990Y002179D01*
X000992Y002179D01*
X001074Y002192D01*
X001154Y002218D01*
X001228Y002256D01*
X001295Y002305D01*
X001354Y002364D01*
X001403Y002431D01*
X001441Y002505D01*
X001421Y002467D02*
X001521Y002467D01*
X001577Y002389D02*
X001373Y002389D01*
X001303Y002312D02*
X001655Y002312D01*
X001815Y002235D02*
X001187Y002235D01*
X000990Y002235D02*
X000911Y002235D01*
X000911Y002179D02*
X000911Y002669D01*
X000421Y002669D01*
X000421Y002667D01*
X000434Y002585D01*
X000460Y002505D01*
X000498Y002431D01*
X000547Y002364D01*
X000606Y002305D01*
X000673Y002256D01*
X000747Y002218D01*
X000826Y002192D01*
X000909Y002179D01*
X000911Y002179D01*
X000911Y002312D02*
X000990Y002312D01*
X000990Y002389D02*
X000911Y002389D01*
X000911Y002467D02*
X000990Y002467D01*
X000990Y002544D02*
X000911Y002544D01*
X000911Y002621D02*
X000990Y002621D01*
X000911Y002698D02*
X000279Y002698D01*
X000279Y002621D02*
X000428Y002621D01*
X000447Y002544D02*
X000279Y002544D01*
X000279Y002467D02*
X000479Y002467D01*
X000528Y002389D02*
X000279Y002389D01*
X000279Y002312D02*
X000598Y002312D01*
X000714Y002235D02*
X000279Y002235D01*
X000279Y002158D02*
X003407Y002158D01*
X003330Y002235D02*
X002086Y002235D01*
X002246Y002312D02*
X003253Y002312D01*
X003175Y002389D02*
X002323Y002389D01*
X002380Y002467D02*
X003098Y002467D01*
X003392Y002621D02*
X005041Y002621D01*
X005026Y002632D02*
X005082Y002591D01*
X005144Y002560D01*
X005210Y002539D01*
X005273Y002529D01*
X005273Y002928D01*
X004874Y002928D01*
X004884Y002864D01*
X004905Y002799D01*
X004937Y002737D01*
X004977Y002681D01*
X005026Y002632D01*
X004965Y002698D02*
X003314Y002698D01*
X003237Y002776D02*
X004917Y002776D01*
X004888Y002853D02*
X003160Y002853D01*
X003469Y002544D02*
X005193Y002544D01*
X005273Y002544D02*
X005352Y002544D01*
X005352Y002529D02*
X005415Y002539D01*
X005481Y002560D01*
X005543Y002591D01*
X005599Y002632D01*
X005648Y002681D01*
X005688Y002737D01*
X005720Y002799D01*
X005741Y002864D01*
X005751Y002928D01*
X005352Y002928D01*
X005352Y003007D01*
X005273Y003007D01*
X005273Y003406D01*
X005210Y003396D01*
X005144Y003374D01*
X005082Y003343D01*
X005026Y003302D01*
X004977Y003253D01*
X004937Y003197D01*
X004905Y003136D01*
X004884Y003070D01*
X004874Y003007D01*
X002344Y003007D01*
X002388Y002930D02*
X005273Y002930D01*
X005273Y002928D02*
X005273Y003007D01*
X005352Y003007D01*
X005352Y003406D01*
X005415Y003396D01*
X005481Y003374D01*
X005543Y003343D01*
X005599Y003302D01*
X005648Y003253D01*
X005688Y003197D01*
X005720Y003136D01*
X005741Y003070D01*
X005751Y003007D01*
X005913Y003007D01*
X005913Y002930D02*
X005352Y002930D01*
X005352Y002928D02*
X005352Y002529D01*
X005432Y002544D02*
X005665Y002544D01*
X005588Y002467D02*
X003546Y002467D01*
X003623Y002389D02*
X005511Y002389D01*
X005434Y002312D02*
X003701Y002312D01*
X003778Y002235D02*
X005356Y002235D01*
X005650Y002080D02*
X007154Y002080D01*
X007154Y002003D02*
X005573Y002003D01*
X005495Y001926D02*
X007154Y001926D01*
X007154Y001849D02*
X000279Y001849D01*
X000279Y001926D02*
X003631Y001926D01*
X003562Y002003D02*
X000279Y002003D01*
X000279Y002080D02*
X003484Y002080D01*
X002266Y003085D02*
X004889Y003085D01*
X004874Y003007D02*
X005273Y003007D01*
X005273Y003085D02*
X005352Y003085D01*
X005352Y003162D02*
X005273Y003162D01*
X005273Y003239D02*
X005352Y003239D01*
X005352Y003316D02*
X005273Y003316D01*
X005273Y003394D02*
X005352Y003394D01*
X005422Y003394D02*
X013953Y003394D01*
X013959Y003397D02*
X013927Y003379D01*
X013901Y003353D01*
X013883Y003321D01*
X013873Y003286D01*
X013873Y003007D01*
X013712Y003007D01*
X013712Y003047D02*
X013651Y003193D01*
X013539Y003306D01*
X013392Y003367D01*
X013233Y003367D01*
X013086Y003306D01*
X012974Y003193D01*
X012913Y003047D01*
X012913Y002888D01*
X012974Y002741D01*
X013086Y002629D01*
X013233Y002568D01*
X013392Y002568D01*
X013539Y002629D01*
X013651Y002741D01*
X013712Y002888D01*
X013712Y003047D01*
X013696Y003085D02*
X013873Y003085D01*
X013873Y003162D02*
X013664Y003162D01*
X013605Y003239D02*
X013873Y003239D01*
X013881Y003316D02*
X013513Y003316D01*
X013112Y003316D02*
X012513Y003316D01*
X012539Y003306D02*
X012392Y003367D01*
X012233Y003367D01*
X012086Y003306D01*
X011974Y003193D01*
X011913Y003047D01*
X011913Y002888D01*
X011974Y002741D01*
X012086Y002629D01*
X012233Y002568D01*
X012392Y002568D01*
X012539Y002629D01*
X012651Y002741D01*
X012712Y002888D01*
X012712Y003047D01*
X012651Y003193D01*
X012539Y003306D01*
X012605Y003239D02*
X013020Y003239D01*
X012961Y003162D02*
X012664Y003162D01*
X012696Y003085D02*
X012929Y003085D01*
X012913Y003007D02*
X012712Y003007D01*
X012712Y002930D02*
X012913Y002930D01*
X012928Y002853D02*
X012698Y002853D01*
X012666Y002776D02*
X012960Y002776D01*
X013017Y002698D02*
X012609Y002698D01*
X012521Y002621D02*
X013104Y002621D01*
X013521Y002621D02*
X013881Y002621D01*
X013883Y002613D02*
X013901Y002582D01*
X013927Y002556D01*
X013959Y002537D01*
X013994Y002528D01*
X014273Y002528D01*
X014273Y002928D01*
X013873Y002928D01*
X013873Y002649D01*
X013883Y002613D01*
X013873Y002698D02*
X013609Y002698D01*
X013666Y002776D02*
X013873Y002776D01*
X013873Y002853D02*
X013698Y002853D01*
X013712Y002930D02*
X014273Y002930D01*
X014273Y002928D02*
X014273Y003007D01*
X014352Y003007D01*
X014273Y003007D01*
X014273Y003407D01*
X013994Y003407D01*
X013959Y003397D01*
X014273Y003394D02*
X014352Y003394D01*
X014352Y003407D02*
X014352Y003007D01*
X014752Y003007D01*
X017816Y003007D01*
X017816Y002930D02*
X014352Y002930D01*
X014352Y002928D02*
X014352Y003007D01*
X014352Y003085D02*
X014273Y003085D01*
X014273Y003162D02*
X014352Y003162D01*
X014352Y003239D02*
X014273Y003239D01*
X014273Y003316D02*
X014352Y003316D01*
X014352Y003407D02*
X014631Y003407D01*
X014666Y003397D01*
X014698Y003379D01*
X014724Y003353D01*
X014742Y003321D01*
X014752Y003286D01*
X014752Y003007D01*
X014752Y003085D02*
X017816Y003085D01*
X017816Y003162D02*
X014752Y003162D01*
X014752Y003239D02*
X017816Y003239D01*
X017816Y003316D02*
X014744Y003316D01*
X014672Y003394D02*
X017816Y003394D01*
X017816Y003471D02*
X000279Y003471D01*
X000279Y003548D02*
X017816Y003548D01*
X017816Y003625D02*
X000279Y003625D01*
X000279Y003703D02*
X017816Y003703D01*
X017816Y003780D02*
X000279Y003780D01*
X000279Y003857D02*
X017816Y003857D01*
X017816Y003934D02*
X000279Y003934D01*
X000279Y004011D02*
X017816Y004011D01*
X017816Y004089D02*
X000279Y004089D01*
X000279Y004166D02*
X017816Y004166D01*
X017816Y004243D02*
X000279Y004243D01*
X000279Y004320D02*
X017816Y004320D01*
X017816Y004398D02*
X000279Y004398D01*
X000279Y004475D02*
X017681Y004475D01*
X017697Y004459D02*
X017816Y004410D01*
X017816Y002050D01*
X017674Y001908D01*
X008555Y001908D01*
X008471Y001992D01*
X008471Y002601D01*
X008539Y002629D01*
X008651Y002741D01*
X008712Y002888D01*
X008712Y003047D01*
X008651Y003193D01*
X008539Y003306D01*
X008392Y003367D01*
X008233Y003367D01*
X008086Y003306D01*
X007974Y003193D01*
X007913Y003047D01*
X007913Y002888D01*
X007974Y002741D01*
X008086Y002629D01*
X008154Y002601D01*
X008154Y001861D01*
X008247Y001768D01*
X008424Y001591D01*
X017805Y001591D01*
X017898Y001684D01*
X018132Y001918D01*
X018132Y004410D01*
X018251Y004459D01*
X018389Y004597D01*
X018463Y004777D01*
X018463Y004971D01*
X018389Y005151D01*
X018251Y005289D01*
X018071Y005363D01*
X017877Y005363D01*
X017697Y005289D01*
X017559Y005151D01*
X017485Y004971D01*
X017485Y004777D01*
X017559Y004597D01*
X017697Y004459D01*
X017604Y004552D02*
X000279Y004552D01*
X000279Y004629D02*
X017546Y004629D01*
X017514Y004707D02*
X000279Y004707D01*
X000279Y004784D02*
X017485Y004784D01*
X017485Y004861D02*
X000279Y004861D01*
X000279Y004938D02*
X017485Y004938D01*
X017503Y005016D02*
X000279Y005016D01*
X000279Y005093D02*
X017535Y005093D01*
X017578Y005170D02*
X000279Y005170D01*
X000279Y005247D02*
X017655Y005247D01*
X017783Y005325D02*
X000279Y005325D01*
X000279Y005402D02*
X018481Y005402D01*
X018481Y005479D02*
X000279Y005479D01*
X000279Y005556D02*
X018481Y005556D01*
X018481Y005634D02*
X000279Y005634D01*
X000279Y005711D02*
X018481Y005711D01*
X018481Y005788D02*
X017108Y005788D01*
X017108Y005784D02*
X017108Y011944D01*
X017108Y011977D01*
X017085Y012000D01*
X011499Y012000D01*
X011499Y015364D01*
X018898Y015364D01*
X018898Y000289D01*
X000279Y000289D01*
X000279Y015364D01*
X006890Y015364D01*
X006890Y012000D01*
X004847Y012000D01*
X004824Y011977D01*
X004824Y005751D01*
X004847Y005728D01*
X017085Y005728D01*
X017108Y005751D01*
X017108Y005784D01*
X017108Y005865D02*
X018481Y005865D01*
X018481Y005942D02*
X017108Y005942D01*
X017108Y006020D02*
X018481Y006020D01*
X018481Y006097D02*
X017108Y006097D01*
X017108Y006174D02*
X017738Y006174D01*
X017697Y006191D02*
X017877Y006117D01*
X018071Y006117D01*
X018251Y006191D01*
X018389Y006329D01*
X018439Y006451D01*
X018451Y006451D01*
X018481Y006426D01*
X018481Y001765D01*
X018174Y001458D01*
X007805Y001458D01*
X007471Y001792D01*
X007471Y002601D01*
X007539Y002629D01*
X007651Y002741D01*
X007712Y002888D01*
X007712Y003047D01*
X007651Y003193D01*
X007539Y003306D01*
X007392Y003367D01*
X007233Y003367D01*
X007086Y003306D01*
X006974Y003193D01*
X006913Y003047D01*
X006913Y002888D01*
X006974Y002741D01*
X007086Y002629D01*
X007154Y002601D01*
X007154Y001661D01*
X007247Y001568D01*
X007674Y001141D01*
X018305Y001141D01*
X018398Y001234D01*
X018798Y001634D01*
X018798Y006441D01*
X018803Y006447D01*
X018798Y006506D01*
X018798Y006565D01*
X018793Y006570D01*
X018792Y006578D01*
X018747Y006616D01*
X018705Y006658D01*
X018698Y006658D01*
X018616Y006727D01*
X018574Y006769D01*
X018567Y006769D01*
X018562Y006773D01*
X018502Y006768D01*
X018437Y006768D01*
X018389Y006883D01*
X018251Y007021D01*
X018071Y007096D01*
X017877Y007096D01*
X017697Y007021D01*
X017559Y006883D01*
X017485Y006703D01*
X017485Y006509D01*
X017559Y006329D01*
X017697Y006191D01*
X017637Y006251D02*
X017108Y006251D01*
X017108Y006329D02*
X017559Y006329D01*
X017527Y006406D02*
X017108Y006406D01*
X017108Y006483D02*
X017495Y006483D01*
X017485Y006560D02*
X017108Y006560D01*
X017108Y006638D02*
X017485Y006638D01*
X017489Y006715D02*
X017108Y006715D01*
X017108Y006792D02*
X017521Y006792D01*
X017553Y006869D02*
X017108Y006869D01*
X017108Y006947D02*
X017622Y006947D01*
X017704Y007024D02*
X017108Y007024D01*
X017108Y007101D02*
X018898Y007101D01*
X018898Y007024D02*
X018244Y007024D01*
X018326Y006947D02*
X018898Y006947D01*
X018898Y006869D02*
X018395Y006869D01*
X018427Y006792D02*
X018898Y006792D01*
X018898Y006715D02*
X018630Y006715D01*
X018725Y006638D02*
X018898Y006638D01*
X018898Y006560D02*
X018798Y006560D01*
X018800Y006483D02*
X018898Y006483D01*
X018898Y006406D02*
X018798Y006406D01*
X018798Y006329D02*
X018898Y006329D01*
X018898Y006251D02*
X018798Y006251D01*
X018798Y006174D02*
X018898Y006174D01*
X018898Y006097D02*
X018798Y006097D01*
X018798Y006020D02*
X018898Y006020D01*
X018898Y005942D02*
X018798Y005942D01*
X018798Y005865D02*
X018898Y005865D01*
X018898Y005788D02*
X018798Y005788D01*
X018798Y005711D02*
X018898Y005711D01*
X018898Y005634D02*
X018798Y005634D01*
X018798Y005556D02*
X018898Y005556D01*
X018898Y005479D02*
X018798Y005479D01*
X018798Y005402D02*
X018898Y005402D01*
X018898Y005325D02*
X018798Y005325D01*
X018798Y005247D02*
X018898Y005247D01*
X018898Y005170D02*
X018798Y005170D01*
X018798Y005093D02*
X018898Y005093D01*
X018898Y005016D02*
X018798Y005016D01*
X018798Y004938D02*
X018898Y004938D01*
X018898Y004861D02*
X018798Y004861D01*
X018798Y004784D02*
X018898Y004784D01*
X018898Y004707D02*
X018798Y004707D01*
X018798Y004629D02*
X018898Y004629D01*
X018898Y004552D02*
X018798Y004552D01*
X018798Y004475D02*
X018898Y004475D01*
X018898Y004398D02*
X018798Y004398D01*
X018798Y004320D02*
X018898Y004320D01*
X018898Y004243D02*
X018798Y004243D01*
X018798Y004166D02*
X018898Y004166D01*
X018898Y004089D02*
X018798Y004089D01*
X018798Y004011D02*
X018898Y004011D01*
X018898Y003934D02*
X018798Y003934D01*
X018798Y003857D02*
X018898Y003857D01*
X018898Y003780D02*
X018798Y003780D01*
X018798Y003703D02*
X018898Y003703D01*
X018898Y003625D02*
X018798Y003625D01*
X018798Y003548D02*
X018898Y003548D01*
X018898Y003471D02*
X018798Y003471D01*
X018798Y003394D02*
X018898Y003394D01*
X018898Y003316D02*
X018798Y003316D01*
X018798Y003239D02*
X018898Y003239D01*
X018898Y003162D02*
X018798Y003162D01*
X018798Y003085D02*
X018898Y003085D01*
X018898Y003007D02*
X018798Y003007D01*
X018798Y002930D02*
X018898Y002930D01*
X018898Y002853D02*
X018798Y002853D01*
X018798Y002776D02*
X018898Y002776D01*
X018898Y002698D02*
X018798Y002698D01*
X018798Y002621D02*
X018898Y002621D01*
X018898Y002544D02*
X018798Y002544D01*
X018798Y002467D02*
X018898Y002467D01*
X018898Y002389D02*
X018798Y002389D01*
X018798Y002312D02*
X018898Y002312D01*
X018898Y002235D02*
X018798Y002235D01*
X018798Y002158D02*
X018898Y002158D01*
X018898Y002080D02*
X018798Y002080D01*
X018798Y002003D02*
X018898Y002003D01*
X018898Y001926D02*
X018798Y001926D01*
X018798Y001849D02*
X018898Y001849D01*
X018898Y001771D02*
X018798Y001771D01*
X018798Y001694D02*
X018898Y001694D01*
X018898Y001617D02*
X018781Y001617D01*
X018704Y001540D02*
X018898Y001540D01*
X018898Y001463D02*
X018627Y001463D01*
X018549Y001385D02*
X018898Y001385D01*
X018898Y001308D02*
X018472Y001308D01*
X018395Y001231D02*
X018898Y001231D01*
X018898Y001154D02*
X018318Y001154D01*
X018178Y001463D02*
X007800Y001463D01*
X007723Y001540D02*
X018256Y001540D01*
X018333Y001617D02*
X017831Y001617D01*
X017908Y001694D02*
X018410Y001694D01*
X018481Y001771D02*
X017985Y001771D01*
X018063Y001849D02*
X018481Y001849D01*
X018481Y001926D02*
X018132Y001926D01*
X018132Y002003D02*
X018481Y002003D01*
X018481Y002080D02*
X018132Y002080D01*
X018132Y002158D02*
X018481Y002158D01*
X018481Y002235D02*
X018132Y002235D01*
X018132Y002312D02*
X018481Y002312D01*
X018481Y002389D02*
X018132Y002389D01*
X018132Y002467D02*
X018481Y002467D01*
X018481Y002544D02*
X018132Y002544D01*
X018132Y002621D02*
X018481Y002621D01*
X018481Y002698D02*
X018132Y002698D01*
X018132Y002776D02*
X018481Y002776D01*
X018481Y002853D02*
X018132Y002853D01*
X018132Y002930D02*
X018481Y002930D01*
X018481Y003007D02*
X018132Y003007D01*
X018132Y003085D02*
X018481Y003085D01*
X018481Y003162D02*
X018132Y003162D01*
X018132Y003239D02*
X018481Y003239D01*
X018481Y003316D02*
X018132Y003316D01*
X018132Y003394D02*
X018481Y003394D01*
X018481Y003471D02*
X018132Y003471D01*
X018132Y003548D02*
X018481Y003548D01*
X018481Y003625D02*
X018132Y003625D01*
X018132Y003703D02*
X018481Y003703D01*
X018481Y003780D02*
X018132Y003780D01*
X018132Y003857D02*
X018481Y003857D01*
X018481Y003934D02*
X018132Y003934D01*
X018132Y004011D02*
X018481Y004011D01*
X018481Y004089D02*
X018132Y004089D01*
X018132Y004166D02*
X018481Y004166D01*
X018481Y004243D02*
X018132Y004243D01*
X018132Y004320D02*
X018481Y004320D01*
X018481Y004398D02*
X018132Y004398D01*
X018267Y004475D02*
X018481Y004475D01*
X018481Y004552D02*
X018344Y004552D01*
X018402Y004629D02*
X018481Y004629D01*
X018481Y004707D02*
X018434Y004707D01*
X018463Y004784D02*
X018481Y004784D01*
X018481Y004861D02*
X018463Y004861D01*
X018463Y004938D02*
X018481Y004938D01*
X018481Y005016D02*
X018445Y005016D01*
X018413Y005093D02*
X018481Y005093D01*
X018481Y005170D02*
X018370Y005170D01*
X018293Y005247D02*
X018481Y005247D01*
X018481Y005325D02*
X018165Y005325D01*
X018210Y006174D02*
X018481Y006174D01*
X018481Y006251D02*
X018311Y006251D01*
X018389Y006329D02*
X018481Y006329D01*
X018481Y006406D02*
X018421Y006406D01*
X018898Y007178D02*
X017108Y007178D01*
X017108Y007256D02*
X018898Y007256D01*
X018898Y007333D02*
X017108Y007333D01*
X017108Y007410D02*
X018898Y007410D01*
X018898Y007487D02*
X018614Y007487D01*
X018588Y007461D02*
X018727Y007601D01*
X018727Y007798D01*
X018648Y007878D01*
X018648Y009084D01*
X018705Y009141D01*
X018798Y009234D01*
X018798Y010865D01*
X018705Y010958D01*
X018698Y010965D01*
X018605Y011058D01*
X018437Y011058D01*
X018389Y011175D01*
X018251Y011312D01*
X018071Y011387D01*
X017877Y011387D01*
X017697Y011312D01*
X017559Y011175D01*
X017485Y010995D01*
X017485Y010800D01*
X017559Y010620D01*
X017697Y010483D01*
X017877Y010408D01*
X018071Y010408D01*
X018251Y010483D01*
X018389Y010620D01*
X018439Y010741D01*
X018474Y010741D01*
X018481Y010734D01*
X018481Y009365D01*
X018331Y009215D01*
X018331Y007878D01*
X018251Y007798D01*
X018251Y007601D01*
X018391Y007461D01*
X018588Y007461D01*
X018691Y007565D02*
X018898Y007565D01*
X018898Y007642D02*
X018727Y007642D01*
X018727Y007719D02*
X018898Y007719D01*
X018898Y007796D02*
X018727Y007796D01*
X018652Y007873D02*
X018898Y007873D01*
X018898Y007951D02*
X018648Y007951D01*
X018648Y008028D02*
X018898Y008028D01*
X018898Y008105D02*
X018648Y008105D01*
X018648Y008182D02*
X018898Y008182D01*
X018898Y008260D02*
X018648Y008260D01*
X018648Y008337D02*
X018898Y008337D01*
X018898Y008414D02*
X018648Y008414D01*
X018648Y008491D02*
X018898Y008491D01*
X018898Y008569D02*
X018648Y008569D01*
X018648Y008646D02*
X018898Y008646D01*
X018898Y008723D02*
X018648Y008723D01*
X018648Y008800D02*
X018898Y008800D01*
X018898Y008878D02*
X018648Y008878D01*
X018648Y008955D02*
X018898Y008955D01*
X018898Y009032D02*
X018648Y009032D01*
X018673Y009109D02*
X018898Y009109D01*
X018898Y009187D02*
X018751Y009187D01*
X018798Y009264D02*
X018898Y009264D01*
X018898Y009341D02*
X018798Y009341D01*
X018798Y009418D02*
X018898Y009418D01*
X018898Y009496D02*
X018798Y009496D01*
X018798Y009573D02*
X018898Y009573D01*
X018898Y009650D02*
X018798Y009650D01*
X018798Y009727D02*
X018898Y009727D01*
X018898Y009804D02*
X018798Y009804D01*
X018798Y009882D02*
X018898Y009882D01*
X018898Y009959D02*
X018798Y009959D01*
X018798Y010036D02*
X018898Y010036D01*
X018898Y010113D02*
X018798Y010113D01*
X018798Y010191D02*
X018898Y010191D01*
X018898Y010268D02*
X018798Y010268D01*
X018798Y010345D02*
X018898Y010345D01*
X018898Y010422D02*
X018798Y010422D01*
X018798Y010500D02*
X018898Y010500D01*
X018898Y010577D02*
X018798Y010577D01*
X018798Y010654D02*
X018898Y010654D01*
X018898Y010731D02*
X018798Y010731D01*
X018798Y010809D02*
X018898Y010809D01*
X018898Y010886D02*
X018777Y010886D01*
X018705Y010958D02*
X018705Y010958D01*
X018700Y010963D02*
X018898Y010963D01*
X018898Y011040D02*
X018623Y011040D01*
X018698Y010965D02*
X018698Y010965D01*
X018898Y011118D02*
X018413Y011118D01*
X018369Y011195D02*
X018898Y011195D01*
X018898Y011272D02*
X018292Y011272D01*
X018162Y011349D02*
X018898Y011349D01*
X018898Y011427D02*
X017108Y011427D01*
X017108Y011504D02*
X018898Y011504D01*
X018898Y011581D02*
X017108Y011581D01*
X017108Y011658D02*
X018898Y011658D01*
X018898Y011736D02*
X017108Y011736D01*
X017108Y011813D02*
X018898Y011813D01*
X018898Y011890D02*
X017108Y011890D01*
X017108Y011967D02*
X018898Y011967D01*
X018898Y012044D02*
X011499Y012044D01*
X011499Y012122D02*
X018898Y012122D01*
X018898Y012199D02*
X011499Y012199D01*
X011499Y012276D02*
X018898Y012276D01*
X018898Y012353D02*
X011499Y012353D01*
X011499Y012431D02*
X018898Y012431D01*
X018898Y012508D02*
X011499Y012508D01*
X011499Y012585D02*
X018898Y012585D01*
X018898Y012662D02*
X011499Y012662D01*
X011499Y012740D02*
X018898Y012740D01*
X018898Y012817D02*
X011499Y012817D01*
X011499Y012894D02*
X018898Y012894D01*
X018898Y012971D02*
X011499Y012971D01*
X011499Y013049D02*
X018898Y013049D01*
X018898Y013126D02*
X013538Y013126D01*
X013477Y013101D02*
X013825Y013245D01*
X014091Y013511D01*
X014235Y013859D01*
X014235Y014235D01*
X014091Y014583D01*
X013825Y014849D01*
X013477Y014994D01*
X013101Y014994D01*
X012753Y014849D01*
X012487Y014583D01*
X012343Y014235D01*
X012343Y013859D01*
X012487Y013511D01*
X012753Y013245D01*
X013101Y013101D01*
X013477Y013101D01*
X013725Y013203D02*
X018898Y013203D01*
X018898Y013280D02*
X013861Y013280D01*
X013938Y013358D02*
X018898Y013358D01*
X018898Y013435D02*
X014015Y013435D01*
X014092Y013512D02*
X018898Y013512D01*
X018898Y013589D02*
X014124Y013589D01*
X014156Y013667D02*
X018898Y013667D01*
X018898Y013744D02*
X014188Y013744D01*
X014220Y013821D02*
X018898Y013821D01*
X018898Y013898D02*
X014235Y013898D01*
X014235Y013975D02*
X018898Y013975D01*
X018898Y014053D02*
X014235Y014053D01*
X014235Y014130D02*
X018898Y014130D01*
X018898Y014207D02*
X014235Y014207D01*
X014215Y014284D02*
X018898Y014284D01*
X018898Y014362D02*
X014183Y014362D01*
X014151Y014439D02*
X018898Y014439D01*
X018898Y014516D02*
X014119Y014516D01*
X014081Y014593D02*
X018898Y014593D01*
X018898Y014671D02*
X014004Y014671D01*
X013927Y014748D02*
X018898Y014748D01*
X018898Y014825D02*
X013849Y014825D01*
X013697Y014902D02*
X018898Y014902D01*
X018898Y014980D02*
X013511Y014980D01*
X013067Y014980D02*
X011499Y014980D01*
X011499Y015057D02*
X018898Y015057D01*
X018898Y015134D02*
X011499Y015134D01*
X011499Y015211D02*
X018898Y015211D01*
X018898Y015289D02*
X011499Y015289D01*
X011499Y014902D02*
X012881Y014902D01*
X012729Y014825D02*
X011499Y014825D01*
X011499Y014748D02*
X012651Y014748D01*
X012574Y014671D02*
X011499Y014671D01*
X011499Y014593D02*
X012497Y014593D01*
X012459Y014516D02*
X011499Y014516D01*
X011499Y014439D02*
X012427Y014439D01*
X012395Y014362D02*
X011499Y014362D01*
X011499Y014284D02*
X012363Y014284D01*
X012343Y014207D02*
X011499Y014207D01*
X011499Y014130D02*
X012343Y014130D01*
X012343Y014053D02*
X011499Y014053D01*
X011499Y013975D02*
X012343Y013975D01*
X012343Y013898D02*
X011499Y013898D01*
X011499Y013821D02*
X012358Y013821D01*
X012390Y013744D02*
X011499Y013744D01*
X011499Y013667D02*
X012422Y013667D01*
X012454Y013589D02*
X011499Y013589D01*
X011499Y013512D02*
X012486Y013512D01*
X012563Y013435D02*
X011499Y013435D01*
X011499Y013358D02*
X012640Y013358D01*
X012717Y013280D02*
X011499Y013280D01*
X011499Y013203D02*
X012853Y013203D01*
X013040Y013126D02*
X011499Y013126D01*
X006890Y013126D02*
X000279Y013126D01*
X000279Y013203D02*
X006890Y013203D01*
X006890Y013280D02*
X000279Y013280D01*
X000279Y013358D02*
X006890Y013358D01*
X006890Y013435D02*
X000279Y013435D01*
X000279Y013512D02*
X006890Y013512D01*
X006890Y013589D02*
X000279Y013589D01*
X000279Y013667D02*
X006890Y013667D01*
X006890Y013744D02*
X000279Y013744D01*
X000279Y013821D02*
X006890Y013821D01*
X006890Y013898D02*
X000279Y013898D01*
X000279Y013975D02*
X006890Y013975D01*
X006890Y014053D02*
X000279Y014053D01*
X000279Y014130D02*
X006890Y014130D01*
X006890Y014207D02*
X000279Y014207D01*
X000279Y014284D02*
X006890Y014284D01*
X006890Y014362D02*
X000279Y014362D01*
X000279Y014439D02*
X006890Y014439D01*
X006890Y014516D02*
X000279Y014516D01*
X000279Y014593D02*
X006890Y014593D01*
X006890Y014671D02*
X000279Y014671D01*
X000279Y014748D02*
X006890Y014748D01*
X006890Y014825D02*
X000279Y014825D01*
X000279Y014902D02*
X006890Y014902D01*
X006890Y014980D02*
X000279Y014980D01*
X000279Y015057D02*
X006890Y015057D01*
X006890Y015134D02*
X000279Y015134D01*
X000279Y015211D02*
X006890Y015211D01*
X006890Y015289D02*
X000279Y015289D01*
X000279Y013049D02*
X006890Y013049D01*
X006890Y012971D02*
X000279Y012971D01*
X000279Y012894D02*
X006890Y012894D01*
X006890Y012817D02*
X000279Y012817D01*
X000279Y012740D02*
X006890Y012740D01*
X006890Y012662D02*
X000279Y012662D01*
X000279Y012585D02*
X006890Y012585D01*
X006890Y012508D02*
X000279Y012508D01*
X000279Y012431D02*
X006890Y012431D01*
X006890Y012353D02*
X000279Y012353D01*
X000279Y012276D02*
X006890Y012276D01*
X006890Y012199D02*
X000279Y012199D01*
X000279Y012122D02*
X006890Y012122D01*
X006890Y012044D02*
X000279Y012044D01*
X000279Y011967D02*
X004824Y011967D01*
X004824Y011890D02*
X000279Y011890D01*
X000279Y011813D02*
X004824Y011813D01*
X004824Y011736D02*
X000279Y011736D01*
X000279Y011658D02*
X004824Y011658D01*
X004824Y011581D02*
X000279Y011581D01*
X000279Y011504D02*
X004824Y011504D01*
X004824Y011427D02*
X000279Y011427D01*
X000279Y011349D02*
X004824Y011349D01*
X004824Y011272D02*
X000279Y011272D01*
X000279Y011195D02*
X004824Y011195D01*
X004824Y011118D02*
X000279Y011118D01*
X000279Y011040D02*
X004824Y011040D01*
X004824Y010963D02*
X000279Y010963D01*
X000279Y010886D02*
X004824Y010886D01*
X004824Y010809D02*
X000279Y010809D01*
X000279Y010731D02*
X004824Y010731D01*
X004824Y010654D02*
X000279Y010654D01*
X000279Y010577D02*
X004824Y010577D01*
X004824Y010500D02*
X000279Y010500D01*
X000279Y010422D02*
X004824Y010422D01*
X004824Y010345D02*
X000279Y010345D01*
X000279Y010268D02*
X004824Y010268D01*
X004824Y010191D02*
X000279Y010191D01*
X000279Y010113D02*
X004824Y010113D01*
X004824Y010036D02*
X000279Y010036D01*
X000279Y009959D02*
X004824Y009959D01*
X004824Y009882D02*
X000279Y009882D01*
X000279Y009804D02*
X004824Y009804D01*
X004824Y009727D02*
X000279Y009727D01*
X000279Y009650D02*
X004824Y009650D01*
X004824Y009573D02*
X000279Y009573D01*
X000279Y009496D02*
X004824Y009496D01*
X004824Y009418D02*
X000279Y009418D01*
X000279Y009341D02*
X004824Y009341D01*
X004824Y009264D02*
X000279Y009264D01*
X000279Y009187D02*
X004824Y009187D01*
X004824Y009109D02*
X000279Y009109D01*
X000279Y009032D02*
X004824Y009032D01*
X004824Y008955D02*
X000279Y008955D01*
X000279Y008878D02*
X004824Y008878D01*
X004824Y008800D02*
X000279Y008800D01*
X000279Y008723D02*
X004824Y008723D01*
X004824Y008646D02*
X000279Y008646D01*
X000279Y008569D02*
X004824Y008569D01*
X004824Y008491D02*
X000279Y008491D01*
X000279Y008414D02*
X004824Y008414D01*
X004824Y008337D02*
X000279Y008337D01*
X000279Y008260D02*
X004824Y008260D01*
X004824Y008182D02*
X000279Y008182D01*
X000279Y008105D02*
X004824Y008105D01*
X004824Y008028D02*
X000279Y008028D01*
X000279Y007951D02*
X004824Y007951D01*
X004824Y007873D02*
X000279Y007873D01*
X000279Y007796D02*
X004824Y007796D01*
X004824Y007719D02*
X000279Y007719D01*
X000279Y007642D02*
X004824Y007642D01*
X004824Y007565D02*
X000279Y007565D01*
X000279Y007487D02*
X004824Y007487D01*
X004824Y007410D02*
X000279Y007410D01*
X000279Y007333D02*
X004824Y007333D01*
X004824Y007256D02*
X000279Y007256D01*
X000279Y007178D02*
X004824Y007178D01*
X004824Y007101D02*
X000279Y007101D01*
X000279Y007024D02*
X004824Y007024D01*
X004824Y006947D02*
X000279Y006947D01*
X000279Y006869D02*
X004824Y006869D01*
X004824Y006792D02*
X000279Y006792D01*
X000279Y006715D02*
X004824Y006715D01*
X004824Y006638D02*
X000279Y006638D01*
X000279Y006560D02*
X004824Y006560D01*
X004824Y006483D02*
X000279Y006483D01*
X000279Y006406D02*
X004824Y006406D01*
X004824Y006329D02*
X000279Y006329D01*
X000279Y006251D02*
X004824Y006251D01*
X004824Y006174D02*
X000279Y006174D01*
X000279Y006097D02*
X004824Y006097D01*
X004824Y006020D02*
X000279Y006020D01*
X000279Y005942D02*
X004824Y005942D01*
X004824Y005865D02*
X000279Y005865D01*
X000279Y005788D02*
X004824Y005788D01*
X005203Y003394D02*
X000279Y003394D01*
X000279Y003316D02*
X005046Y003316D01*
X004967Y003239D02*
X000279Y003239D01*
X000279Y003162D02*
X000674Y003162D01*
X000578Y003085D02*
X000279Y003085D01*
X000279Y003007D02*
X000513Y003007D01*
X000469Y002930D02*
X000279Y002930D01*
X000279Y002853D02*
X000441Y002853D01*
X000425Y002776D02*
X000279Y002776D01*
X000911Y002776D02*
X000990Y002776D01*
X000990Y002853D02*
X000911Y002853D01*
X000911Y002930D02*
X000990Y002930D01*
X000990Y003007D02*
X000911Y003007D01*
X000911Y003085D02*
X000990Y003085D01*
X000990Y003162D02*
X000911Y003162D01*
X001227Y003162D02*
X001766Y003162D01*
X001634Y003085D02*
X001323Y003085D01*
X001388Y003007D02*
X001557Y003007D01*
X001512Y002930D02*
X001432Y002930D01*
X001460Y002853D02*
X001480Y002853D01*
X002135Y003162D02*
X004919Y003162D01*
X005273Y002928D02*
X005352Y002928D01*
X005352Y002853D02*
X005273Y002853D01*
X005273Y002776D02*
X005352Y002776D01*
X005352Y002698D02*
X005273Y002698D01*
X005273Y002621D02*
X005352Y002621D01*
X005584Y002621D02*
X005743Y002621D01*
X005820Y002698D02*
X005660Y002698D01*
X005708Y002776D02*
X005897Y002776D01*
X005928Y002853D02*
X005737Y002853D01*
X005751Y003007D02*
X005352Y003007D01*
X005658Y003239D02*
X006020Y003239D01*
X005961Y003162D02*
X005707Y003162D01*
X005736Y003085D02*
X005929Y003085D01*
X006112Y003316D02*
X005580Y003316D01*
X006513Y003316D02*
X007112Y003316D01*
X007020Y003239D02*
X006605Y003239D01*
X006664Y003162D02*
X006961Y003162D01*
X006929Y003085D02*
X006696Y003085D01*
X006712Y003007D02*
X006913Y003007D01*
X006913Y002930D02*
X006712Y002930D01*
X006698Y002853D02*
X006928Y002853D01*
X006960Y002776D02*
X006666Y002776D01*
X006609Y002698D02*
X007017Y002698D01*
X007104Y002621D02*
X006521Y002621D01*
X006113Y002544D02*
X007154Y002544D01*
X007154Y002467D02*
X006036Y002467D01*
X005959Y002389D02*
X007154Y002389D01*
X007154Y002312D02*
X005882Y002312D01*
X005804Y002235D02*
X007154Y002235D01*
X007154Y002158D02*
X005727Y002158D01*
X007154Y001771D02*
X000279Y001771D01*
X000279Y001694D02*
X007154Y001694D01*
X007198Y001617D02*
X000279Y001617D01*
X000279Y001540D02*
X007275Y001540D01*
X007352Y001463D02*
X000279Y001463D01*
X000279Y001385D02*
X007429Y001385D01*
X007507Y001308D02*
X000279Y001308D01*
X000279Y001231D02*
X007584Y001231D01*
X007661Y001154D02*
X000279Y001154D01*
X000279Y001076D02*
X018898Y001076D01*
X018898Y000999D02*
X000279Y000999D01*
X000279Y000922D02*
X018898Y000922D01*
X018898Y000845D02*
X000279Y000845D01*
X000279Y000767D02*
X018898Y000767D01*
X018898Y000690D02*
X000279Y000690D01*
X000279Y000613D02*
X018898Y000613D01*
X018898Y000536D02*
X000279Y000536D01*
X000279Y000458D02*
X018898Y000458D01*
X018898Y000381D02*
X000279Y000381D01*
X000279Y000304D02*
X018898Y000304D01*
X017692Y001926D02*
X008537Y001926D01*
X008471Y002003D02*
X017769Y002003D01*
X017816Y002080D02*
X008471Y002080D01*
X008471Y002158D02*
X017816Y002158D01*
X017816Y002235D02*
X008471Y002235D01*
X008471Y002312D02*
X017816Y002312D01*
X017816Y002389D02*
X008471Y002389D01*
X008471Y002467D02*
X017816Y002467D01*
X017816Y002544D02*
X014678Y002544D01*
X014666Y002537D02*
X014698Y002556D01*
X014724Y002582D01*
X014742Y002613D01*
X014752Y002649D01*
X014752Y002928D01*
X014352Y002928D01*
X014352Y002528D01*
X014631Y002528D01*
X014666Y002537D01*
X014745Y002621D02*
X017816Y002621D01*
X017816Y002698D02*
X014752Y002698D01*
X014752Y002776D02*
X017816Y002776D01*
X017816Y002853D02*
X014752Y002853D01*
X014352Y002853D02*
X014273Y002853D01*
X014273Y002928D02*
X014352Y002928D01*
X014273Y003007D02*
X013873Y003007D01*
X014273Y002776D02*
X014352Y002776D01*
X014352Y002698D02*
X014273Y002698D01*
X014273Y002621D02*
X014352Y002621D01*
X014352Y002544D02*
X014273Y002544D01*
X013947Y002544D02*
X008471Y002544D01*
X008521Y002621D02*
X009104Y002621D01*
X009086Y002629D02*
X009233Y002568D01*
X009392Y002568D01*
X009539Y002629D01*
X009651Y002741D01*
X009712Y002888D01*
X009712Y003047D01*
X009651Y003193D01*
X009539Y003306D01*
X009392Y003367D01*
X009233Y003367D01*
X009086Y003306D01*
X008974Y003193D01*
X008913Y003047D01*
X008913Y002888D01*
X008974Y002741D01*
X009086Y002629D01*
X009017Y002698D02*
X008609Y002698D01*
X008666Y002776D02*
X008960Y002776D01*
X008928Y002853D02*
X008698Y002853D01*
X008712Y002930D02*
X008913Y002930D01*
X008913Y003007D02*
X008712Y003007D01*
X008696Y003085D02*
X008929Y003085D01*
X008961Y003162D02*
X008664Y003162D01*
X008605Y003239D02*
X009020Y003239D01*
X009112Y003316D02*
X008513Y003316D01*
X008112Y003316D02*
X007513Y003316D01*
X007605Y003239D02*
X008020Y003239D01*
X007961Y003162D02*
X007664Y003162D01*
X007696Y003085D02*
X007929Y003085D01*
X007913Y003007D02*
X007712Y003007D01*
X007712Y002930D02*
X007913Y002930D01*
X007928Y002853D02*
X007698Y002853D01*
X007666Y002776D02*
X007960Y002776D01*
X008017Y002698D02*
X007609Y002698D01*
X007521Y002621D02*
X008104Y002621D01*
X008154Y002544D02*
X007471Y002544D01*
X007471Y002467D02*
X008154Y002467D01*
X008154Y002389D02*
X007471Y002389D01*
X007471Y002312D02*
X008154Y002312D01*
X008154Y002235D02*
X007471Y002235D01*
X007471Y002158D02*
X008154Y002158D01*
X008154Y002080D02*
X007471Y002080D01*
X007471Y002003D02*
X008154Y002003D01*
X008154Y001926D02*
X007471Y001926D01*
X007471Y001849D02*
X008166Y001849D01*
X008243Y001771D02*
X007491Y001771D01*
X007569Y001694D02*
X008321Y001694D01*
X008398Y001617D02*
X007646Y001617D01*
X009521Y002621D02*
X010104Y002621D01*
X010086Y002629D02*
X010233Y002568D01*
X010392Y002568D01*
X010539Y002629D01*
X010651Y002741D01*
X010712Y002888D01*
X010712Y003047D01*
X010651Y003193D01*
X010539Y003306D01*
X010392Y003367D01*
X010233Y003367D01*
X010086Y003306D01*
X009974Y003193D01*
X009913Y003047D01*
X009913Y002888D01*
X009974Y002741D01*
X010086Y002629D01*
X010017Y002698D02*
X009609Y002698D01*
X009666Y002776D02*
X009960Y002776D01*
X009928Y002853D02*
X009698Y002853D01*
X009712Y002930D02*
X009913Y002930D01*
X009913Y003007D02*
X009712Y003007D01*
X009696Y003085D02*
X009929Y003085D01*
X009961Y003162D02*
X009664Y003162D01*
X009605Y003239D02*
X010020Y003239D01*
X010112Y003316D02*
X009513Y003316D01*
X010513Y003316D02*
X011112Y003316D01*
X011086Y003306D02*
X010974Y003193D01*
X010913Y003047D01*
X010913Y002888D01*
X010974Y002741D01*
X011086Y002629D01*
X011233Y002568D01*
X011392Y002568D01*
X011539Y002629D01*
X011651Y002741D01*
X011712Y002888D01*
X011712Y003047D01*
X011651Y003193D01*
X011539Y003306D01*
X011392Y003367D01*
X011233Y003367D01*
X011086Y003306D01*
X011020Y003239D02*
X010605Y003239D01*
X010664Y003162D02*
X010961Y003162D01*
X010929Y003085D02*
X010696Y003085D01*
X010712Y003007D02*
X010913Y003007D01*
X010913Y002930D02*
X010712Y002930D01*
X010698Y002853D02*
X010928Y002853D01*
X010960Y002776D02*
X010666Y002776D01*
X010609Y002698D02*
X011017Y002698D01*
X011104Y002621D02*
X010521Y002621D01*
X011521Y002621D02*
X012104Y002621D01*
X012017Y002698D02*
X011609Y002698D01*
X011666Y002776D02*
X011960Y002776D01*
X011928Y002853D02*
X011698Y002853D01*
X011712Y002930D02*
X011913Y002930D01*
X011913Y003007D02*
X011712Y003007D01*
X011696Y003085D02*
X011929Y003085D01*
X011961Y003162D02*
X011664Y003162D01*
X011605Y003239D02*
X012020Y003239D01*
X012112Y003316D02*
X011513Y003316D01*
X017108Y007487D02*
X018365Y007487D01*
X018288Y007565D02*
X017108Y007565D01*
X017108Y007642D02*
X018251Y007642D01*
X018251Y007719D02*
X017108Y007719D01*
X017108Y007796D02*
X018251Y007796D01*
X018327Y007873D02*
X017108Y007873D01*
X017108Y007951D02*
X018331Y007951D01*
X018331Y008028D02*
X017108Y008028D01*
X017108Y008105D02*
X018331Y008105D01*
X018331Y008182D02*
X018059Y008182D01*
X018127Y008251D02*
X018127Y008336D01*
X018152Y008360D01*
X018152Y009442D01*
X018251Y009483D01*
X018389Y009620D01*
X018463Y009800D01*
X018463Y009995D01*
X018389Y010175D01*
X018251Y010312D01*
X018071Y010387D01*
X017877Y010387D01*
X017697Y010312D01*
X017559Y010175D01*
X017485Y009995D01*
X017485Y009800D01*
X017559Y009620D01*
X017697Y009483D01*
X017796Y009442D01*
X017796Y008588D01*
X017791Y008588D01*
X017651Y008448D01*
X017651Y008251D01*
X017791Y008111D01*
X017988Y008111D01*
X018127Y008251D01*
X018127Y008260D02*
X018331Y008260D01*
X018331Y008337D02*
X018129Y008337D01*
X018152Y008414D02*
X018331Y008414D01*
X018331Y008491D02*
X018152Y008491D01*
X018152Y008569D02*
X018331Y008569D01*
X018331Y008646D02*
X018152Y008646D01*
X018152Y008723D02*
X018331Y008723D01*
X018331Y008800D02*
X018152Y008800D01*
X018152Y008878D02*
X018331Y008878D01*
X018331Y008955D02*
X018152Y008955D01*
X018152Y009032D02*
X018331Y009032D01*
X018331Y009109D02*
X018152Y009109D01*
X018152Y009187D02*
X018331Y009187D01*
X018380Y009264D02*
X018152Y009264D01*
X018152Y009341D02*
X018457Y009341D01*
X018481Y009418D02*
X018152Y009418D01*
X018264Y009496D02*
X018481Y009496D01*
X018481Y009573D02*
X018341Y009573D01*
X018401Y009650D02*
X018481Y009650D01*
X018481Y009727D02*
X018433Y009727D01*
X018463Y009804D02*
X018481Y009804D01*
X018481Y009882D02*
X018463Y009882D01*
X018463Y009959D02*
X018481Y009959D01*
X018481Y010036D02*
X018446Y010036D01*
X018414Y010113D02*
X018481Y010113D01*
X018481Y010191D02*
X018373Y010191D01*
X018296Y010268D02*
X018481Y010268D01*
X018481Y010345D02*
X018172Y010345D01*
X018106Y010422D02*
X018481Y010422D01*
X018481Y010500D02*
X018268Y010500D01*
X018346Y010577D02*
X018481Y010577D01*
X018481Y010654D02*
X018403Y010654D01*
X018435Y010731D02*
X018481Y010731D01*
X017842Y010422D02*
X017108Y010422D01*
X017108Y010345D02*
X017776Y010345D01*
X017652Y010268D02*
X017108Y010268D01*
X017108Y010191D02*
X017575Y010191D01*
X017534Y010113D02*
X017108Y010113D01*
X017108Y010036D02*
X017502Y010036D01*
X017485Y009959D02*
X017108Y009959D01*
X017108Y009882D02*
X017485Y009882D01*
X017485Y009804D02*
X017108Y009804D01*
X017108Y009727D02*
X017515Y009727D01*
X017547Y009650D02*
X017108Y009650D01*
X017108Y009573D02*
X017607Y009573D01*
X017684Y009496D02*
X017108Y009496D01*
X017108Y009418D02*
X017796Y009418D01*
X017796Y009341D02*
X017108Y009341D01*
X017108Y009264D02*
X017796Y009264D01*
X017796Y009187D02*
X017108Y009187D01*
X017108Y009109D02*
X017796Y009109D01*
X017796Y009032D02*
X017108Y009032D01*
X017108Y008955D02*
X017796Y008955D01*
X017796Y008878D02*
X017108Y008878D01*
X017108Y008800D02*
X017796Y008800D01*
X017796Y008723D02*
X017108Y008723D01*
X017108Y008646D02*
X017796Y008646D01*
X017772Y008569D02*
X017108Y008569D01*
X017108Y008491D02*
X017695Y008491D01*
X017651Y008414D02*
X017108Y008414D01*
X017108Y008337D02*
X017651Y008337D01*
X017651Y008260D02*
X017108Y008260D01*
X017108Y008182D02*
X017720Y008182D01*
X017680Y010500D02*
X017108Y010500D01*
X017108Y010577D02*
X017603Y010577D01*
X017545Y010654D02*
X017108Y010654D01*
X017108Y010731D02*
X017513Y010731D01*
X017485Y010809D02*
X017108Y010809D01*
X017108Y010886D02*
X017485Y010886D01*
X017485Y010963D02*
X017108Y010963D01*
X017108Y011040D02*
X017504Y011040D01*
X017535Y011118D02*
X017108Y011118D01*
X017108Y011195D02*
X017579Y011195D01*
X017657Y011272D02*
X017108Y011272D01*
X017108Y011349D02*
X017786Y011349D01*
D17*
X018328Y014795D03*
X010227Y006621D03*
X011234Y005270D03*
X012777Y005171D03*
X013981Y005378D03*
X016077Y005021D03*
X018427Y000710D03*
X007816Y005216D03*
X007006Y005235D03*
X007127Y006371D03*
X005077Y005971D03*
X000927Y001860D03*
X000877Y000810D03*
X000927Y014716D03*
D18*
X017974Y009897D02*
X017974Y008434D01*
X017889Y008349D01*
M02*
